<?xml version="1.0" standalone="no"?>
<!DOCTYPE svg PUBLIC "-//W3C//DTD SVG 1.1//EN" "http://www.w3.org/Graphics/SVG/1.1/DTD/svg11.dtd" >
<svg xmlns="http://www.w3.org/2000/svg" xmlns:xlink="http://www.w3.org/1999/xlink" version="1.1">
<metadata>
Created by FontForge 20201107 at Mon Jan 27 16:28:48 2025
 By 
Copyright 2019-2021 Indian Type Foundry. All rights reserved.
</metadata>
<defs>
<font id="Chillax-Light" horiz-adv-x="1300" >
  <font-face 
    font-family="Chillax Light"
    font-weight="300"
    font-stretch="normal"
    units-per-em="2048"
    panose-1="0 0 0 0 0 0 0 0 0 0"
    ascent="1638"
    descent="-410"
    x-height="987"
    cap-height="1364"
    bbox="-311 -479 3336 1901"
    underline-thickness="67"
    underline-position="-154"
    unicode-range="U+0020-FB02"
  />
<missing-glyph horiz-adv-x="1216" 
d="M207 0v1475h801v-1475h-801zM319 102h578v1250h-578v-1250z" />
    <glyph glyph-name="fi" unicode="fi" horiz-adv-x="1112" 
d="M352 0h-71v920h-203v67h203v148q0 141 82 229t221 88q96 0 170 -41v-76q-71 49 -166 49q-109 0 -172.5 -66.5t-63.5 -184.5v-146h568v-987h-72v920h-496v-920z" />
    <glyph glyph-name="fl" unicode="fl" horiz-adv-x="1146" 
d="M352 0h-71v922h-203v65h203v111q0 154 95 254t267 100q121 0 219 -33l66 21v-1440h-72v1343q-92 39 -207 39q-149 0 -223 -77.5t-74 -204.5v-113h281v-65h-281v-922z" />
    <glyph glyph-name=".notdef" horiz-adv-x="1216" 
d="M207 0v1475h801v-1475h-801zM319 102h578v1250h-578v-1250z" />
    <glyph glyph-name=".null" horiz-adv-x="0" 
 />
    <glyph glyph-name="nonmarkingreturn" horiz-adv-x="682" 
 />
    <glyph glyph-name="space" unicode=" " horiz-adv-x="591" 
 />
    <glyph glyph-name="exclam" unicode="!" horiz-adv-x="528" 
d="M229 1382h74v-901h-74v901zM264 -14q-25 0 -43 18t-18 45q0 26 18 44t43 18q27 0 44.5 -17.5t17.5 -44.5q0 -28 -17 -45.5t-45 -17.5z" />
    <glyph glyph-name="quotedbl" unicode="&#x22;" horiz-adv-x="747" 
d="M254 1427v-497h-74v497h74zM567 1427v-497h-73v497h73z" />
    <glyph glyph-name="numbersign" unicode="#" horiz-adv-x="1669" 
d="M332 0l98 371h-293v67h312l131 502h-301v66h319l94 358h70l-94 -358h510l94 358h69l-94 -358h285v-64h-303l-131 -504h327v-65h-346l-98 -373h-68l99 373l-512 -2l-99 -371h-69zM518 438h510l133 504l-512 -2z" />
    <glyph glyph-name="dollar" unicode="$" horiz-adv-x="1179" 
d="M598 -12h-23v-242h-71v248q-128 21 -225 89.5t-142 176.5l64 33q47 -110 152 -172t245 -62q160 0 264.5 83t104.5 223q0 34 -7 63t-17.5 51.5t-30.5 42.5t-37.5 34t-47.5 28t-51.5 22.5t-59 18.5t-60 15.5t-64.5 14.5q-57 13 -90 21.5t-84.5 25t-82 33.5t-67 44.5
t-56.5 59.5t-34 77.5t-14 99.5q0 138 104 238.5t256 119.5v244h74v-242q137 -5 247 -74t161 -192l-62 -35q-50 110 -146 170t-223 60q-136 0 -235.5 -84t-99.5 -205q0 -37 7.5 -68.5t25 -56.5t35 -44t49 -35.5t55 -27.5t65 -22.5t66.5 -18t71 -16.5q46 -11 70 -17
t66.5 -18.5t67 -22.5t59.5 -27.5t55.5 -35t44 -43t36 -54t21 -65.5t8.5 -79q0 -171 -125 -274t-319 -103z" />
    <glyph glyph-name="percent" unicode="%" horiz-adv-x="1417" 
d="M303 651q-115 0 -187.5 102.5t-72.5 258.5q0 157 73 257.5t187 100.5q116 0 188 -100t72 -258q0 -148 -74 -254.5t-186 -106.5zM414 0h-76l661 1364h76zM303 709q85 0 142 90t57 213q0 131 -56 217t-143 86t-143 -86t-56 -217t56 -217t143 -86zM1116 -10
q-116 0 -188 101.5t-72 258.5q0 158 72.5 259.5t187.5 101.5q116 0 187 -101.5t71 -259.5q0 -96 -33 -178.5t-92.5 -132t-132.5 -49.5zM1116 47q83 0 140 90.5t57 212.5q0 132 -55.5 217.5t-141.5 85.5q-88 0 -144.5 -85.5t-56.5 -217.5q0 -131 57 -217t144 -86z" />
    <glyph glyph-name="ampersand" unicode="&#x26;" horiz-adv-x="1542" 
d="M752 1313q-113 0 -193 -76t-80 -186q0 -178 185 -355l442 -424q125 159 168 383l67 -22q-48 -241 -186 -408l236 -225h-103l-180 172q-189 -192 -457 -192q-211 0 -344 110t-133 281q0 145 92 248.5t242 146.5q-105 143 -105 289q0 140 99.5 233.5t245.5 93.5
q255 0 372 -254l-61 -32q-45 103 -124 160t-183 57zM250 371q0 -138 115.5 -230t289.5 -92q234 0 404 170l-451 432q-17 16 -55 58q-131 -27 -217 -119t-86 -219z" />
    <glyph glyph-name="quotesingle" unicode="'" horiz-adv-x="434" 
d="M254 1427v-497h-74v497h74z" />
    <glyph glyph-name="parenleft" unicode="(" horiz-adv-x="692" 
d="M160 578q0 278 111.5 501.5t316.5 370.5v-84q-350 -302 -350 -788q0 -495 350 -791v-84q-205 148 -316.5 372.5t-111.5 502.5z" />
    <glyph glyph-name="parenright" unicode=")" horiz-adv-x="692" 
d="M530 578q0 -279 -111 -503t-317 -372v84q351 297 351 791q0 486 -351 788v84q206 -146 317 -369.5t111 -502.5z" />
    <glyph glyph-name="asterisk" unicode="*" horiz-adv-x="1198" 
d="M360 647q-13 0 -23.5 11.5t-10.5 25.5q0 33 71 109l189 211l-281 65q-4 1 -17.5 4t-19 4.5t-18 4.5t-19 5.5t-16 6.5t-14.5 8t-10.5 8.5t-8 10.5t-2.5 12q0 36 39 36q34 0 113 -36l258 -113l-25 280q-6 38 -6 91q0 24 11 40.5t30 16.5t30 -16.5t11 -40.5q0 -10 -6 -91
l-27 -278l258 108q87 37 113 37q17 0 28 -10t11 -27q0 -39 -129 -65l-279 -59l187 -215q73 -78 73 -109q0 -14 -10.5 -24.5t-25.5 -10.5q-35 0 -93 103l-143 243l-143 -239q-17 -30 -28 -48t-31 -38.5t-36 -20.5z" />
    <glyph glyph-name="plus" unicode="+" horiz-adv-x="1320" 
d="M623 1159h75v-442h443v-72h-443v-442h-75v442h-443v72h443v442z" />
    <glyph glyph-name="comma" unicode="," horiz-adv-x="487" 
d="M195 -373h-50l68 367q-33 18 -33 57q0 26 18.5 43t45.5 17q26 0 43.5 -17t17.5 -43q0 -10 -4 -22h2z" />
    <glyph glyph-name="hyphen" unicode="-" horiz-adv-x="1091" 
d="M866 672v-68l-641 -2v70h641z" />
    <glyph glyph-name="period" unicode="." horiz-adv-x="487" 
d="M244 -14q-27 0 -45.5 18t-18.5 47q0 26 18.5 43t45.5 17q26 0 43.5 -17t17.5 -43q0 -29 -17 -47t-44 -18z" />
    <glyph glyph-name="slash" unicode="/" horiz-adv-x="591" 
d="M-12 -297l461 1737h73l-463 -1737h-71z" />
    <glyph glyph-name="zero" unicode="0" horiz-adv-x="1239" 
d="M621 -20q-108 0 -202 56t-159 151t-102 224t-37 273q0 191 63.5 350.5t179 253.5t257.5 94q143 0 257.5 -94t177 -253t62.5 -351t-63.5 -353t-178 -256t-255.5 -95zM621 55q119 0 216.5 85.5t151 229t53.5 314.5q0 170 -53 312.5t-150 227.5t-218 85q-120 0 -217.5 -84.5
t-151 -227.5t-53.5 -313q0 -172 52.5 -315t150 -228.5t219.5 -85.5z" />
    <glyph glyph-name="one" unicode="1" horiz-adv-x="776" 
d="M535 0h-72v1260q0 47 -39 47q-20 0 -55 -21l-312 -188l-32 65l311 187q56 32 108 32q41 0 66 -28t25 -78v-1276z" />
    <glyph glyph-name="two" unicode="2" horiz-adv-x="1093" 
d="M975 0h-686q-70 0 -110 36.5t-40 92.5q0 75 68 131l463 416q100 89 147 172.5t47 183.5q0 123 -92 201t-223 78q-114 0 -212 -62t-159 -176l-63 37q72 129 183.5 200.5t254.5 71.5q166 0 276.5 -98t110.5 -248q0 -216 -213 -407l-471 -418q-45 -39 -45 -82
q0 -26 19.5 -42.5t54.5 -16.5h690v-70z" />
    <glyph glyph-name="three" unicode="3" horiz-adv-x="1210" 
d="M180 1294v70h639q79 0 122.5 -41t43.5 -102q0 -94 -96 -162l-340 -240q-47 -36 -47 -67q0 -21 16.5 -35.5t44.5 -14.5h123q161 0 255.5 -89.5t94.5 -243.5q0 -168 -127.5 -278.5t-304.5 -110.5q-157 0 -274.5 70t-177.5 198l67 37q112 -232 385 -232q145 0 252 90
t107 226q0 127 -78 196.5t-217 69.5h-113q-58 0 -90.5 32.5t-32.5 77.5q0 69 66 117l348 248q65 48 65 104q0 35 -24.5 57.5t-67.5 22.5h-639z" />
    <glyph glyph-name="four" unicode="4" horiz-adv-x="1157" 
d="M883 0h-72v315h-610q-65 0 -101.5 31t-36.5 82q0 56 39 109l537 761q61 84 137 84q47 0 77 -30.5t30 -79.5v-889h252v-68h-252v-315zM207 383h604v879q0 53 -45 53q-20 0 -35 -12t-37 -39l-540 -766q-21 -30 -21 -62q0 -25 20 -39t54 -14z" />
    <glyph glyph-name="five" unicode="5" horiz-adv-x="1060" 
d="M539 -18q-135 0 -251 60t-171 169l65 43q44 -97 141.5 -149t215.5 -52q146 0 248 96.5t102 241.5q0 149 -93.5 226t-256.5 77h-222q-71 0 -111 38.5t-40 107.5v524h725v-70l-651 -2v-444q0 -40 23 -62t63 -22h217q199 0 309.5 -94.5t110.5 -274.5q0 -179 -121.5 -296
t-302.5 -117z" />
    <glyph glyph-name="six" unicode="6" horiz-adv-x="1140" 
d="M578 -20q-195 0 -330 129.5t-135 322.5q0 133 104 318l346 614h86l-305 -537q110 72 238 72q191 0 324.5 -130.5t133.5 -326.5q0 -195 -134.5 -328.5t-327.5 -133.5zM578 49q161 0 275 113t114 278q0 164 -114 276.5t-275 112.5q-87 0 -162 -35t-124.5 -92t-77.5 -127.5
t-28 -142.5q0 -162 115 -272.5t277 -110.5z" />
    <glyph glyph-name="seven" unicode="7" horiz-adv-x="921" 
d="M315 0h-79l505 1120q29 66 29 103q0 71 -98 71h-631v70h631q86 0 128 -35.5t42 -99.5q0 -60 -35 -135z" />
    <glyph glyph-name="eight" unicode="8" horiz-adv-x="1269" 
d="M637 -18q-216 0 -346.5 99.5t-130.5 262.5q0 125 81 218t212 122q-116 26 -187 116t-71 214q0 160 123.5 264t318.5 104q192 0 316 -104.5t124 -263.5q0 -122 -70.5 -213t-185.5 -117q131 -29 210 -121t79 -219q0 -163 -130 -262.5t-343 -99.5zM637 719q168 0 267.5 81
t99.5 214q0 129 -103.5 215t-263.5 86q-161 0 -265 -86t-104 -215q0 -136 96.5 -215.5t272.5 -79.5zM637 51q181 0 290 81.5t109 215.5q0 144 -112 222.5t-287 78.5q-178 0 -291 -78.5t-113 -222.5q0 -134 110.5 -215.5t293.5 -81.5z" />
    <glyph glyph-name="nine" unicode="9" horiz-adv-x="1140" 
d="M569 1382q198 0 334.5 -130t136.5 -316q0 -145 -102 -320l-350 -616h-84l303 535q-112 -70 -242 -70q-196 0 -330.5 130t-134.5 331q0 193 136 324.5t333 131.5zM569 1315q-165 0 -280 -112t-115 -273q0 -172 114 -283.5t281 -111.5q90 0 166.5 35t126 92t77.5 128.5
t28 145.5q0 158 -116.5 268.5t-281.5 110.5z" />
    <glyph glyph-name="colon" unicode=":" horiz-adv-x="487" 
d="M244 874q-27 0 -45.5 18.5t-18.5 47.5q0 26 18.5 43.5t45.5 17.5q26 0 43.5 -17.5t17.5 -43.5q0 -29 -17.5 -47.5t-43.5 -18.5zM244 -14q-27 0 -45.5 18t-18.5 47q0 26 18.5 43t45.5 17q26 0 43.5 -17t17.5 -43q0 -29 -17 -47t-44 -18z" />
    <glyph glyph-name="semicolon" unicode=";" horiz-adv-x="487" 
d="M244 874q-27 0 -45.5 18.5t-18.5 47.5q0 26 18.5 43.5t45.5 17.5q26 0 43.5 -17.5t17.5 -43.5q0 -29 -17.5 -47.5t-43.5 -18.5zM195 -373h-50l68 367q-33 18 -33 57q0 26 18.5 43t45.5 17q26 0 43.5 -17t17.5 -43q0 -10 -4 -22h2z" />
    <glyph glyph-name="less" unicode="&#x3c;" horiz-adv-x="1130" 
d="M930 334v-76l-672 254q-135 53 -135 168q0 116 135 168l672 254v-78l-649 -242q-84 -32 -84 -102q0 -67 84 -102z" />
    <glyph glyph-name="equal" unicode="=" horiz-adv-x="1277" 
d="M1096 965v-70l-916 -2v72h916zM1096 465v-70l-916 -2v72h916z" />
    <glyph glyph-name="greater" unicode="&#x3e;" horiz-adv-x="1130" 
d="M872 512l-671 -254v76l649 244q84 35 84 102q0 70 -84 102l-649 242v78l671 -254q136 -52 136 -168q0 -115 -136 -168z" />
    <glyph glyph-name="question" unicode="?" horiz-adv-x="1097" 
d="M545 475h-76q0 48 21.5 88.5t56 70.5t76 58t83.5 58.5t76.5 65.5t56 86.5t21.5 113.5q0 122 -95 205.5t-228 83.5q-127 0 -227 -65.5t-154 -184.5l-64 37q64 134 177 210t268 76q168 0 283.5 -104t115.5 -258q0 -70 -21.5 -128.5t-56 -98t-76.5 -72.5t-83.5 -60
t-76 -53.5t-56 -59t-21.5 -69.5zM508 -16q-27 0 -45.5 17t-18.5 44q0 26 18.5 43.5t45.5 17.5q26 0 42.5 -17.5t16.5 -43.5q0 -28 -16.5 -44.5t-42.5 -16.5z" />
    <glyph glyph-name="at" unicode="@" horiz-adv-x="2148" 
d="M1034 63q-181 0 -296 119.5t-115 296.5q0 181 119 308.5t298 127.5q181 0 303.5 -118t122.5 -297v-357h52q141 0 231 115t90 309q0 138 -57.5 262t-156.5 214t-239.5 143t-300.5 53q-178 0 -333 -68.5t-258 -180t-161.5 -252.5t-58.5 -287q0 -163 59.5 -301.5t157 -229.5
t222 -141.5t256.5 -50.5q103 0 208 29.5t183 88.5l35 -55q-88 -65 -202 -96t-228 -31q-152 0 -291 59t-242 161.5t-164 251.5t-61 319q0 162 64.5 315t177.5 271t280 190t358 72q170 0 322.5 -57t262.5 -154.5t174.5 -233.5t64.5 -289q0 -222 -111 -354.5t-284 -132.5h-113
v221q-50 -105 -152.5 -172.5t-216.5 -67.5zM1038 129q142 0 250.5 110.5t108.5 260.5q0 145 -104.5 247.5t-254.5 102.5q-149 0 -247.5 -110.5t-98.5 -256.5q0 -151 95.5 -252.5t250.5 -101.5z" />
    <glyph glyph-name="A" unicode="A" horiz-adv-x="1349" 
d="M92 0l391 1237q46 145 193 145q144 0 190 -145l391 -1237h-73l-131 418l-754 -2l-131 -416h-76zM549 1217l-230 -732h711l-229 732q-30 98 -125 98q-97 0 -127 -98z" />
    <glyph glyph-name="B" unicode="B" horiz-adv-x="1331" 
d="M627 0h-389v1364h407q249 0 387.5 -87t138.5 -255q0 -142 -74 -226.5t-210 -109.5q313 -42 313 -317q0 -88 -31 -154.5t-82.5 -106.5t-127.5 -65t-155 -34t-177 -9zM313 1296v-577h324q245 0 353 70t108 229q0 138 -118.5 208t-332.5 70h-334zM313 651v-583h316
q85 0 150.5 6t133.5 25.5t112.5 52t72.5 88.5t28 133q0 148 -116 213t-373 65h-324z" />
    <glyph glyph-name="C" unicode="C" horiz-adv-x="1378" 
d="M772 -20q-135 0 -259 55.5t-215 149.5t-145.5 224.5t-54.5 274.5q0 191 92 352.5t247 254.5t335 93q167 0 307 -77.5t224 -212.5l-62 -39q-73 120 -200.5 189t-270.5 69q-159 0 -295.5 -83.5t-217.5 -228.5t-81 -317q0 -129 47.5 -246.5t127.5 -201.5t189.5 -133.5
t229.5 -49.5q143 0 271 68t200 188l62 -39q-84 -136 -223.5 -213t-307.5 -77z" />
    <glyph glyph-name="D" unicode="D" horiz-adv-x="1501" 
d="M1380 696q0 -160 -57.5 -292.5t-158 -220t-234.5 -135.5t-287 -48h-405v1364h424q321 0 519.5 -184.5t198.5 -483.5zM1305 696q0 176 -82.5 313t-228.5 211t-332 74h-349v-1222h330q134 0 253.5 42.5t210.5 120.5t144.5 197.5t53.5 263.5z" />
    <glyph glyph-name="E" unicode="E" horiz-adv-x="1234" 
d="M1114 0h-809q-49 0 -68.5 22t-19.5 64v1192q0 42 19.5 64t68.5 22h789v-70h-801v-577h766v-70l-766 -2v-573h821v-72z" />
    <glyph glyph-name="F" unicode="F" horiz-adv-x="1183" 
d="M293 0h-74v1278q0 43 19 64.5t67 21.5h799v-70h-811v-618h766v-72h-766v-604z" />
    <glyph glyph-name="G" unicode="G" horiz-adv-x="1433" 
d="M772 -20q-138 0 -263 56.5t-215 151t-143 224.5t-53 272q0 186 89 346.5t244.5 256t340.5 95.5q163 0 305.5 -74.5t225.5 -213.5l-64 -39q-71 122 -200.5 189t-268.5 67q-161 0 -298 -85t-216.5 -229.5t-79.5 -312.5q0 -127 46.5 -243.5t126 -201.5t190 -135.5
t233.5 -50.5q145 0 273 61.5t188 141.5v369h74v-398q-74 -100 -215 -173.5t-320 -73.5z" />
    <glyph glyph-name="H" unicode="H" horiz-adv-x="1501" 
d="M313 0h-75v1364h75v-647h875v647h74v-1364h-74v645h-875v-645z" />
    <glyph glyph-name="I" unicode="I" horiz-adv-x="550" 
d="M238 1364h75v-1364h-75v1364z" />
    <glyph glyph-name="J" unicode="J" horiz-adv-x="624" 
d="M20 -2v74q153 0 240.5 102.5t87.5 276.5v913h76v-911q0 -209 -107.5 -332t-296.5 -123z" />
    <glyph glyph-name="K" unicode="K" horiz-adv-x="1259" 
d="M313 0h-75v1364h75v-649h236q15 78 88 157l457 492h92l-488 -524q-82 -92 -82 -164q0 -71 82 -156l504 -520h-98l-467 483q-78 78 -90 162h-234v-645z" />
    <glyph glyph-name="L" unicode="L" horiz-adv-x="1071" 
d="M313 1364v-1294h738v-70h-725q-49 0 -68.5 22t-19.5 64v1278h75z" />
    <glyph glyph-name="M" unicode="M" horiz-adv-x="1937" 
d="M213 -2h-76l199 1257q10 61 50.5 94t94.5 33q48 0 87 -27t53 -79l315 -1088q11 -38 43 -38q35 0 43 38l315 1084q14 53 53.5 80.5t86.5 27.5q53 0 92.5 -34t48.5 -95l182 -1251h-74l-178 1235q-13 78 -73 78q-25 0 -45 -18t-29 -50l-320 -1085q-10 -37 -38 -57.5
t-64 -20.5q-34 0 -63 20.5t-39 55.5l-322 1091q-18 66 -72 66q-29 0 -49 -20.5t-26 -57.5z" />
    <glyph glyph-name="N" unicode="N" horiz-adv-x="1507" 
d="M289 0h-70v1219q0 77 42 120t108 43q95 0 141 -100l549 -1165q31 -72 88 -72q32 0 51 25t19 71v1223h71v-1219q0 -76 -41 -119.5t-100 -43.5q-101 0 -148 100l-548 1169q-31 70 -82 70q-36 0 -58 -26t-22 -74v-1221z" />
    <glyph glyph-name="O" unicode="O" horiz-adv-x="1568" 
d="M784 -18q-188 0 -345.5 92.5t-249 254t-91.5 355.5q0 143 54.5 272.5t146 222t218.5 147t267 54.5q141 0 268 -54.5t218.5 -147t145.5 -222t54 -272.5q0 -194 -92 -355.5t-249.5 -254t-344.5 -92.5zM784 55q123 0 235.5 49t194.5 133t130.5 201t48.5 246q0 128 -48 244
t-129.5 199.5t-194 132.5t-237.5 49q-165 0 -304.5 -83t-221.5 -227t-82 -315q0 -130 48 -246.5t129 -200.5t193.5 -133t237.5 -49z" />
    <glyph glyph-name="P" unicode="P" horiz-adv-x="1255" 
d="M313 0h-75v1364h366q127 0 231 -28t181 -83t119.5 -143.5t42.5 -204.5q0 -119 -44.5 -210t-124 -145t-181.5 -81t-224 -27h-291v-442zM604 1294h-291v-780h291q83 0 155.5 13t136 42.5t109 74.5t71.5 111.5t26 149.5q0 194 -136 291.5t-362 97.5z" />
    <glyph glyph-name="Q" unicode="Q" horiz-adv-x="1581" 
d="M1483 -18h-723q-182 7 -334 100.5t-240 252.5t-88 349q0 143 54.5 272.5t146 222t218.5 147t267 54.5q141 0 268 -54.5t218.5 -147t145.5 -222t54 -272.5q0 -209 -106 -378.5t-281 -254.5h35h365v-69zM784 55q123 0 235.5 49t194.5 133t130.5 201t48.5 246q0 128 -48 244
t-129.5 199.5t-194 132.5t-237.5 49q-165 0 -304.5 -83t-221.5 -227t-82 -315q0 -130 48 -246.5t129 -200.5t193.5 -133t237.5 -49z" />
    <glyph glyph-name="R" unicode="R" 
d="M311 0h-73v1364h399q208 0 339.5 -96.5t131.5 -282.5q0 -154 -94 -251t-260 -122q31 -11 59.5 -29t50.5 -36.5t47 -51t40.5 -55t40.5 -68t37.5 -70t39.5 -79.5l113 -223h-82l-105 207q-83 163 -125 222q-89 123 -215 150q-43 9 -92 9h-252v-588zM637 1294h-324v-637h320
q179 0 289 83t110 241q0 80 -31.5 141t-86.5 98t-125 55.5t-152 18.5z" />
    <glyph glyph-name="S" unicode="S" horiz-adv-x="1179" 
d="M598 -12q-158 0 -283 72t-178 200l64 33q47 -110 152 -172t245 -62q160 0 264.5 83t104.5 223q0 34 -7 63t-17.5 51.5t-30.5 42.5t-37.5 34t-47.5 28t-51.5 22.5t-59 18.5t-60 15.5t-64.5 14.5q-57 13 -90 21.5t-84.5 25t-82 33.5t-67 44.5t-56.5 59.5t-34 77.5t-14 99.5
q0 100 57 183.5t152 130t205 46.5q144 0 259.5 -69.5t168.5 -196.5l-62 -35q-50 110 -146 170t-223 60q-136 0 -235.5 -84t-99.5 -205q0 -37 7.5 -68.5t25 -56.5t35 -44t49 -35.5t55 -27.5t65 -22.5t66.5 -18t71 -16.5q46 -11 70 -17t66.5 -18.5t67 -22.5t59.5 -27.5
t55.5 -35t44 -43t36 -54t21 -65.5t8.5 -79q0 -171 -125 -274t-319 -103z" />
    <glyph glyph-name="T" unicode="T" horiz-adv-x="1015" 
d="M989 1364v-70h-444v-1294h-74v1292h-446v72h964z" />
    <glyph glyph-name="U" unicode="U" horiz-adv-x="1427" 
d="M715 -14q-255 0 -385.5 156t-130.5 433v789h75v-789q0 -244 111 -381t330 -137q218 0 328 137t110 381v789h76v-789q0 -277 -130 -433t-384 -156z" />
    <glyph glyph-name="V" unicode="V" horiz-adv-x="1316" 
d="M659 -20q-72 0 -129 45.5t-84 132.5l-370 1206h78l364 -1190q18 -58 56 -89.5t85 -31.5t84.5 31t55.5 90l364 1190h78l-373 -1206q-27 -87 -83 -132.5t-126 -45.5z" />
    <glyph glyph-name="W" unicode="W" horiz-adv-x="1896" 
d="M354 109l-278 1255h76l274 -1239q7 -38 26 -58t44 -20q28 0 50 21.5t32 62.5l264 1129q10 49 41.5 74.5t72.5 25.5q42 0 73.5 -25t43.5 -73l281 -1127q10 -40 31.5 -62t48.5 -22t45 20t24 58l242 1235h74l-244 -1247q-12 -64 -48 -99.5t-89 -35.5q-54 0 -93 34.5
t-57 102.5l-278 1122q-12 51 -54 51q-39 0 -51 -51l-264 -1132q-15 -62 -53.5 -95.5t-89.5 -33.5q-52 0 -91.5 33.5t-52.5 95.5z" />
    <glyph glyph-name="X" unicode="X" horiz-adv-x="1316" 
d="M168 0h-92l383 520q67 93 67 168q0 72 -67 168l-369 508h90l342 -471q62 -89 74 -168h125q11 78 74 168l340 471h90l-367 -508q-65 -89 -65 -168q0 -82 65 -168l383 -520h-92l-352 481q-67 91 -76 174h-125q-9 -78 -76 -174z" />
    <glyph glyph-name="Y" unicode="Y" horiz-adv-x="1126" 
d="M596 0h-74v469q-50 9 -87.5 48.5t-69.5 111.5l-326 735h80l313 -715q26 -60 55.5 -88.5t73.5 -28.5q45 0 74 28t57 89l316 715h82l-332 -735q-32 -72 -70.5 -111.5t-91.5 -48.5v-469z" />
    <glyph glyph-name="Z" unicode="Z" horiz-adv-x="1169" 
d="M1067 70v-70h-821q-67 0 -106.5 37.5t-39.5 93.5q0 67 45 117l809 911q29 32 29 66q0 29 -21 49t-55 20h-776v70h780q66 0 106 -37.5t40 -93.5q0 -67 -45 -117l-809 -911q-29 -32 -29 -66q0 -29 20.5 -49t55.5 -20h817z" />
    <glyph glyph-name="bracketleft" unicode="[" horiz-adv-x="716" 
d="M614 -297h-288q-49 0 -68.5 22t-19.5 64v1571q0 42 19.5 64t68.5 22h270v-70h-283v-1601h301v-72z" />
    <glyph glyph-name="backslash" unicode="\" horiz-adv-x="591" 
d="M70 1440h73l461 -1737h-72z" />
    <glyph glyph-name="bracketright" unicode="]" horiz-adv-x="716" 
d="M391 -297h-291v72h303v1601h-282v70h270q48 0 67 -21.5t19 -64.5v-1571q0 -43 -19 -64.5t-67 -21.5z" />
    <glyph glyph-name="asciicircum" unicode="^" horiz-adv-x="1024" 
d="M193 666h-78l252 608q23 48 62 74t83 26q45 0 83.5 -25.5t59.5 -74.5l254 -608h-75l-234 567q-13 34 -37.5 53t-50.5 19q-27 0 -51 -19t-37 -53z" />
    <glyph glyph-name="underscore" unicode="_" horiz-adv-x="1038" 
d="M961 -20v-68l-883 -2v70h883z" />
    <glyph glyph-name="grave" unicode="`" horiz-adv-x="620" 
d="M238 1448l229 -270h-82l-229 270h82z" />
    <glyph glyph-name="a" unicode="a" 
d="M604 -18q-140 0 -256.5 69t-183 187t-66.5 258q0 104 39 198.5t106.5 163.5t163 109.5t203.5 40.5q140 0 258 -67.5t186 -185.5t68 -259v-496h-69v272q-58 -131 -178 -210.5t-271 -79.5zM610 51q183 0 312 131t129 314q0 119 -59 221t-160.5 161.5t-221.5 59.5
q-182 0 -310 -130t-128 -312q0 -184 128 -314.5t310 -130.5z" />
    <glyph glyph-name="b" unicode="b" 
d="M690 -20q-140 0 -258.5 68t-187 186t-68.5 258v948h72v-711q61 126 179.5 202.5t264.5 76.5q141 0 258 -69t183.5 -187.5t66.5 -259.5q0 -139 -66 -256.5t-183.5 -186.5t-260.5 -69zM690 49q182 0 310 130.5t128 312.5q0 184 -128 315t-310 131q-121 0 -222.5 -60.5
t-159.5 -163t-58 -222.5q0 -119 58 -221t159.5 -162t222.5 -60z" />
    <glyph glyph-name="c" unicode="c" horiz-adv-x="1085" 
d="M592 -18q-130 -1 -244 67t-182 187t-68 258t68 258t182 187.5t244 68.5q131 0 239.5 -59t174.5 -175l-62 -37q-116 201 -352 201q-169 0 -294.5 -131.5t-125.5 -312.5q0 -89 34 -171t91 -141.5t134.5 -95t160.5 -35.5q237 0 352 199l62 -37q-66 -115 -174 -173t-240 -58z
" />
    <glyph glyph-name="d" unicode="d" 
d="M610 -20q-108 0 -203.5 40.5t-163 109.5t-106.5 163.5t-39 198.5q0 141 67 259.5t184.5 187.5t258.5 69q143 0 261.5 -75t179.5 -198l2 705h71v-948q0 -140 -68 -258t-186 -186t-258 -68zM610 49q182 0 311.5 130.5t129.5 312.5q0 120 -59 223t-160.5 163t-221.5 60
q-182 0 -310 -131t-128 -315q0 -182 128 -312.5t310 -130.5z" />
    <glyph glyph-name="e" unicode="e" horiz-adv-x="1153" 
d="M598 -18q-140 0 -255 68t-180 185t-65 259t59.5 259t169.5 186t248 69q208 0 337.5 -134.5t129.5 -347.5v-53h-870q6 -179 126.5 -300.5t299.5 -121.5q113 0 205.5 48.5t150.5 148.5l58 -35q-67 -115 -174.5 -173t-239.5 -58zM174 535h797q0 180 -111.5 291.5
t-284.5 111.5q-169 0 -279 -115t-122 -288z" />
    <glyph glyph-name="f" unicode="f" horiz-adv-x="770" 
d="M352 0h-71v920h-203v67h203v148q0 141 82 229t221 88q96 0 170 -41v-76q-71 49 -166 49q-109 0 -172.5 -66.5t-63.5 -184.5v-146h398v-67h-398v-920z" />
    <glyph glyph-name="g" unicode="g" horiz-adv-x="1327" 
d="M629 -473q-145 0 -267 62t-188 178l62 36q58 -101 161.5 -153.5t229.5 -52.5q200 0 325.5 135t124.5 352l-2 182q-57 -128 -175.5 -206t-268.5 -78q-211 0 -358.5 150.5t-147.5 363.5q0 104 39 198.5t106.5 163.5t163 109.5t203.5 40.5q140 0 258 -67.5t186 -185.5
t68 -259v-420q0 -247 -145 -398t-375 -151zM637 51q182 0 310 130.5t128 314.5q0 183 -127.5 312.5t-310.5 129.5t-310.5 -129.5t-127.5 -312.5q0 -184 128 -314.5t310 -130.5z" />
    <glyph glyph-name="h" unicode="h" horiz-adv-x="1314" 
d="M289 0h-72v1440h72v-695q48 118 157.5 190.5t247.5 72.5q203 0 324 -135.5t121 -354.5v-518h-72v514q0 86 -24 162t-70.5 135t-119.5 93t-165 34q-171 0 -285 -124.5t-114 -311.5v-502z" />
    <glyph glyph-name="i" unicode="i" horiz-adv-x="507" 
d="M254 1257q-26 0 -43.5 18t-17.5 46q0 29 17 47t44 18q28 0 44.5 -18t16.5 -47q0 -28 -17 -46t-44 -18zM217 987h72v-987h-72v987z" />
    <glyph glyph-name="j" unicode="j" horiz-adv-x="468" 
d="M258 1257q-26 0 -44.5 18.5t-18.5 45.5q0 29 18 47t45 18t43 -17.5t16 -47.5q0 -28 -16 -46t-43 -18zM221 987h72v-1116q0 -152 -81 -244t-218 -92v70q104 0 165.5 73.5t61.5 194.5v1114z" />
    <glyph glyph-name="k" unicode="k" horiz-adv-x="1081" 
d="M289 0h-72v1442h72v-914h166q13 55 59 99l387 360h96l-436 -407q-43 -43 -43 -86q0 -44 43 -84l436 -410h-100l-385 360q-48 48 -57 101h-166v-461z" />
    <glyph glyph-name="l" unicode="l" horiz-adv-x="507" 
d="M217 1440h72v-1440h-72v1440z" />
    <glyph glyph-name="m" unicode="m" horiz-adv-x="1976" 
d="M1374 1008q195 0 309.5 -137.5t114.5 -348.5v-522h-72v514q0 179 -94 301.5t-260 122.5q-159 0 -253.5 -119t-94.5 -295v-524h-72v522q0 178 -96 297t-260 119q-84 0 -151.5 -34t-109.5 -92.5t-64.5 -134t-22.5 -161.5v-516h-72v520q0 212 112.5 350t303.5 138
q155 0 261 -88t136 -230q32 142 133.5 230t251.5 88z" />
    <glyph glyph-name="n" unicode="n" horiz-adv-x="1275" 
d="M633 938q-119 0 -208 -60.5t-133 -157t-44 -212.5v-508h-72v510q0 217 124.5 357.5t332.5 140.5q213 0 340 -139.5t127 -356.5v-512h-72v506q0 117 -45 214t-136.5 157.5t-213.5 60.5z" />
    <glyph glyph-name="o" unicode="o" horiz-adv-x="1220" 
d="M612 -18q-142 0 -260.5 69t-186 187t-67.5 258q0 139 68.5 257t187 186.5t258.5 68.5q143 0 260.5 -69t183.5 -186.5t66 -256.5q0 -140 -67 -258t-184.5 -187t-258.5 -69zM612 51q181 0 310 131t129 314q0 182 -129 312t-310 130q-184 0 -312 -130t-128 -312
q0 -120 58 -222.5t159.5 -162.5t222.5 -60z" />
    <glyph glyph-name="p" unicode="p" 
d="M248 -453h-72v949q0 141 68.5 259t187 185.5t258.5 67.5q143 0 260.5 -69t183.5 -186.5t66 -256.5q0 -141 -66.5 -259.5t-183.5 -187.5t-258 -69q-145 0 -263 75.5t-179 200.5zM690 49q182 0 310 131.5t128 315.5q0 182 -128 312t-310 130q-184 0 -312 -130t-128 -312
q0 -184 128.5 -315.5t311.5 -131.5z" />
    <glyph glyph-name="q" unicode="q" 
d="M1122 -453h-71v707q-61 -124 -179.5 -199t-263.5 -75q-141 0 -258.5 69t-184.5 187.5t-67 259.5q0 104 39 198.5t106.5 163.5t163 109.5t203.5 40.5q140 0 258 -67.5t186 -185.5t68 -259v-949zM610 49q182 0 311.5 131.5t129.5 315.5q0 119 -59 221t-160.5 161.5
t-221.5 59.5q-182 0 -310 -130t-128 -312q0 -184 128 -315.5t310 -131.5z" />
    <glyph glyph-name="r" unicode="r" horiz-adv-x="655" 
d="M248 0h-72v623q0 168 91.5 271t244.5 103q92 0 166 -39v-75q-71 45 -162 45q-122 0 -195 -85t-73 -225v-618z" />
    <glyph glyph-name="s" unicode="s" horiz-adv-x="960" 
d="M487 -14q-118 0 -212.5 53.5t-147.5 157.5l61 34q89 -176 297 -176q115 0 195 56.5t80 152.5q0 61 -33 100.5t-86 59t-117 32.5t-128 29.5t-117 41.5t-86 76t-33 126q0 117 94 192.5t225 75.5q110 0 196 -45.5t136 -134.5l-61 -35q-79 146 -269 146q-100 0 -174 -55.5
t-74 -143.5q0 -52 26 -88.5t68 -55t96 -33.5t110.5 -24.5t110.5 -29t96 -45t68 -74t26 -115.5q0 -125 -101.5 -201.5t-245.5 -76.5z" />
    <glyph glyph-name="t" unicode="t" horiz-adv-x="892" 
d="M539 -20q-137 0 -217 86.5t-80 234.5v619h-222v67h222v264h71v-264h420v-67h-420v-617q0 -119 62.5 -186.5t167.5 -67.5q109 0 190 74v-76q-83 -67 -194 -67z" />
    <glyph glyph-name="u" unicode="u" horiz-adv-x="1228" 
d="M610 51q116 0 204.5 60t133.5 157.5t45 214.5v504h72v-510q0 -215 -125.5 -355t-329.5 -140q-201 0 -323.5 140.5t-122.5 356.5v508h72v-506q0 -116 43 -213t129.5 -157t201.5 -60z" />
    <glyph glyph-name="v" unicode="v" horiz-adv-x="1024" 
d="M381 76l-344 911h76l336 -889q18 -49 63 -49t63 49l336 889h76l-344 -911q-18 -47 -53 -71.5t-78 -24.5q-42 0 -77.5 25t-53.5 71z" />
    <glyph glyph-name="w" unicode="w" horiz-adv-x="1654" 
d="M422 -20q-54 0 -93.5 35t-54.5 100l-198 872h69l197 -858q9 -39 30.5 -60.5t49.5 -21.5q25 0 46 20t30 56l184 751q17 66 56 100t91 34q53 0 92 -34t56 -100l182 -751q9 -36 29 -56t47 -20q28 0 49.5 21.5t30.5 60.5l194 858h70l-199 -872q-15 -66 -53.5 -100.5
t-91.5 -34.5q-52 0 -89 33t-52 96l-183 753q-9 37 -32 58.5t-52 21.5q-27 0 -48.5 -21.5t-30.5 -58.5l-185 -753q-15 -63 -52.5 -96t-88.5 -33z" />
    <glyph glyph-name="x" unicode="x" horiz-adv-x="1122" 
d="M182 0h-84l279 375q45 57 45 119q0 59 -45 116l-279 377h84l250 -336q46 -61 55 -119h148q8 53 55 119l248 336h86l-281 -377q-43 -58 -43 -116q0 -62 45 -119l279 -375h-84l-250 334q-48 70 -57 129h-144q-9 -64 -57 -129z" />
    <glyph glyph-name="y" unicode="y" horiz-adv-x="1253" 
d="M590 -473q-135 0 -252.5 58t-181.5 173l63 35q56 -98 155.5 -147t215.5 -49q98 0 174.5 37t124.5 101t72.5 148.5t23.5 182.5l-2 180q-47 -123 -145.5 -193.5t-239.5 -70.5q-204 0 -318 129t-114 344v532h74v-518q0 -191 94 -304.5t268 -113.5q118 0 206 61t131.5 160.5
t43.5 223.5v491h74v-921q0 -158 -50 -277.5t-157 -190.5t-260 -71z" />
    <glyph glyph-name="z" unicode="z" horiz-adv-x="991" 
d="M889 0h-631q-72 0 -114 40.5t-42 96.5q0 75 64 127l608 504q43 37 43 80q0 31 -23 51.5t-59 20.5h-622v67h628q68 0 108 -40t40 -95q0 -77 -68 -133l-606 -504q-41 -33 -41 -74q0 -33 24.5 -53t65.5 -20h625v-68z" />
    <glyph glyph-name="braceleft" unicode="{" horiz-adv-x="741" 
d="M119 537v71h26q102 0 163 50.5t61 132.5q0 47 -16.5 104.5t-36 103t-36 107t-16.5 115.5q0 100 61 166.5t158 66.5q80 0 146 -41v-80q-59 49 -137 49q-66 0 -108 -49t-42 -121q0 -76 51 -213.5t51 -214.5q0 -82 -51 -139t-139 -74q88 -15 139 -72t51 -139q0 -76 -51 -214
t-51 -214q0 -71 42 -120.5t108 -49.5q73 0 137 50v-78q-66 -41 -146 -41q-97 0 -158 65.5t-61 165.5q0 55 16.5 116.5t36 106.5t36 102.5t16.5 104.5q0 82 -61 132.5t-163 50.5h-26z" />
    <glyph glyph-name="bar" unicode="|" horiz-adv-x="550" 
d="M311 -250h-71v1727h71v-1727z" />
    <glyph glyph-name="braceright" unicode="}" horiz-adv-x="741" 
d="M598 608h25v-71h-25q-103 0 -164 -50.5t-61 -132.5q0 -59 26 -132.5t52 -151t26 -146.5q0 -100 -61 -165.5t-158 -65.5q-79 0 -145 41v78q64 -50 139 -50q65 0 107 50t42 120q0 76 -51 214t-51 214q0 82 51 139t139 74q-88 15 -139 72t-51 139q0 77 51 214.5t51 213.5
q0 72 -42 121t-107 49q-80 0 -139 -49v80q66 41 145 41q97 0 158 -66.5t61 -166.5q0 -68 -26 -145.5t-52 -151.5t-26 -133q0 -82 61 -132.5t164 -50.5z" />
    <glyph glyph-name="asciitilde" unicode="~" horiz-adv-x="1155" 
d="M231 528l-73 19q12 85 74 143t145 58q51 0 106.5 -20t96.5 -43.5t92 -43.5t94 -20q61 0 104 39.5t54 97.5l73 -19q-11 -84 -72.5 -141t-146.5 -57q-48 0 -102 19.5t-94.5 43t-93.5 43t-99 19.5q-60 0 -102.5 -39.5t-55.5 -98.5z" />
    <glyph glyph-name="exclamdown" unicode="&#xa1;" horiz-adv-x="528" 
d="M264 1004q28 0 45 -17t17 -45q0 -26 -17 -43.5t-45 -17.5q-25 0 -43 17.5t-18 43.5q0 27 18 44.5t43 17.5zM303 508v-899h-74v899h74z" />
    <glyph glyph-name="cent" unicode="&#xa2;" horiz-adv-x="1085" 
d="M623 1247v-239q122 -8 221.5 -67t161.5 -167l-62 -37q-116 201 -352 201q-169 0 -294.5 -131.5t-125.5 -312.5q0 -89 34 -171t91 -141.5t134.5 -95t160.5 -35.5q237 0 352 199l62 -37q-61 -107 -161 -165t-222 -66v-242h-74v244q-186 15 -318.5 163t-132.5 347t132.5 347
t318.5 165v241h74z" />
    <glyph glyph-name="sterling" unicode="&#xa3;" horiz-adv-x="1126" 
d="M891 649l-395 -2q39 -70 39 -153q0 -43 -13.5 -84.5t-32.5 -72.5t-52 -66t-57.5 -57t-64.5 -54q-32 -29 -32 -54q0 -16 15.5 -26t43.5 -10h692v-70h-704q-60 0 -95.5 25.5t-35.5 68.5q0 54 61 105q4 3 26 21t30 25t29 25.5t30.5 30.5t26.5 31.5t25.5 36.5t18 38.5
t13.5 44t4 46.5q0 71 -47 149h-293v66h250l-11 14q-40 55 -60.5 88t-41 93t-20.5 122q0 67 28.5 130.5t79.5 113t126.5 79t162.5 29.5q280 0 414 -237l-64 -39q-57 104 -147 156.5t-201 52.5q-141 0 -234.5 -89t-93.5 -202q0 -17 2 -34t4.5 -30.5t9 -30.5t10 -27t13 -27.5
t13.5 -25t16.5 -25.5t16 -23.5t17.5 -25t17 -23.5q5 -6 27 -39h434v-64z" />
    <glyph glyph-name="currency" unicode="&#xa4;" horiz-adv-x="1245" 
d="M631 238q-160 0 -283 102l-164 -170l-55 55l164 170q-100 121 -100 281q0 157 98 276l-162 168l55 56l162 -168q123 102 285 102q164 0 287 -102l163 168l56 -56l-164 -170q96 -116 96 -274q0 -157 -98 -279l168 -172l-56 -55l-165 172q-123 -104 -287 -104zM631 307
q152 0 258 108t106 261q0 151 -106 257.5t-258 106.5t-258.5 -106.5t-106.5 -257.5q0 -153 106.5 -261t258.5 -108z" />
    <glyph glyph-name="yen" unicode="&#xa5;" horiz-adv-x="1214" 
d="M641 0h-76v272h-442v68h442v129q-50 10 -88 49t-69 111l-15 30h-270v68h242l-283 637h80l313 -715q28 -61 57 -89t74 -28q44 0 73.5 28.5t55.5 88.5l318 715h80l-285 -637h256v-68h-287l-14 -30q-33 -73 -72 -112t-90 -48v-129h463v-68h-463v-272z" />
    <glyph glyph-name="brokenbar" unicode="&#xa6;" horiz-adv-x="550" 
d="M311 819h-71v658h71v-658zM240 408h71v-658h-71v658z" />
    <glyph glyph-name="section" unicode="&#xa7;" horiz-adv-x="1374" 
d="M700 -379q-149 0 -262 66.5t-166 191.5l66 33q101 -219 362 -219q129 0 224.5 73.5t95.5 190.5q0 75 -45.5 129t-118.5 84.5t-160.5 56t-175.5 54.5t-161 68.5t-118.5 109t-45.5 164.5q0 96 52 172t136 125q-86 80 -86 208q0 141 112.5 233.5t274.5 92.5q139 0 250.5 -66
t165.5 -192l-68 -35q-47 107 -137 164t-213 57q-132 0 -221.5 -73.5t-89.5 -180.5q0 -61 28 -107.5t76 -76t110 -52.5t130.5 -42.5t136.5 -40t130 -50t110 -68t76 -99.5t28 -139q0 -94 -51 -169.5t-133 -127.5q82 -76 82 -201q0 -147 -117 -240.5t-277 -93.5zM268 627
q0 -63 25.5 -111.5t70.5 -80.5t100 -56t122.5 -44t129.5 -37.5t128 -43t112 -55.5q75 42 120.5 106.5t45.5 145.5q0 89 -47 150t-127.5 95.5t-165 58t-184 55t-160.5 69.5q-74 -40 -122 -108t-48 -144z" />
    <glyph glyph-name="dieresis" unicode="&#xa8;" horiz-adv-x="710" 
d="M166 1264q-25 0 -40 16t-15 41q0 26 15 41.5t40 15.5q24 0 39.5 -15.5t15.5 -41.5q0 -25 -16 -41t-39 -16zM547 1264q-24 0 -41 16.5t-17 40.5q0 25 17 41t41 16q25 0 40 -15.5t15 -41.5q0 -25 -15 -41t-40 -16z" />
    <glyph glyph-name="copyright" unicode="&#xa9;" horiz-adv-x="1685" 
d="M844 -16q-188 0 -346 93t-250 254.5t-92 354.5q0 144 54.5 273.5t147 222.5t219.5 147.5t267 54.5t266.5 -54.5t218 -147.5t145.5 -222.5t54 -273.5q0 -145 -54.5 -275t-146.5 -223.5t-218.5 -148.5t-264.5 -55zM844 45q126 0 241 50t198.5 135.5t133 204.5t49.5 251
q0 131 -49 249.5t-132 204t-198 135.5t-243 50q-170 0 -313.5 -85t-227.5 -232t-84 -322q0 -176 83 -323.5t227 -232.5t315 -85zM850 344q-134 0 -231 101.5t-97 240.5q0 138 97.5 239t230.5 101q193 0 278 -160l-53 -30q-34 63 -92 97t-133 34q-108 0 -186 -84t-78 -199
t77.5 -196.5t186.5 -81.5q75 0 133 33.5t92 95.5l53 -29q-89 -162 -278 -162z" />
    <glyph glyph-name="ordfeminine" unicode="&#xaa;" horiz-adv-x="937" 
d="M446 672q-146 0 -250 105t-104 253t104 251t255 103q149 0 253.5 -103t104.5 -251v-346h-61v164q-45 -80 -126 -128t-176 -48zM451 731q123 0 208.5 87t85.5 212q0 123 -85.5 209t-208.5 86t-208 -86t-85 -209q0 -125 85 -212t208 -87z" />
    <glyph glyph-name="guillemotleft" unicode="&#xab;" horiz-adv-x="1263" 
d="M750 473q-117 67 -117 168q0 99 117 166l309 178v-76l-289 -164q-68 -38 -68 -104q0 -67 68 -106l289 -164v-76zM240 473q-117 66 -117 168q0 99 117 166l309 178v-76l-289 -164q-70 -39 -70 -104q0 -66 70 -106l289 -164v-76z" />
    <glyph glyph-name="logicalnot" unicode="&#xac;" horiz-adv-x="1212" 
d="M1032 672v-436h-74v368l-778 -2v70h852z" />
    <glyph glyph-name="registered" unicode="&#xae;" horiz-adv-x="1071" 
d="M537 455q-192 0 -325.5 135t-133.5 330q0 193 134 327.5t325 134.5t323.5 -134.5t132.5 -327.5q0 -194 -133 -329.5t-323 -135.5zM537 498q167 0 286 123.5t119 298.5q0 173 -118 295t-287 122t-289.5 -122t-120.5 -295q0 -175 120 -298.5t290 -123.5zM436 676h-45v481
h148q76 0 121 -38t45 -103q0 -45 -26 -77.5t-75 -45.5q19 -8 35 -27t24 -34t25 -50l49 -106h-53l-41 90q-27 61 -54 83.5t-79 22.5h-74v-196zM537 1112h-101v-197h80q139 0 139 99q0 46 -30.5 72t-87.5 26z" />
    <glyph glyph-name="macron" unicode="&#xaf;" horiz-adv-x="962" 
d="M786 1368v-61h-612v61h612z" />
    <glyph glyph-name="degree" unicode="&#xb0;" horiz-adv-x="759" 
d="M381 850q-127 0 -215 89t-88 214t88.5 213t214.5 88q128 0 214.5 -88.5t86.5 -212.5q0 -125 -88 -214t-213 -89zM381 909q99 0 168 72t69 172t-69 170t-168 70q-101 0 -170.5 -70t-69.5 -170t69.5 -172t170.5 -72z" />
    <glyph glyph-name="plusminus" unicode="&#xb1;" horiz-adv-x="1355" 
d="M641 1163h74v-381h440v-69h-440v-375h-74v373h-438v71h438v381zM1151 262v-67l-950 -2v69h950z" />
    <glyph glyph-name="twosuperior" unicode="&#xb2;" horiz-adv-x="704" 
d="M588 696h-369q-40 0 -63 22.5t-23 57.5q0 47 39 76l223 172q105 78 105 172q0 50 -41.5 85.5t-104.5 35.5q-60 0 -112 -33.5t-78 -89.5l-49 29q86 147 241 147q91 0 147 -49.5t56 -122.5q0 -116 -121 -209l-229 -174q-21 -17 -21 -35q0 -12 9 -20t24 -8h367v-56z" />
    <glyph glyph-name="threesuperior" unicode="&#xb3;" horiz-adv-x="784" 
d="M166 1311v53h332q41 0 64.5 -22.5t23.5 -53.5q0 -52 -51 -86l-168 -110q-15 -9 -15 -23q0 -8 6.5 -14t16.5 -6h51q86 0 135 -44.5t49 -123.5q0 -83 -64.5 -139t-158.5 -56q-85 0 -145.5 35.5t-89.5 101.5l49 29q49 -113 186 -113q68 0 115 41t47 101q0 58 -34 89t-99 31
h-54q-30 0 -49.5 19t-19.5 45q0 38 37 59l164 107q28 22 28 45q0 15 -10.5 25t-28.5 10h-317z" />
    <glyph glyph-name="acute" unicode="&#xb4;" horiz-adv-x="620" 
d="M238 1178h-82l229 270h82z" />
    <glyph glyph-name="paragraph" unicode="&#xb6;" horiz-adv-x="1318" 
d="M590 -250h-72v852h-20q-113 0 -212.5 54.5t-162 156.5t-62.5 229q0 126 62.5 227t162 154.5t212.5 53.5h92v-1727zM1073 -250h-72v1727h72v-1727z" />
    <glyph glyph-name="periodcentered" unicode="&#xb7;" horiz-adv-x="487" 
d="M244 573q-27 0 -45.5 18.5t-18.5 47.5q0 26 18.5 43.5t45.5 17.5q26 0 43.5 -17.5t17.5 -43.5q0 -29 -17.5 -47.5t-43.5 -18.5z" />
    <glyph glyph-name="cedilla" unicode="&#xb8;" horiz-adv-x="1236" 
d="M561 0l-31 -88q87 -6 137 -50t50 -116q0 -83 -66 -143t-174 -82l-24 53q96 21 146 67t50 107q0 56 -44 85.5t-128 29.5h-35l4 8h-2l45 129h72z" />
    <glyph glyph-name="onesuperior" unicode="&#xb9;" horiz-adv-x="563" 
d="M322 696h-62v588q0 25 -22 25q-18 0 -52 -19l-135 -78l-26 54l135 75q56 29 90 29q35 0 53.5 -21t18.5 -55v-598z" />
    <glyph glyph-name="ordmasculine" unicode="&#xba;" horiz-adv-x="917" 
d="M459 672q-149 0 -253 105t-104 253q0 147 104.5 249.5t252.5 102.5q152 0 254 -102t102 -250q0 -149 -103 -253.5t-253 -104.5zM459 727q124 0 211.5 88t87.5 213q0 124 -87 211.5t-212 87.5q-124 0 -210.5 -87t-86.5 -212t86.5 -213t210.5 -88z" />
    <glyph glyph-name="guillemotright" unicode="&#xbb;" horiz-adv-x="1263" 
d="M514 473l-309 -178v76l289 164q69 40 69 106t-69 104l-289 164v76l309 -178q117 -67 117 -166q0 -102 -117 -168zM1026 473l-311 -178v76l289 164q69 38 69 106q0 66 -69 104l-289 164v76l311 -178q115 -68 115 -166q0 -102 -115 -168z" />
    <glyph glyph-name="onequarter" unicode="&#xbc;" horiz-adv-x="1282" 
d="M393 696h-61v588q0 25 -23 25q-17 0 -51 -19l-137 -78l-27 54l135 75q56 29 93 29q35 0 53 -21t18 -55v-598zM256 0l659 1364h72l-659 -1364h-72zM1042 0h-59v156h-297q-34 0 -56 21.5t-22 51.5q0 35 23 64l260 340q30 41 80 41q29 0 50 -19t21 -53v-391h121v-55h-121
v-156zM692 211h291v389q0 21 -20 21q-14 0 -27 -19l-262 -340q-10 -13 -10 -24q0 -12 8 -19.5t20 -7.5z" />
    <glyph glyph-name="onehalf" unicode="&#xbd;" horiz-adv-x="1335" 
d="M393 696h-61v588q0 25 -23 25q-17 0 -51 -19l-137 -78l-27 54l135 75q56 29 93 29q35 0 53 -21t18 -55v-598zM256 0l659 1364h72l-659 -1364h-72zM1239 0h-367q-41 0 -64.5 23t-23.5 57q0 48 39 76l226 174q102 78 102 170q0 51 -40 86t-103 35q-61 0 -114 -33.5
t-79 -89.5l-47 30q83 148 240 148q92 0 148 -50t56 -124q0 -59 -29 -108.5t-93 -98.5l-228 -176q-20 -14 -20 -35q0 -29 32 -29h365v-55z" />
    <glyph glyph-name="threequarters" unicode="&#xbe;" horiz-adv-x="1411" 
d="M166 1311v53h332q41 0 64.5 -22.5t23.5 -53.5q0 -52 -51 -86l-168 -110q-15 -9 -15 -23q0 -8 6.5 -14t16.5 -6h51q86 0 135 -44.5t49 -123.5q0 -83 -64.5 -139t-158.5 -56q-85 0 -145.5 35.5t-89.5 101.5l49 29q49 -113 186 -113q68 0 115 41t47 101q0 58 -34 89t-99 31
h-54q-30 0 -49.5 19t-19.5 45q0 38 37 59l164 107q28 22 28 45q0 15 -10.5 25t-28.5 10h-317zM385 0l662 1364h71l-661 -1364h-72zM1171 0h-59v156h-295q-36 0 -58 21.5t-22 51.5q0 36 25 64l258 340q35 41 80 41q29 0 50 -19t21 -53v-391h123v-55h-123v-156zM821 211h291
v389q0 21 -18 21q-16 0 -29 -19l-262 -340q-10 -13 -10 -24q0 -12 8.5 -19.5t19.5 -7.5z" />
    <glyph glyph-name="questiondown" unicode="&#xbf;" horiz-adv-x="1083" 
d="M590 1004q26 0 43.5 -17t17.5 -45q0 -26 -17.5 -43.5t-43.5 -17.5t-44 17.5t-18 43.5q0 27 17.5 44.5t44.5 17.5zM553 512h76q0 -48 -21.5 -88.5t-56 -70.5t-76 -58t-83.5 -58.5t-76.5 -65.5t-56 -86.5t-21.5 -113.5q0 -122 95 -205t228 -83q127 0 226.5 64.5
t154.5 184.5l64 -36q-64 -134 -177.5 -210.5t-269.5 -76.5q-167 0 -283 104t-116 258q0 70 21.5 128.5t56.5 98t76.5 72.5t83.5 60t77 53.5t56.5 59t21.5 69.5z" />
    <glyph glyph-name="Agrave" unicode="&#xc0;" horiz-adv-x="1349" 
d="M492 1825l229 -271h-82l-227 271h80zM92 0l391 1237q46 145 193 145q144 0 190 -145l391 -1237h-73l-131 418l-754 -2l-131 -416h-76zM549 1217l-230 -732h711l-229 732q-30 98 -125 98q-97 0 -127 -98z" />
    <glyph glyph-name="Aacute" unicode="&#xc1;" horiz-adv-x="1349" 
d="M711 1554h-80l227 271h82zM92 0l391 1237q46 145 193 145q144 0 190 -145l391 -1237h-73l-131 418l-754 -2l-131 -416h-76zM549 1217l-230 -732h711l-229 732q-30 98 -125 98q-97 0 -127 -98z" />
    <glyph glyph-name="Acircumflex" unicode="&#xc2;" horiz-adv-x="1349" 
d="M383 1554l135 187q63 88 159 88t159 -88l133 -187h-76l-121 168q-40 52 -95.5 51.5t-94.5 -51.5l-125 -168h-74zM92 0l391 1237q46 145 193 145q144 0 190 -145l391 -1237h-73l-131 418l-754 -2l-131 -416h-76zM549 1217l-230 -732h711l-229 732q-30 98 -125 98
q-97 0 -127 -98z" />
    <glyph glyph-name="Atilde" unicode="&#xc3;" horiz-adv-x="1349" 
d="M420 1622l-58 14q5 65 48 112.5t106 47.5q52 0 106.5 -27t107 -54t99.5 -27t72.5 32.5t28.5 83.5l57 -14q-3 -70 -43.5 -117t-105.5 -47q-43 0 -87.5 17t-76.5 37.5t-73 37.5t-77 17q-44 0 -70.5 -32.5t-33.5 -80.5zM92 0l391 1237q46 145 193 145q144 0 190 -145
l391 -1237h-73l-131 418l-754 -2l-131 -416h-76zM549 1217l-230 -732h711l-229 732q-30 98 -125 98q-97 0 -127 -98z" />
    <glyph glyph-name="Adieresis" unicode="&#xc4;" horiz-adv-x="1349" 
d="M485 1640q-25 0 -40 17t-15 43q0 25 15 41t40 16q23 0 39.5 -16.5t16.5 -40.5q0 -26 -16 -43t-40 -17zM866 1640q-24 0 -40.5 17t-16.5 43q0 24 16.5 40.5t40.5 16.5q25 0 40.5 -16t15.5 -41q0 -26 -15.5 -43t-40.5 -17zM92 0l391 1237q46 145 193 145q144 0 190 -145
l391 -1237h-73l-131 418l-754 -2l-131 -416h-76zM549 1217l-230 -732h711l-229 732q-30 98 -125 98q-97 0 -127 -98z" />
    <glyph glyph-name="Aring" unicode="&#xc5;" horiz-adv-x="1349" 
d="M676 1526q-67 0 -115.5 48t-48.5 114q0 67 48 115t116 48q66 0 114 -48t48 -115q0 -66 -48 -114t-114 -48zM676 1579q44 0 76 32.5t32 76.5q0 46 -32 78t-76 32q-46 0 -78.5 -32t-32.5 -78q0 -44 32.5 -76.5t78.5 -32.5zM92 0l391 1237q46 145 193 145q144 0 190 -145
l391 -1237h-73l-131 418l-754 -2l-131 -416h-76zM549 1217l-230 -732h711l-229 732q-30 98 -125 98q-97 0 -127 -98z" />
    <glyph glyph-name="AE" unicode="&#xc6;" horiz-adv-x="2084" 
d="M178 0h-86l858 1290q46 74 140 74h856v-70h-803v-577h766v-70l-766 -2v-573h821v-72h-809q-47 0 -66.5 22t-19.5 64v297h-637zM1014 1260l-537 -809h592v827v18q-33 -5 -55 -36z" />
    <glyph glyph-name="Ccedilla" unicode="&#xc7;" horiz-adv-x="1378" 
d="M725 -479l-23 53q96 21 146.5 67t50.5 107q0 56 -44 85.5t-128 29.5h-37l4 8h-2l41 111q-172 10 -317.5 105t-231.5 253.5t-86 343.5q0 191 92 352.5t247 254.5t335 93q167 0 307 -77.5t224 -212.5l-62 -39q-73 120 -200.5 189t-270.5 69q-159 0 -295.5 -83.5
t-217.5 -228.5t-81 -317q0 -129 47.5 -246.5t127.5 -201.5t189.5 -133.5t229.5 -49.5q143 0 271 68t200 188l62 -39q-80 -130 -211 -206.5t-289 -83.5l-23 -68q86 -6 136.5 -50t50.5 -116q0 -83 -66.5 -143t-175.5 -82z" />
    <glyph glyph-name="Egrave" unicode="&#xc8;" horiz-adv-x="1234" 
d="M489 1825l228 -271h-80l-229 271h81zM1114 0h-809q-49 0 -68.5 22t-19.5 64v1192q0 42 19.5 64t68.5 22h789v-70h-801v-577h766v-70l-766 -2v-573h821v-72z" />
    <glyph glyph-name="Eacute" unicode="&#xc9;" horiz-adv-x="1234" 
d="M709 1554h-80l227 271h82zM1114 0h-809q-49 0 -68.5 22t-19.5 64v1192q0 42 19.5 64t68.5 22h789v-70h-801v-577h766v-70l-766 -2v-573h821v-72z" />
    <glyph glyph-name="Ecircumflex" unicode="&#xca;" horiz-adv-x="1234" 
d="M379 1554l135 187q64 88 160.5 88t159.5 -88l133 -187h-76l-121 168q-40 52 -96.5 51.5t-93.5 -51.5l-125 -168h-76zM1114 0h-809q-49 0 -68.5 22t-19.5 64v1192q0 42 19.5 64t68.5 22h789v-70h-801v-577h766v-70l-766 -2v-573h821v-72z" />
    <glyph glyph-name="Edieresis" unicode="&#xcb;" horiz-adv-x="1234" 
d="M483 1640q-25 0 -41 17t-16 43q0 25 16 41t41 16q23 0 39.5 -16.5t16.5 -40.5q0 -26 -16 -43t-40 -17zM864 1640q-24 0 -40.5 17t-16.5 43q0 24 16.5 40.5t40.5 16.5q25 0 40.5 -16t15.5 -41q0 -26 -15.5 -43t-40.5 -17zM1114 0h-809q-49 0 -68.5 22t-19.5 64v1192
q0 42 19.5 64t68.5 22h789v-70h-801v-577h766v-70l-766 -2v-573h821v-72z" />
    <glyph glyph-name="Igrave" unicode="&#xcc;" horiz-adv-x="550" 
d="M90 1825l227 -271h-79l-230 271h82zM238 1364h75v-1364h-75v1364z" />
    <glyph glyph-name="Iacute" unicode="&#xcd;" horiz-adv-x="550" 
d="M309 1554h-82l230 271h82zM238 1364h75v-1364h-75v1364z" />
    <glyph glyph-name="Icircumflex" unicode="&#xce;" horiz-adv-x="550" 
d="M-20 1554l135 187q42 57 101 78t117.5 0t98.5 -78l135 -187h-75l-123 168q-39 52 -95.5 51.5t-95.5 -51.5l-123 -168h-75zM238 1364h75v-1364h-75v1364z" />
    <glyph glyph-name="Idieresis" unicode="&#xcf;" horiz-adv-x="550" 
d="M84 1640q-25 0 -41 17t-16 43q0 25 16 41t41 16q23 0 39 -16t16 -41q0 -26 -16 -43t-39 -17zM465 1640q-24 0 -40.5 17t-16.5 43q0 24 16.5 40.5t40.5 16.5t38.5 -16t14.5 -41q0 -27 -14.5 -43.5t-38.5 -16.5zM238 1364h75v-1364h-75v1364z" />
    <glyph glyph-name="Eth" unicode="&#xd0;" horiz-adv-x="1501" 
d="M238 664h-201v67h201v633h424q321 0 519.5 -184.5t198.5 -483.5q0 -160 -57.5 -292.5t-158 -220t-234.5 -135.5t-287 -48h-405v664zM313 664v-592h330q134 0 253.5 42.5t210.5 120.5t144.5 197.5t53.5 263.5q0 176 -82.5 313t-228.5 211t-332 74h-349v-563h426v-67h-426z
" />
    <glyph glyph-name="Ntilde" unicode="&#xd1;" horiz-adv-x="1507" 
d="M539 1622l-56 14q5 64 47.5 112t104.5 48q52 0 107 -27t107 -54t99 -27t72.5 32.5t28.5 83.5l59 -14q-5 -70 -45.5 -117t-104.5 -47q-43 0 -88 17t-77 37.5t-72.5 37.5t-75.5 17q-45 0 -72 -32.5t-34 -80.5zM289 0h-70v1219q0 77 42 120t108 43q95 0 141 -100l549 -1165
q31 -72 88 -72q32 0 51 25t19 71v1223h71v-1219q0 -76 -41 -119.5t-100 -43.5q-101 0 -148 100l-548 1169q-31 70 -82 70q-36 0 -58 -26t-22 -74v-1221z" />
    <glyph glyph-name="Ograve" unicode="&#xd2;" horiz-adv-x="1568" 
d="M602 1825l227 -271h-79l-230 271h82zM784 -18q-188 0 -345.5 92.5t-249 254t-91.5 355.5q0 143 54.5 272.5t146 222t218.5 147t267 54.5q141 0 268 -54.5t218.5 -147t145.5 -222t54 -272.5q0 -194 -92 -355.5t-249.5 -254t-344.5 -92.5zM784 55q123 0 235.5 49t194.5 133
t130.5 201t48.5 246q0 128 -48 244t-129.5 199.5t-194 132.5t-237.5 49q-165 0 -304.5 -83t-221.5 -227t-82 -315q0 -130 48 -246.5t129 -200.5t193.5 -133t237.5 -49z" />
    <glyph glyph-name="Oacute" unicode="&#xd3;" horiz-adv-x="1568" 
d="M821 1554h-80l228 271h82zM784 -18q-188 0 -345.5 92.5t-249 254t-91.5 355.5q0 143 54.5 272.5t146 222t218.5 147t267 54.5q141 0 268 -54.5t218.5 -147t145.5 -222t54 -272.5q0 -194 -92 -355.5t-249.5 -254t-344.5 -92.5zM784 55q123 0 235.5 49t194.5 133t130.5 201
t48.5 246q0 128 -48 244t-129.5 199.5t-194 132.5t-237.5 49q-165 0 -304.5 -83t-221.5 -227t-82 -315q0 -130 48 -246.5t129 -200.5t193.5 -133t237.5 -49z" />
    <glyph glyph-name="Ocircumflex" unicode="&#xd4;" horiz-adv-x="1568" 
d="M492 1554l135 187q65 88 160.5 88t158.5 -88l133 -187h-75l-123 168q-39 52 -95.5 51.5t-95.5 -51.5l-123 -168h-75zM784 -18q-188 0 -345.5 92.5t-249 254t-91.5 355.5q0 143 54.5 272.5t146 222t218.5 147t267 54.5q141 0 268 -54.5t218.5 -147t145.5 -222t54 -272.5
q0 -194 -92 -355.5t-249.5 -254t-344.5 -92.5zM784 55q123 0 235.5 49t194.5 133t130.5 201t48.5 246q0 128 -48 244t-129.5 199.5t-194 132.5t-237.5 49q-165 0 -304.5 -83t-221.5 -227t-82 -315q0 -130 48 -246.5t129 -200.5t193.5 -133t237.5 -49z" />
    <glyph glyph-name="Otilde" unicode="&#xd5;" horiz-adv-x="1568" 
d="M528 1622l-55 14q5 65 48 112.5t106 47.5q51 0 105.5 -27t107 -54t100.5 -27q45 0 70 32.5t28 83.5l60 -14q-5 -70 -45 -117t-105 -47q-43 0 -88 17t-77 37.5t-72.5 37.5t-75.5 17q-45 0 -73 -32.5t-34 -80.5zM784 -18q-188 0 -345.5 92.5t-249 254t-91.5 355.5
q0 143 54.5 272.5t146 222t218.5 147t267 54.5q141 0 268 -54.5t218.5 -147t145.5 -222t54 -272.5q0 -194 -92 -355.5t-249.5 -254t-344.5 -92.5zM784 55q123 0 235.5 49t194.5 133t130.5 201t48.5 246q0 128 -48 244t-129.5 199.5t-194 132.5t-237.5 49q-165 0 -304.5 -83
t-221.5 -227t-82 -315q0 -130 48 -246.5t129 -200.5t193.5 -133t237.5 -49z" />
    <glyph glyph-name="Odieresis" unicode="&#xd6;" horiz-adv-x="1568" 
d="M596 1640q-25 0 -41 17t-16 43q0 25 16 41t41 16q23 0 39 -16t16 -41q0 -26 -16 -43t-39 -17zM977 1640q-24 0 -40.5 17t-16.5 43q0 24 16.5 40.5t40.5 16.5t38.5 -16t14.5 -41q0 -27 -14.5 -43.5t-38.5 -16.5zM784 -18q-188 0 -345.5 92.5t-249 254t-91.5 355.5
q0 143 54.5 272.5t146 222t218.5 147t267 54.5q141 0 268 -54.5t218.5 -147t145.5 -222t54 -272.5q0 -194 -92 -355.5t-249.5 -254t-344.5 -92.5zM784 55q123 0 235.5 49t194.5 133t130.5 201t48.5 246q0 128 -48 244t-129.5 199.5t-194 132.5t-237.5 49q-165 0 -304.5 -83
t-221.5 -227t-82 -315q0 -130 48 -246.5t129 -200.5t193.5 -133t237.5 -49z" />
    <glyph glyph-name="multiply" unicode="&#xd7;" horiz-adv-x="1169" 
d="M987 334l-51 -51l-352 352l-351 -352l-53 51l352 352l-352 352l53 54l351 -353l352 353l51 -54l-350 -352z" />
    <glyph glyph-name="Oslash" unicode="&#xd8;" horiz-adv-x="1568" 
d="M784 -18q-129 0 -245.5 45.5t-208.5 128.5l-146 -156h-84l187 197q-90 97 -139.5 222t-49.5 265q0 143 54.5 272.5t146 222t218.5 147t267 54.5q259 0 455 -172l147 156h84l-188 -199q89 -96 138.5 -219t49.5 -262q0 -194 -92 -355.5t-249.5 -254t-344.5 -92.5zM176 684
q0 -124 42.5 -234.5t119.5 -195.5l848 901q-81 73 -184.5 113.5t-217.5 40.5q-165 0 -304.5 -83t-221.5 -227t-82 -315zM784 55q123 0 235.5 49t194.5 133t130.5 201t48.5 246q0 246 -162 426l-848 -901q170 -154 401 -154z" />
    <glyph glyph-name="Ugrave" unicode="&#xd9;" horiz-adv-x="1427" 
d="M530 1825l228 -271h-80l-229 271h81zM715 -14q-255 0 -385.5 156t-130.5 433v789h75v-789q0 -244 111 -381t330 -137q218 0 328 137t110 381v789h76v-789q0 -277 -130 -433t-384 -156z" />
    <glyph glyph-name="Uacute" unicode="&#xda;" horiz-adv-x="1427" 
d="M750 1554h-80l227 271h82zM715 -14q-255 0 -385.5 156t-130.5 433v789h75v-789q0 -244 111 -381t330 -137q218 0 328 137t110 381v789h76v-789q0 -277 -130 -433t-384 -156z" />
    <glyph glyph-name="Ucircumflex" unicode="&#xdb;" horiz-adv-x="1427" 
d="M420 1554l135 187q65 88 160.5 88t158.5 -88l134 -187h-76l-121 168q-40 52 -96.5 51.5t-93.5 -51.5l-125 -168h-76zM715 -14q-255 0 -385.5 156t-130.5 433v789h75v-789q0 -244 111 -381t330 -137q218 0 328 137t110 381v789h76v-789q0 -277 -130 -433t-384 -156z" />
    <glyph glyph-name="Udieresis" unicode="&#xdc;" horiz-adv-x="1427" 
d="M524 1640q-25 0 -41 17t-16 43q0 25 16 41t41 16q24 0 40 -16.5t16 -40.5q0 -26 -16 -43t-40 -17zM905 1640q-24 0 -40.5 17t-16.5 43q0 24 16.5 40.5t40.5 16.5q25 0 40.5 -16t15.5 -41q0 -26 -15.5 -43t-40.5 -17zM715 -14q-255 0 -385.5 156t-130.5 433v789h75v-789
q0 -244 111 -381t330 -137q218 0 328 137t110 381v789h76v-789q0 -277 -130 -433t-384 -156z" />
    <glyph glyph-name="Yacute" unicode="&#xdd;" horiz-adv-x="1126" 
d="M596 1554h-80l227 271h82zM596 0h-74v469q-50 9 -87.5 48.5t-69.5 111.5l-326 735h80l313 -715q26 -60 55.5 -88.5t73.5 -28.5q45 0 74 28t57 89l316 715h82l-332 -735q-32 -72 -70.5 -111.5t-91.5 -48.5v-469z" />
    <glyph glyph-name="Thorn" unicode="&#xde;" horiz-adv-x="1255" 
d="M313 1440v-252h291q127 0 231 -28t181 -83t119.5 -143t42.5 -203q0 -119 -44.5 -210t-124 -146t-181.5 -82t-224 -27h-291v-266h-75v1440h75zM604 1118h-291v-780h291q83 0 155.5 13.5t136 43t109 74.5t71.5 112t26 150q0 193 -136 290t-362 97z" />
    <glyph glyph-name="germandbls" unicode="&#xdf;" horiz-adv-x="1267" 
d="M844 -16q-107 0 -193 47.5t-139 142.5l59 37q87 -158 269 -158q105 0 173 54.5t68 138.5q0 49 -20.5 88t-53.5 65t-73 48.5t-80 44t-73 45.5t-53.5 59t-20.5 78q0 42 21 81.5t51.5 72.5t61 68t51.5 84t21 105q0 105 -73 168.5t-215 63.5q-152 0 -244 -105.5t-92 -261.5
v-950h-72v950q0 189 112 310.5t300 121.5q169 0 262.5 -79.5t93.5 -206.5q0 -65 -21.5 -120t-51.5 -92t-60.5 -69t-52 -65t-21.5 -66q0 -39 28 -71.5t69.5 -54t90 -50.5t90 -60t69.5 -83.5t28 -118.5q0 -107 -89 -184.5t-220 -77.5z" />
    <glyph glyph-name="agrave" unicode="&#xe0;" 
d="M438 1448l230 -270h-82l-228 270h80zM604 -18q-140 0 -256.5 69t-183 187t-66.5 258q0 104 39 198.5t106.5 163.5t163 109.5t203.5 40.5q140 0 258 -67.5t186 -185.5t68 -259v-496h-69v272q-58 -131 -178 -210.5t-271 -79.5zM610 51q183 0 312 131t129 314q0 119 -59 221
t-160.5 161.5t-221.5 59.5q-182 0 -310 -130t-128 -312q0 -184 128 -314.5t310 -130.5z" />
    <glyph glyph-name="aacute" unicode="&#xe1;" 
d="M657 1178h-79l227 270h82zM604 -18q-140 0 -256.5 69t-183 187t-66.5 258q0 104 39 198.5t106.5 163.5t163 109.5t203.5 40.5q140 0 258 -67.5t186 -185.5t68 -259v-496h-69v272q-58 -131 -178 -210.5t-271 -79.5zM610 51q183 0 312 131t129 314q0 119 -59 221
t-160.5 161.5t-221.5 59.5q-182 0 -310 -130t-128 -312q0 -184 128 -314.5t310 -130.5z" />
    <glyph glyph-name="acircumflex" unicode="&#xe2;" 
d="M330 1178l135 186q63 88 158.5 88t158.5 -88l133 -186h-75l-121 165q-40 53 -96 52.5t-95 -52.5l-125 -165h-73zM604 -18q-140 0 -256.5 69t-183 187t-66.5 258q0 104 39 198.5t106.5 163.5t163 109.5t203.5 40.5q140 0 258 -67.5t186 -185.5t68 -259v-496h-69v272
q-58 -131 -178 -210.5t-271 -79.5zM610 51q183 0 312 131t129 314q0 119 -59 221t-160.5 161.5t-221.5 59.5q-182 0 -310 -130t-128 -312q0 -184 128 -314.5t310 -130.5z" />
    <glyph glyph-name="atilde" unicode="&#xe3;" 
d="M367 1243l-58 14q5 66 47.5 113t106.5 47q52 0 106.5 -26.5t107 -53t99.5 -26.5t72.5 32t28.5 82l57 -12q-3 -70 -44 -117t-106 -47q-43 0 -87.5 17t-76 37.5t-72.5 37.5t-77 17q-44 0 -70.5 -33t-33.5 -82zM604 -18q-140 0 -256.5 69t-183 187t-66.5 258q0 104 39 198.5
t106.5 163.5t163 109.5t203.5 40.5q140 0 258 -67.5t186 -185.5t68 -259v-496h-69v272q-58 -131 -178 -210.5t-271 -79.5zM610 51q183 0 312 131t129 314q0 119 -59 221t-160.5 161.5t-221.5 59.5q-182 0 -310 -130t-128 -312q0 -184 128 -314.5t310 -130.5z" />
    <glyph glyph-name="adieresis" unicode="&#xe4;" 
d="M432 1264q-25 0 -40 16t-15 41q0 26 15 41.5t40 15.5q24 0 39.5 -15.5t15.5 -41.5q0 -25 -16 -41t-39 -16zM813 1264q-24 0 -40.5 16.5t-16.5 40.5q0 26 16.5 41.5t40.5 15.5q25 0 40 -15.5t15 -41.5q0 -25 -15 -41t-40 -16zM604 -18q-140 0 -256.5 69t-183 187
t-66.5 258q0 104 39 198.5t106.5 163.5t163 109.5t203.5 40.5q140 0 258 -67.5t186 -185.5t68 -259v-496h-69v272q-58 -131 -178 -210.5t-271 -79.5zM610 51q183 0 312 131t129 314q0 119 -59 221t-160.5 161.5t-221.5 59.5q-182 0 -310 -130t-128 -312q0 -184 128 -314.5
t310 -130.5z" />
    <glyph glyph-name="aring" unicode="&#xe5;" 
d="M623 1149q-67 0 -115.5 48t-48.5 114q0 67 48.5 115.5t115.5 48.5q66 0 113.5 -48.5t47.5 -115.5q0 -66 -47.5 -114t-113.5 -48zM623 1202q44 0 76 32.5t32 76.5t-32 77t-76 33q-45 0 -78 -32.5t-33 -77.5q0 -44 32.5 -76.5t78.5 -32.5zM604 -18q-140 0 -256.5 69
t-183 187t-66.5 258q0 104 39 198.5t106.5 163.5t163 109.5t203.5 40.5q140 0 258 -67.5t186 -185.5t68 -259v-496h-69v272q-58 -131 -178 -210.5t-271 -79.5zM610 51q183 0 312 131t129 314q0 119 -59 221t-160.5 161.5t-221.5 59.5q-182 0 -310 -130t-128 -312
q0 -184 128 -314.5t310 -130.5z" />
    <glyph glyph-name="ae" unicode="&#xe6;" horiz-adv-x="2119" 
d="M604 -20q-140 0 -256.5 69.5t-183 188t-66.5 258.5q0 104 39 198.5t106.5 163.5t163 109.5t203.5 40.5q167 0 297.5 -94.5t182.5 -247.5q47 154 167.5 248t284.5 94q208 0 337.5 -134.5t129.5 -347.5v-53h-870q6 -179 126.5 -300.5t299.5 -121.5q113 0 205.5 48.5
t150.5 148.5l57 -35q-67 -115 -174.5 -173t-238.5 -58q-149 0 -267.5 75t-179.5 201v-258h-65l-2 270q-58 -132 -177 -211t-270 -79zM610 49q182 0 311.5 131.5t129.5 315.5q0 119 -59 221t-160.5 161.5t-221.5 59.5q-182 0 -310 -130t-128 -312q0 -184 128 -315.5
t310 -131.5zM1141 535h796q-1 180 -111.5 291.5t-283.5 111.5q-171 0 -280.5 -115t-120.5 -288z" />
    <glyph glyph-name="ccedilla" unicode="&#xe7;" horiz-adv-x="1085" 
d="M592 -18h-19l-24 -70q87 -6 136.5 -50t49.5 -116q0 -83 -65.5 -143t-173.5 -82l-25 53q97 21 148 67t51 107q0 115 -174 115h-35l4 8h-2l41 119q-171 33 -288.5 175.5t-117.5 328.5q0 139 68 258t182 187.5t244 68.5q131 0 239.5 -59t174.5 -175l-62 -37
q-116 201 -352 201q-169 0 -294.5 -131.5t-125.5 -312.5q0 -89 34 -171t91 -141.5t134.5 -95t160.5 -35.5q237 0 352 199l62 -37q-66 -115 -174 -173t-240 -58z" />
    <glyph glyph-name="egrave" unicode="&#xe8;" horiz-adv-x="1153" 
d="M393 1448l228 -270h-80l-230 270h82zM598 -18q-140 0 -255 68t-180 185t-65 259t59.5 259t169.5 186t248 69q208 0 337.5 -134.5t129.5 -347.5v-53h-870q6 -179 126.5 -300.5t299.5 -121.5q113 0 205.5 48.5t150.5 148.5l58 -35q-67 -115 -174.5 -173t-239.5 -58z
M174 535h797q0 180 -111.5 291.5t-284.5 111.5q-169 0 -279 -115t-122 -288z" />
    <glyph glyph-name="eacute" unicode="&#xe9;" horiz-adv-x="1153" 
d="M612 1178h-80l228 270h82zM598 -18q-140 0 -255 68t-180 185t-65 259t59.5 259t169.5 186t248 69q208 0 337.5 -134.5t129.5 -347.5v-53h-870q6 -179 126.5 -300.5t299.5 -121.5q113 0 205.5 48.5t150.5 148.5l58 -35q-67 -115 -174.5 -173t-239.5 -58zM174 535h797
q0 180 -111.5 291.5t-284.5 111.5q-169 0 -279 -115t-122 -288z" />
    <glyph glyph-name="ecircumflex" unicode="&#xea;" horiz-adv-x="1153" 
d="M283 1178l135 186q64 88 160 88t159 -88l133 -186h-75l-123 165q-39 53 -95.5 52.5t-95.5 -52.5l-123 -165h-75zM598 -18q-140 0 -255 68t-180 185t-65 259t59.5 259t169.5 186t248 69q208 0 337.5 -134.5t129.5 -347.5v-53h-870q6 -179 126.5 -300.5t299.5 -121.5
q113 0 205.5 48.5t150.5 148.5l58 -35q-67 -115 -174.5 -173t-239.5 -58zM174 535h797q0 180 -111.5 291.5t-284.5 111.5q-169 0 -279 -115t-122 -288z" />
    <glyph glyph-name="edieresis" unicode="&#xeb;" horiz-adv-x="1153" 
d="M387 1264q-25 0 -41 16t-16 41q0 26 16 41.5t41 15.5q24 0 39.5 -15.5t15.5 -41.5q0 -25 -16 -41t-39 -16zM768 1264q-24 0 -40.5 16.5t-16.5 40.5q0 26 16.5 41.5t40.5 15.5q25 0 40 -15.5t15 -41.5q0 -25 -15 -41t-40 -16zM598 -18q-140 0 -255 68t-180 185t-65 259
t59.5 259t169.5 186t248 69q208 0 337.5 -134.5t129.5 -347.5v-53h-870q6 -179 126.5 -300.5t299.5 -121.5q113 0 205.5 48.5t150.5 148.5l58 -35q-67 -115 -174.5 -173t-239.5 -58zM174 535h797q0 180 -111.5 291.5t-284.5 111.5q-169 0 -279 -115t-122 -288z" />
    <glyph glyph-name="igrave" unicode="&#xec;" horiz-adv-x="507" 
d="M70 1448l229 -270h-80l-229 270h80zM217 987h72v-987h-72v987z" />
    <glyph glyph-name="iacute" unicode="&#xed;" horiz-adv-x="507" 
d="M289 1178h-80l229 270h80zM217 987h72v-987h-72v987z" />
    <glyph glyph-name="icircumflex" unicode="&#xee;" horiz-adv-x="507" 
d="M-39 1178l135 186q65 88 160 88t158 -88l135 -186h-76l-123 165q-40 53 -95.5 52.5t-94.5 -52.5l-123 -165h-76zM217 987h72v-987h-72v987z" />
    <glyph glyph-name="idieresis" unicode="&#xef;" horiz-adv-x="507" 
d="M66 1264q-26 0 -42 16t-16 41q0 26 16 41.5t42 15.5q24 0 38.5 -15.5t14.5 -41.5q0 -25 -15 -41t-38 -16zM446 1264q-25 0 -41 16t-16 41q0 26 16 41.5t41 15.5q24 0 39 -15.5t15 -41.5q0 -25 -15.5 -41t-38.5 -16zM217 987h72v-987h-72v987z" />
    <glyph glyph-name="eth" unicode="&#xf0;" horiz-adv-x="1153" 
d="M559 -20q-191 0 -326 134t-135 328q0 193 134 326t325 133q128 0 228.5 -54.5t156.5 -166.5q-69 261 -258 438l-328 -143l-28 61l301 131q-111 89 -264 158l45 59q164 -75 290 -186l279 121l31 -59l-256 -111q141 -140 210.5 -307t69.5 -338q0 -124 -39.5 -225.5
t-106 -165.5t-151.5 -98.5t-178 -34.5zM563 49q159 0 274 112.5t115 272.5q0 107 -47 197.5t-137.5 146.5t-206.5 56q-160 0 -274.5 -114t-114.5 -278q0 -165 115 -279t276 -114z" />
    <glyph glyph-name="ntilde" unicode="&#xf1;" horiz-adv-x="1275" 
d="M381 1243l-55 14q5 66 46 113t105 47q52 0 107 -26.5t107.5 -53t99.5 -26.5t72 32t28 82l57 -12q-3 -70 -43.5 -117t-105.5 -47q-43 0 -87.5 17t-76.5 37.5t-72.5 37.5t-75.5 17q-44 0 -71.5 -33.5t-34.5 -81.5zM633 938q-119 0 -208 -60.5t-133 -157t-44 -212.5v-508
h-72v510q0 217 124.5 357.5t332.5 140.5q213 0 340 -139.5t127 -356.5v-512h-72v506q0 117 -45 214t-136.5 157.5t-213.5 60.5z" />
    <glyph glyph-name="ograve" unicode="&#xf2;" horiz-adv-x="1220" 
d="M428 1448l229 -270h-82l-227 270h80zM612 -18q-142 0 -260.5 69t-186 187t-67.5 258q0 139 68.5 257t187 186.5t258.5 68.5q143 0 260.5 -69t183.5 -186.5t66 -256.5q0 -140 -67 -258t-184.5 -187t-258.5 -69zM612 51q181 0 310 131t129 314q0 182 -129 312t-310 130
q-184 0 -312 -130t-128 -312q0 -120 58 -222.5t159.5 -162.5t222.5 -60z" />
    <glyph glyph-name="oacute" unicode="&#xf3;" horiz-adv-x="1220" 
d="M647 1178h-80l228 270h82zM612 -18q-142 0 -260.5 69t-186 187t-67.5 258q0 139 68.5 257t187 186.5t258.5 68.5q143 0 260.5 -69t183.5 -186.5t66 -256.5q0 -140 -67 -258t-184.5 -187t-258.5 -69zM612 51q181 0 310 131t129 314q0 182 -129 312t-310 130
q-184 0 -312 -130t-128 -312q0 -120 58 -222.5t159.5 -162.5t222.5 -60z" />
    <glyph glyph-name="ocircumflex" unicode="&#xf4;" horiz-adv-x="1220" 
d="M319 1178l136 186q63 88 158.5 88t158.5 -88l133 -186h-76l-120 165q-40 53 -96 52.5t-95 -52.5l-125 -165h-74zM612 -18q-142 0 -260.5 69t-186 187t-67.5 258q0 139 68.5 257t187 186.5t258.5 68.5q143 0 260.5 -69t183.5 -186.5t66 -256.5q0 -140 -67 -258
t-184.5 -187t-258.5 -69zM612 51q181 0 310 131t129 314q0 182 -129 312t-310 130q-184 0 -312 -130t-128 -312q0 -120 58 -222.5t159.5 -162.5t222.5 -60z" />
    <glyph glyph-name="otilde" unicode="&#xf5;" horiz-adv-x="1220" 
d="M356 1243l-57 14q5 66 47.5 113t106.5 47q52 0 106.5 -26.5t107 -53t99.5 -26.5t72 32t28 82l58 -12q-3 -70 -44 -117t-106 -47q-43 0 -87.5 17t-76 37.5t-72.5 37.5t-77 17q-44 0 -71 -33t-34 -82zM612 -18q-142 0 -260.5 69t-186 187t-67.5 258q0 139 68.5 257
t187 186.5t258.5 68.5q143 0 260.5 -69t183.5 -186.5t66 -256.5q0 -140 -67 -258t-184.5 -187t-258.5 -69zM612 51q181 0 310 131t129 314q0 182 -129 312t-310 130q-184 0 -312 -130t-128 -312q0 -120 58 -222.5t159.5 -162.5t222.5 -60z" />
    <glyph glyph-name="odieresis" unicode="&#xf6;" horiz-adv-x="1220" 
d="M422 1264q-25 0 -40 16t-15 41q0 26 15 41.5t40 15.5q24 0 39.5 -15.5t15.5 -41.5q0 -25 -16 -41t-39 -16zM803 1264q-24 0 -41 16.5t-17 40.5q0 25 17 41t41 16q25 0 40 -15.5t15 -41.5q0 -25 -15 -41t-40 -16zM612 -18q-142 0 -260.5 69t-186 187t-67.5 258
q0 139 68.5 257t187 186.5t258.5 68.5q143 0 260.5 -69t183.5 -186.5t66 -256.5q0 -140 -67 -258t-184.5 -187t-258.5 -69zM612 51q181 0 310 131t129 314q0 182 -129 312t-310 130q-184 0 -312 -130t-128 -312q0 -120 58 -222.5t159.5 -162.5t222.5 -60z" />
    <glyph glyph-name="divide" unicode="&#xf7;" horiz-adv-x="1280" 
d="M641 989q-26 0 -43.5 18t-17.5 46q0 26 17.5 42.5t43.5 16.5q25 0 42 -16.5t17 -42.5q0 -28 -17 -46t-42 -18zM1100 717v-72h-920v72h920zM641 250q-27 0 -44 17t-17 44q0 26 17.5 43t43.5 17q25 0 42 -17t17 -43q0 -27 -17 -44t-42 -17z" />
    <glyph glyph-name="oslash" unicode="&#xf8;" horiz-adv-x="1220" 
d="M612 -18q-192 0 -336 122l-98 -104h-78l138 143q-67 70 -103.5 161.5t-36.5 191.5q0 139 68.5 257t187 186.5t258.5 68.5q192 0 332 -121l98 100h78l-133 -141q135 -148 135 -350q0 -140 -67 -258t-184.5 -187t-258.5 -69zM172 496q0 -174 115 -299l606 637
q-120 104 -281 104q-184 0 -312 -130t-128 -312zM612 51q181 0 310 131t129 314q0 172 -115 297l-608 -637q124 -105 284 -105z" />
    <glyph glyph-name="ugrave" unicode="&#xf9;" horiz-adv-x="1228" 
d="M432 1448l227 -270h-79l-230 270h82zM610 51q116 0 204.5 60t133.5 157.5t45 214.5v504h72v-510q0 -215 -125.5 -355t-329.5 -140q-201 0 -323.5 140.5t-122.5 356.5v508h72v-506q0 -116 43 -213t129.5 -157t201.5 -60z" />
    <glyph glyph-name="uacute" unicode="&#xfa;" horiz-adv-x="1228" 
d="M651 1178h-82l230 270h82zM610 51q116 0 204.5 60t133.5 157.5t45 214.5v504h72v-510q0 -215 -125.5 -355t-329.5 -140q-201 0 -323.5 140.5t-122.5 356.5v508h72v-506q0 -116 43 -213t129.5 -157t201.5 -60z" />
    <glyph glyph-name="ucircumflex" unicode="&#xfb;" horiz-adv-x="1228" 
d="M322 1178l135 186q65 88 160 88t157 -88l135 -186h-75l-123 165q-39 53 -95.5 52.5t-95.5 -52.5l-123 -165h-75zM610 51q116 0 204.5 60t133.5 157.5t45 214.5v504h72v-510q0 -215 -125.5 -355t-329.5 -140q-201 0 -323.5 140.5t-122.5 356.5v508h72v-506q0 -116 43 -213
t129.5 -157t201.5 -60z" />
    <glyph glyph-name="udieresis" unicode="&#xfc;" horiz-adv-x="1228" 
d="M426 1264q-25 0 -41 16t-16 41q0 26 16 41.5t41 15.5q24 0 39.5 -15.5t15.5 -41.5q0 -25 -16 -41t-39 -16zM807 1264q-24 0 -40.5 16.5t-16.5 40.5q0 26 16.5 41.5t40.5 15.5q25 0 39 -15.5t14 -41.5q0 -25 -14.5 -41t-38.5 -16zM610 51q116 0 204.5 60t133.5 157.5
t45 214.5v504h72v-510q0 -215 -125.5 -355t-329.5 -140q-201 0 -323.5 140.5t-122.5 356.5v508h72v-506q0 -116 43 -213t129.5 -157t201.5 -60z" />
    <glyph glyph-name="yacute" unicode="&#xfd;" horiz-adv-x="1253" 
d="M664 1178h-80l227 270h82zM590 -473q-135 0 -252.5 58t-181.5 173l63 35q56 -98 155.5 -147t215.5 -49q98 0 174.5 37t124.5 101t72.5 148.5t23.5 182.5l-2 180q-47 -123 -145.5 -193.5t-239.5 -70.5q-204 0 -318 129t-114 344v532h74v-518q0 -191 94 -304.5t268 -113.5
q118 0 206 61t131.5 160.5t43.5 223.5v491h74v-921q0 -158 -50 -277.5t-157 -190.5t-260 -71z" />
    <glyph glyph-name="thorn" unicode="&#xfe;" 
d="M248 -453h-72v1893h74v-709q61 124 180 200.5t264 76.5q108 0 202.5 -40.5t161 -109.5t104.5 -163.5t38 -198.5q0 -140 -67 -259t-183.5 -188t-255.5 -69q-147 0 -265 75.5t-179 200.5zM690 49q182 0 310 131.5t128 315.5q0 182 -128 312t-310 130q-184 0 -312 -130
t-128 -312q0 -184 128.5 -315.5t311.5 -131.5z" />
    <glyph glyph-name="ydieresis" unicode="&#xff;" horiz-adv-x="1253" 
d="M438 1264q-25 0 -41 16t-16 41q0 26 16 41.5t41 15.5q24 0 40 -15.5t16 -41.5q0 -25 -16 -41t-40 -16zM819 1264q-24 0 -40.5 16.5t-16.5 40.5q0 26 16.5 41.5t40.5 15.5q25 0 40 -15.5t15 -41.5q0 -25 -15 -41t-40 -16zM590 -473q-135 0 -252.5 58t-181.5 173l63 35
q56 -98 155.5 -147t215.5 -49q98 0 174.5 37t124.5 101t72.5 148.5t23.5 182.5l-2 180q-47 -123 -145.5 -193.5t-239.5 -70.5q-204 0 -318 129t-114 344v532h74v-518q0 -191 94 -304.5t268 -113.5q118 0 206 61t131.5 160.5t43.5 223.5v491h74v-921q0 -158 -50 -277.5
t-157 -190.5t-260 -71z" />
    <glyph glyph-name="Amacron" unicode="&#x100;" horiz-adv-x="1349" 
d="M981 1747v-61h-612v61h612zM92 0l391 1237q46 145 193 145q144 0 190 -145l391 -1237h-73l-131 418l-754 -2l-131 -416h-76zM549 1217l-230 -732h711l-229 732q-30 98 -125 98q-97 0 -127 -98z" />
    <glyph glyph-name="amacron" unicode="&#x101;" 
d="M928 1368v-61h-613v61h613zM604 -18q-140 0 -256.5 69t-183 187t-66.5 258q0 104 39 198.5t106.5 163.5t163 109.5t203.5 40.5q140 0 258 -67.5t186 -185.5t68 -259v-496h-69v272q-58 -131 -178 -210.5t-271 -79.5zM610 51q183 0 312 131t129 314q0 119 -59 221
t-160.5 161.5t-221.5 59.5q-182 0 -310 -130t-128 -312q0 -184 128 -314.5t310 -130.5z" />
    <glyph glyph-name="Abreve" unicode="&#x102;" horiz-adv-x="1349" 
d="M676 1550q-115 0 -180.5 63t-65.5 154v58h66v-56q0 -66 46 -112.5t134 -46.5t134 46.5t46 112.5v56h66v-58q0 -91 -65.5 -154t-180.5 -63zM92 0l391 1237q46 145 193 145q144 0 190 -145l391 -1237h-73l-131 418l-754 -2l-131 -416h-76zM549 1217l-230 -732h711l-229 732
q-30 98 -125 98q-97 0 -127 -98z" />
    <glyph glyph-name="abreve" unicode="&#x103;" 
d="M623 1174q-115 0 -180.5 62t-65.5 153v59h65v-55q0 -67 46.5 -113.5t134.5 -46.5t134 46.5t46 113.5v55h65v-59q0 -91 -65 -153t-180 -62zM604 -18q-140 0 -256.5 69t-183 187t-66.5 258q0 104 39 198.5t106.5 163.5t163 109.5t203.5 40.5q140 0 258 -67.5t186 -185.5
t68 -259v-496h-69v272q-58 -131 -178 -210.5t-271 -79.5zM610 51q183 0 312 131t129 314q0 119 -59 221t-160.5 161.5t-221.5 59.5q-182 0 -310 -130t-128 -312q0 -184 128 -314.5t310 -130.5z" />
    <glyph glyph-name="Aogonek" unicode="&#x104;" horiz-adv-x="1349" 
d="M92 0l391 1237q46 145 193 145q144 0 190 -145l391 -1237h-8q-127 -111 -127 -227q0 -76 58 -127.5t155 -57.5l-24 -57q-110 8 -183 72.5t-73 158.5q0 132 127 238h2l-131 418l-754 -2l-131 -416h-76zM549 1217l-230 -732h711l-229 732q-30 98 -125 98q-97 0 -127 -98z
" />
    <glyph glyph-name="aogonek" unicode="&#x105;" 
d="M604 -18q-140 0 -256.5 69t-183 187t-66.5 258q0 104 39 198.5t106.5 163.5t163 109.5t203.5 40.5q140 0 258 -67.5t186 -185.5t68 -259v-496q-125 -109 -125 -227q0 -76 57 -127.5t154 -57.5l-24 -57q-110 8 -183 72.5t-73 158.5q0 130 129 238h-4v272
q-58 -131 -178 -210.5t-271 -79.5zM610 51q183 0 312 131t129 314q0 119 -59 221t-160.5 161.5t-221.5 59.5q-182 0 -310 -130t-128 -312q0 -184 128 -314.5t310 -130.5z" />
    <glyph glyph-name="Cacute" unicode="&#x106;" horiz-adv-x="1378" 
d="M809 1554h-82l229 271h80zM772 -20q-135 0 -259 55.5t-215 149.5t-145.5 224.5t-54.5 274.5q0 191 92 352.5t247 254.5t335 93q167 0 307 -77.5t224 -212.5l-62 -39q-73 120 -200.5 189t-270.5 69q-159 0 -295.5 -83.5t-217.5 -228.5t-81 -317q0 -129 47.5 -246.5
t127.5 -201.5t189.5 -133.5t229.5 -49.5q143 0 271 68t200 188l62 -39q-84 -136 -223.5 -213t-307.5 -77z" />
    <glyph glyph-name="cacute" unicode="&#x107;" horiz-adv-x="1085" 
d="M578 1178h-80l227 270h82zM592 -18q-130 -1 -244 67t-182 187t-68 258t68 258t182 187.5t244 68.5q131 0 239.5 -59t174.5 -175l-62 -37q-116 201 -352 201q-169 0 -294.5 -131.5t-125.5 -312.5q0 -89 34 -171t91 -141.5t134.5 -95t160.5 -35.5q237 0 352 199l62 -37
q-66 -115 -174 -173t-240 -58z" />
    <glyph glyph-name="Cdotaccent" unicode="&#x10a;" horiz-adv-x="1378" 
d="M772 1634q-26 0 -43.5 18.5t-17.5 47.5q0 28 17.5 45.5t43.5 17.5q28 0 45 -17.5t17 -45.5q0 -29 -17 -47.5t-45 -18.5zM772 -20q-135 0 -259 55.5t-215 149.5t-145.5 224.5t-54.5 274.5q0 191 92 352.5t247 254.5t335 93q167 0 307 -77.5t224 -212.5l-62 -39
q-73 120 -200.5 189t-270.5 69q-159 0 -295.5 -83.5t-217.5 -228.5t-81 -317q0 -129 47.5 -246.5t127.5 -201.5t189.5 -133.5t229.5 -49.5q143 0 271 68t200 188l62 -39q-84 -136 -223.5 -213t-307.5 -77z" />
    <glyph glyph-name="cdotaccent" unicode="&#x10b;" horiz-adv-x="1085" 
d="M543 1257q-26 0 -44 18t-18 46q0 29 17.5 47t44.5 18q28 0 44.5 -18t16.5 -47q0 -28 -17 -46t-44 -18zM592 -18q-130 -1 -244 67t-182 187t-68 258t68 258t182 187.5t244 68.5q131 0 239.5 -59t174.5 -175l-62 -37q-116 201 -352 201q-169 0 -294.5 -131.5t-125.5 -312.5
q0 -89 34 -171t91 -141.5t134.5 -95t160.5 -35.5q237 0 352 199l62 -37q-66 -115 -174 -173t-240 -58z" />
    <glyph glyph-name="Ccaron" unicode="&#x10c;" horiz-adv-x="1378" 
d="M614 1638l-135 187h76l123 -168q39 -50 95 -51t95 51l123 168h76l-135 -187q-63 -88 -158.5 -88t-159.5 88zM772 -20q-135 0 -259 55.5t-215 149.5t-145.5 224.5t-54.5 274.5q0 191 92 352.5t247 254.5t335 93q167 0 307 -77.5t224 -212.5l-62 -39q-73 120 -200.5 189
t-270.5 69q-159 0 -295.5 -83.5t-217.5 -228.5t-81 -317q0 -129 47.5 -246.5t127.5 -201.5t189.5 -133.5t229.5 -49.5q143 0 271 68t200 188l62 -39q-84 -136 -223.5 -213t-307.5 -77z" />
    <glyph glyph-name="ccaron" unicode="&#x10d;" horiz-adv-x="1085" 
d="M385 1262l-135 186h76l123 -168q39 -52 94.5 -52.5t95.5 52.5l121 168h76l-134 -186q-63 -88 -158 -88t-159 88zM592 -18q-130 -1 -244 67t-182 187t-68 258t68 258t182 187.5t244 68.5q131 0 239.5 -59t174.5 -175l-62 -37q-116 201 -352 201q-169 0 -294.5 -131.5
t-125.5 -312.5q0 -89 34 -171t91 -141.5t134.5 -95t160.5 -35.5q237 0 352 199l62 -37q-66 -115 -174 -173t-240 -58z" />
    <glyph glyph-name="Dcaron" unicode="&#x10e;" horiz-adv-x="1501" 
d="M504 1638l-135 187h75l123 -168q39 -50 95.5 -51t95.5 51l123 168h75l-135 -187q-63 -88 -157.5 -88t-159.5 88zM1380 696q0 -160 -57.5 -292.5t-158 -220t-234.5 -135.5t-287 -48h-405v1364h424q321 0 519.5 -184.5t198.5 -483.5zM1305 696q0 176 -82.5 313t-228.5 211
t-332 74h-349v-1222h330q134 0 253.5 42.5t210.5 120.5t144.5 197.5t53.5 263.5z" />
    <glyph glyph-name="dcaron" unicode="&#x10f;" horiz-adv-x="1341" 
d="M610 -20q-108 0 -203.5 40.5t-163 109.5t-106.5 163.5t-39 198.5q0 141 67 259.5t184.5 187.5t258.5 69q143 0 261.5 -75t179.5 -198l2 705h71v-948q0 -140 -68 -258t-186 -186t-258 -68zM1282 1440v-303h-59v303h59zM610 49q182 0 311.5 130.5t129.5 312.5
q0 120 -59 223t-160.5 163t-221.5 60q-182 0 -310 -131t-128 -315q0 -182 128 -312.5t310 -130.5z" />
    <glyph glyph-name="Dcroat" unicode="&#x110;" horiz-adv-x="1501" 
d="M238 664h-201v67h201v633h424q321 0 519.5 -184.5t198.5 -483.5q0 -160 -57.5 -292.5t-158 -220t-234.5 -135.5t-287 -48h-405v664zM313 664v-592h330q134 0 253.5 42.5t210.5 120.5t144.5 197.5t53.5 263.5q0 176 -82.5 313t-228.5 211t-332 74h-349v-563h426v-67h-426z
" />
    <glyph glyph-name="dcroat" unicode="&#x111;" horiz-adv-x="1343" 
d="M610 -20q-108 0 -203.5 40.5t-163 109.5t-106.5 163.5t-39 198.5q0 141 67 259.5t184.5 187.5t258.5 69q143 0 261.5 -75t179.5 -198l2 428h-471v66h471v211h71v-211h207v-66h-207v-671q0 -140 -68 -258t-186 -186t-258 -68zM610 49q182 0 311.5 130.5t129.5 312.5
q0 120 -59 223t-160.5 163t-221.5 60q-182 0 -310 -131t-128 -315q0 -182 128 -312.5t310 -130.5z" />
    <glyph glyph-name="Emacron" unicode="&#x112;" horiz-adv-x="1234" 
d="M979 1747v-61h-612v61h612zM1114 0h-809q-49 0 -68.5 22t-19.5 64v1192q0 42 19.5 64t68.5 22h789v-70h-801v-577h766v-70l-766 -2v-573h821v-72z" />
    <glyph glyph-name="emacron" unicode="&#x113;" horiz-adv-x="1153" 
d="M883 1368v-61h-613v61h613zM598 -18q-140 0 -255 68t-180 185t-65 259t59.5 259t169.5 186t248 69q208 0 337.5 -134.5t129.5 -347.5v-53h-870q6 -179 126.5 -300.5t299.5 -121.5q113 0 205.5 48.5t150.5 148.5l58 -35q-67 -115 -174.5 -173t-239.5 -58zM174 535h797
q0 180 -111.5 291.5t-284.5 111.5q-169 0 -279 -115t-122 -288z" />
    <glyph glyph-name="Edotaccent" unicode="&#x116;" horiz-adv-x="1234" 
d="M674 1634q-27 0 -45.5 18.5t-18.5 47.5q0 27 18.5 45t45.5 18t43 -17.5t16 -45.5q0 -30 -16 -48t-43 -18zM1114 0h-809q-49 0 -68.5 22t-19.5 64v1192q0 42 19.5 64t68.5 22h789v-70h-801v-577h766v-70l-766 -2v-573h821v-72z" />
    <glyph glyph-name="edotaccent" unicode="&#x117;" horiz-adv-x="1153" 
d="M575 1257q-25 0 -43 18.5t-18 45.5q0 29 18 47t43 18q28 0 45 -18t17 -47q0 -28 -17 -46t-45 -18zM598 -18q-140 0 -255 68t-180 185t-65 259t59.5 259t169.5 186t248 69q208 0 337.5 -134.5t129.5 -347.5v-53h-870q6 -179 126.5 -300.5t299.5 -121.5q113 0 205.5 48.5
t150.5 148.5l58 -35q-67 -115 -174.5 -173t-239.5 -58zM174 535h797q0 180 -111.5 291.5t-284.5 111.5q-169 0 -279 -115t-122 -288z" />
    <glyph glyph-name="Eogonek" unicode="&#x118;" horiz-adv-x="1234" 
d="M1059 647l-766 -2v-573h821v-72q-127 -111 -127 -227q0 -76 58 -127.5t155 -57.5l-24 -57q-110 8 -183 72.5t-73 158.5q0 132 127 238h-742q-49 0 -68.5 22t-19.5 64v1192q0 42 19.5 64t68.5 22h789v-70h-801v-577h766v-70z" />
    <glyph glyph-name="eogonek" unicode="&#x119;" horiz-adv-x="1153" 
d="M598 -18q-140 0 -255 68t-180 185t-65 259t59.5 259t169.5 186t248 69q208 0 337.5 -134.5t129.5 -347.5v-53h-870q6 -179 126.5 -300.5t299.5 -121.5q113 0 205.5 48.5t150.5 148.5l58 -35q-95 -163 -275 -213q-127 -111 -127 -227q0 -76 58 -127.5t155 -57.5l-24 -57
q-110 8 -183 72.5t-73 158.5q0 122 108 222q-16 -2 -53 -2zM174 535h797q0 180 -111.5 291.5t-284.5 111.5q-169 0 -279 -115t-122 -288z" />
    <glyph glyph-name="Ecaron" unicode="&#x11a;" horiz-adv-x="1234" 
d="M514 1638l-135 187h76l125 -168q37 -50 93.5 -51t96.5 51l121 168h76l-133 -187q-63 -88 -159.5 -88t-160.5 88zM1114 0h-809q-49 0 -68.5 22t-19.5 64v1192q0 42 19.5 64t68.5 22h789v-70h-801v-577h766v-70l-766 -2v-573h821v-72z" />
    <glyph glyph-name="ecaron" unicode="&#x11b;" horiz-adv-x="1153" 
d="M418 1262l-135 186h75l123 -168q39 -52 95.5 -52.5t95.5 52.5l123 168h75l-133 -186q-63 -88 -158.5 -88t-160.5 88zM598 -18q-140 0 -255 68t-180 185t-65 259t59.5 259t169.5 186t248 69q208 0 337.5 -134.5t129.5 -347.5v-53h-870q6 -179 126.5 -300.5t299.5 -121.5
q113 0 205.5 48.5t150.5 148.5l58 -35q-67 -115 -174.5 -173t-239.5 -58zM174 535h797q0 180 -111.5 291.5t-284.5 111.5q-169 0 -279 -115t-122 -288z" />
    <glyph glyph-name="Gbreve" unicode="&#x11e;" horiz-adv-x="1433" 
d="M772 1550q-115 0 -180.5 63t-65.5 154v58h66v-56q0 -65 46.5 -112t133.5 -47q88 0 135 46.5t47 112.5v56h66v-58q0 -91 -66.5 -154t-181.5 -63zM772 -20q-138 0 -263 56.5t-215 151t-143 224.5t-53 272q0 186 89 346.5t244.5 256t340.5 95.5q163 0 305.5 -74.5
t225.5 -213.5l-64 -39q-71 122 -200.5 189t-268.5 67q-161 0 -298 -85t-216.5 -229.5t-79.5 -312.5q0 -127 46.5 -243.5t126 -201.5t190 -135.5t233.5 -50.5q145 0 273 61.5t188 141.5v369h74v-398q-74 -100 -215 -173.5t-320 -73.5z" />
    <glyph glyph-name="gbreve" unicode="&#x11f;" horiz-adv-x="1327" 
d="M637 1174q-115 0 -180.5 62t-65.5 153v59h66v-55q0 -67 46 -113.5t134 -46.5t134 46.5t46 113.5v55h68v-59q0 -91 -66.5 -153t-181.5 -62zM629 -473q-145 0 -267 62t-188 178l62 36q58 -101 161.5 -153.5t229.5 -52.5q200 0 325.5 135t124.5 352l-2 182
q-57 -128 -175.5 -206t-268.5 -78q-211 0 -358.5 150.5t-147.5 363.5q0 104 39 198.5t106.5 163.5t163 109.5t203.5 40.5q140 0 258 -67.5t186 -185.5t68 -259v-420q0 -247 -145 -398t-375 -151zM637 51q182 0 310 130.5t128 314.5q0 183 -127.5 312.5t-310.5 129.5
t-310.5 -129.5t-127.5 -312.5q0 -184 128 -314.5t310 -130.5z" />
    <glyph glyph-name="Gdotaccent" unicode="&#x120;" horiz-adv-x="1433" 
d="M772 1634q-26 0 -43.5 18.5t-17.5 47.5q0 28 17.5 45.5t43.5 17.5q28 0 45 -17.5t17 -45.5q0 -29 -17 -47.5t-45 -18.5zM772 -20q-138 0 -263 56.5t-215 151t-143 224.5t-53 272q0 186 89 346.5t244.5 256t340.5 95.5q163 0 305.5 -74.5t225.5 -213.5l-64 -39
q-71 122 -200.5 189t-268.5 67q-161 0 -298 -85t-216.5 -229.5t-79.5 -312.5q0 -127 46.5 -243.5t126 -201.5t190 -135.5t233.5 -50.5q145 0 273 61.5t188 141.5v369h74v-398q-74 -100 -215 -173.5t-320 -73.5z" />
    <glyph glyph-name="gdotaccent" unicode="&#x121;" horiz-adv-x="1327" 
d="M637 1257q-26 0 -44 18t-18 46q0 29 17.5 47t44.5 18q28 0 44.5 -18t16.5 -47q0 -28 -17 -46t-44 -18zM629 -473q-145 0 -267 62t-188 178l62 36q58 -101 161.5 -153.5t229.5 -52.5q200 0 325.5 135t124.5 352l-2 182q-57 -128 -175.5 -206t-268.5 -78
q-211 0 -358.5 150.5t-147.5 363.5q0 104 39 198.5t106.5 163.5t163 109.5t203.5 40.5q140 0 258 -67.5t186 -185.5t68 -259v-420q0 -247 -145 -398t-375 -151zM637 51q182 0 310 130.5t128 314.5q0 183 -127.5 312.5t-310.5 129.5t-310.5 -129.5t-127.5 -312.5
q0 -184 128 -314.5t310 -130.5z" />
    <glyph glyph-name="Gcommaaccent" unicode="&#x122;" horiz-adv-x="1433" 
d="M772 -20q-138 0 -263 56.5t-215 151t-143 224.5t-53 272q0 186 89 346.5t244.5 256t340.5 95.5q163 0 305.5 -74.5t225.5 -213.5l-64 -39q-71 122 -200.5 189t-268.5 67q-161 0 -298 -85t-216.5 -229.5t-79.5 -312.5q0 -127 46.5 -243.5t126 -201.5t190 -135.5
t233.5 -50.5q145 0 273 61.5t188 141.5v369h74v-398q-74 -100 -215 -173.5t-320 -73.5zM760 -410h-45l30 197q-32 16 -32 55q0 25 17 41.5t42 16.5q26 0 42.5 -16.5t16.5 -41.5q0 -16 -6 -28z" />
    <glyph glyph-name="gcommaaccent" unicode="&#x123;" horiz-adv-x="1327" 
d="M647 1456h47l-30 -199q30 -17 30 -53q0 -26 -16.5 -42.5t-42.5 -16.5q-25 0 -41 16.5t-16 42.5q0 13 2 19zM629 -473q-145 0 -267 62t-188 178l62 36q58 -101 161.5 -153.5t229.5 -52.5q200 0 325.5 135t124.5 352l-2 182q-57 -128 -175.5 -206t-268.5 -78
q-211 0 -358.5 150.5t-147.5 363.5q0 104 39 198.5t106.5 163.5t163 109.5t203.5 40.5q140 0 258 -67.5t186 -185.5t68 -259v-420q0 -247 -145 -398t-375 -151zM637 51q182 0 310 130.5t128 314.5q0 183 -127.5 312.5t-310.5 129.5t-310.5 -129.5t-127.5 -312.5
q0 -184 128 -314.5t310 -130.5z" />
    <glyph glyph-name="Hbar" unicode="&#x126;" horiz-adv-x="1501" 
d="M238 997h-162v70h162v297h75v-297h875v297h74v-297h163v-70h-163v-997h-74v635h-875v-635h-75v997zM313 997v-290h875v290h-875z" />
    <glyph glyph-name="hbar" unicode="&#x127;" horiz-adv-x="1323" 
d="M295 0h-72v1163h-209v66h209v211h72v-211h455v-66h-455v-413q50 117 158.5 187.5t244.5 70.5q205 0 325 -135.5t120 -354.5v-518h-72v514q0 116 -41 210.5t-128.5 154t-207.5 59.5q-172 0 -285.5 -124t-113.5 -312v-502z" />
    <glyph glyph-name="Imacron" unicode="&#x12a;" horiz-adv-x="550" 
d="M580 1747v-61h-613v61h613zM238 1364h75v-1364h-75v1364z" />
    <glyph glyph-name="imacron" unicode="&#x12b;" horiz-adv-x="507" 
d="M561 1368v-61h-612v61h612zM217 987h72v-987h-72v987z" />
    <glyph glyph-name="Iogonek" unicode="&#x12e;" horiz-adv-x="550" 
d="M399 -412l-24 -57q-110 8 -183 72.5t-73 158.5q0 132 127 238h-8v1364h75v-1364q-127 -108 -127 -227q0 -76 58 -127.5t155 -57.5z" />
    <glyph glyph-name="iogonek" unicode="&#x12f;" horiz-adv-x="507" 
d="M254 1257q-26 0 -43.5 18t-17.5 46q0 29 17 47t44 18q28 0 44.5 -18t16.5 -47q0 -28 -17 -46t-44 -18zM375 -412l-25 -57q-110 8 -183 72.5t-73 158.5q0 130 129 238h-6v987h72v-987q-127 -111 -127 -227q0 -76 58 -127.5t155 -57.5z" />
    <glyph glyph-name="Idotaccent" unicode="&#x130;" horiz-adv-x="550" 
d="M272 1634q-25 0 -43 18.5t-18 47.5q0 27 18 45t43 18q28 0 45 -17.5t17 -45.5q0 -29 -17 -47.5t-45 -18.5zM238 1364h75v-1364h-75v1364z" />
    <glyph glyph-name="dotlessi" unicode="&#x131;" horiz-adv-x="507" 
d="M217 987h72v-987h-72v987z" />
    <glyph glyph-name="Kcommaaccent" unicode="&#x136;" horiz-adv-x="1259" 
d="M313 0h-75v1364h75v-649h236q15 78 88 157l457 492h92l-488 -524q-82 -92 -82 -164q0 -71 82 -156l504 -520h-98l-467 483q-78 78 -90 162h-234v-645zM655 -410h-47l31 197q-31 17 -31 55q0 25 17 41.5t43 16.5q25 0 41 -16.5t16 -41.5q0 -8 -4 -20h2z" />
    <glyph glyph-name="kcommaaccent" unicode="&#x137;" horiz-adv-x="1081" 
d="M289 0h-72v1442h72v-914h166q13 55 59 99l387 360h96l-436 -407q-43 -43 -43 -86q0 -44 43 -84l436 -410h-100l-385 360q-48 48 -57 101h-166v-461zM530 -410h-45l31 197q-33 17 -33 55q0 25 17.5 41.5t42.5 16.5q26 0 42.5 -16.5t16.5 -41.5q0 -16 -6 -28z" />
    <glyph glyph-name="Lacute" unicode="&#x139;" horiz-adv-x="1071" 
d="M311 1554h-82l230 271h82zM313 1364v-1294h738v-70h-725q-49 0 -68.5 22t-19.5 64v1278h75z" />
    <glyph glyph-name="lacute" unicode="&#x13a;" horiz-adv-x="507" 
d="M289 1630h-80l229 271h80zM217 1440h72v-1440h-72v1440z" />
    <glyph glyph-name="Lcommaaccent" unicode="&#x13b;" horiz-adv-x="1071" 
d="M313 1364v-1294h738v-70h-725q-49 0 -68.5 22t-19.5 64v1278h75zM627 -410h-47l30 197q-32 16 -32 55q0 25 17.5 41.5t43.5 16.5q25 0 41 -16.5t16 -41.5q0 -8 -4 -20h2z" />
    <glyph glyph-name="lcommaaccent" unicode="&#x13c;" horiz-adv-x="507" 
d="M217 1440h72v-1440h-72v1440zM244 -410h-47l30 197q-30 17 -30 55q0 25 16.5 41.5t42.5 16.5q25 0 41 -16.5t16 -41.5q0 -8 -4 -20h2z" />
    <glyph glyph-name="Lcaron" unicode="&#x13d;" horiz-adv-x="1071" 
d="M313 1364v-1294h738v-70h-725q-49 0 -68.5 22t-19.5 64v1278h75zM621 1364v-303h-60v303h60z" />
    <glyph glyph-name="lcaron" unicode="&#x13e;" horiz-adv-x="507" 
d="M217 1440h72v-1440h-72v1440zM449 1440v-303h-60v303h60z" />
    <glyph glyph-name="Lslash" unicode="&#x141;" horiz-adv-x="1069" 
d="M10 541l228 139v684h75v-637l422 258v-74l-422 -258v-583h738v-70h-725q-49 0 -68.5 22t-19.5 64v522l-228 -139v72z" />
    <glyph glyph-name="lslash" unicode="&#x142;" horiz-adv-x="530" 
d="M51 678l180 102v660h72v-621l176 101v-76l-176 -101v-743h-72v705l-180 -103v76z" />
    <glyph glyph-name="Nacute" unicode="&#x143;" horiz-adv-x="1507" 
d="M831 1554h-81l229 271h80zM289 0h-70v1219q0 77 42 120t108 43q95 0 141 -100l549 -1165q31 -72 88 -72q32 0 51 25t19 71v1223h71v-1219q0 -76 -41 -119.5t-100 -43.5q-101 0 -148 100l-548 1169q-31 70 -82 70q-36 0 -58 -26t-22 -74v-1221z" />
    <glyph glyph-name="nacute" unicode="&#x144;" horiz-adv-x="1275" 
d="M672 1178h-80l229 270h80zM633 938q-119 0 -208 -60.5t-133 -157t-44 -212.5v-508h-72v510q0 217 124.5 357.5t332.5 140.5q213 0 340 -139.5t127 -356.5v-512h-72v506q0 117 -45 214t-136.5 157.5t-213.5 60.5z" />
    <glyph glyph-name="Ncommaaccent" unicode="&#x145;" horiz-adv-x="1507" 
d="M289 0h-70v1219q0 77 42 120t108 43q95 0 141 -100l549 -1165q31 -72 88 -72q32 0 51 25t19 71v1223h71v-1219q0 -76 -41 -119.5t-100 -43.5q-101 0 -148 100l-548 1169q-31 70 -82 70q-36 0 -58 -26t-22 -74v-1221zM692 -410h-45l31 197q-33 17 -33 55q0 25 18 41.5
t44 16.5q25 0 41 -16.5t16 -41.5q0 -8 -4 -20h2z" />
    <glyph glyph-name="ncommaaccent" unicode="&#x146;" horiz-adv-x="1275" 
d="M633 938q-119 0 -208 -60.5t-133 -157t-44 -212.5v-508h-72v510q0 217 124.5 357.5t332.5 140.5q213 0 340 -139.5t127 -356.5v-512h-72v506q0 117 -45 214t-136.5 157.5t-213.5 60.5zM627 -410h-47l30 197q-30 17 -30 55q0 25 16.5 41.5t42.5 16.5q25 0 41 -16.5
t16 -41.5q0 -8 -4 -20h2z" />
    <glyph glyph-name="Ncaron" unicode="&#x147;" horiz-adv-x="1507" 
d="M637 1638l-135 187h76l122 -168q39 -50 95.5 -51t95.5 51l123 168h76l-136 -187q-63 -88 -158 -88t-159 88zM289 0h-70v1219q0 77 42 120t108 43q95 0 141 -100l549 -1165q31 -72 88 -72q32 0 51 25t19 71v1223h71v-1219q0 -76 -41 -119.5t-100 -43.5q-101 0 -148 100
l-548 1169q-31 70 -82 70q-36 0 -58 -26t-22 -74v-1221z" />
    <glyph glyph-name="ncaron" unicode="&#x148;" horiz-adv-x="1275" 
d="M479 1262l-135 186h76l123 -168q39 -52 95 -52.5t95 52.5l123 168h76l-135 -186q-63 -88 -158 -88t-160 88zM633 938q-119 0 -208 -60.5t-133 -157t-44 -212.5v-508h-72v510q0 217 124.5 357.5t332.5 140.5q213 0 340 -139.5t127 -356.5v-512h-72v506q0 117 -45 214
t-136.5 157.5t-213.5 60.5z" />
    <glyph glyph-name="Eng" unicode="&#x14a;" horiz-adv-x="1507" 
d="M289 0h-70v1219q0 76 42 119.5t104 43.5q100 0 149 -100l539 -1165q35 -72 90 -72q32 0 53 25t21 71v1223h71v-1493q0 -152 -82 -244t-217 -92v68q104 0 166 73t62 193v133q-33 -20 -74 -20q-47 0 -86.5 25t-63.5 75l-538 1169q-15 33 -39 51.5t-49 18.5q-34 0 -56 -26
t-22 -74v-1221z" />
    <glyph glyph-name="eng" unicode="&#x14b;" horiz-adv-x="1275" 
d="M248 0h-72v510q0 217 124.5 357.5t332.5 140.5q213 0 340 -139.5t127 -356.5v-641q0 -152 -81 -244t-218 -92l-2 70q105 0 167 73.5t62 194.5v633q0 117 -45 214t-136.5 157.5t-213.5 60.5q-119 0 -208 -60.5t-133 -157t-44 -212.5v-508z" />
    <glyph glyph-name="Omacron" unicode="&#x14c;" horiz-adv-x="1568" 
d="M1092 1747v-61h-613v61h613zM784 -18q-188 0 -345.5 92.5t-249 254t-91.5 355.5q0 143 54.5 272.5t146 222t218.5 147t267 54.5q141 0 268 -54.5t218.5 -147t145.5 -222t54 -272.5q0 -194 -92 -355.5t-249.5 -254t-344.5 -92.5zM784 55q123 0 235.5 49t194.5 133
t130.5 201t48.5 246q0 128 -48 244t-129.5 199.5t-194 132.5t-237.5 49q-165 0 -304.5 -83t-221.5 -227t-82 -315q0 -130 48 -246.5t129 -200.5t193.5 -133t237.5 -49z" />
    <glyph glyph-name="omacron" unicode="&#x14d;" horiz-adv-x="1220" 
d="M918 1368v-61h-613v61h613zM612 -18q-142 0 -260.5 69t-186 187t-67.5 258q0 139 68.5 257t187 186.5t258.5 68.5q143 0 260.5 -69t183.5 -186.5t66 -256.5q0 -140 -67 -258t-184.5 -187t-258.5 -69zM612 51q181 0 310 131t129 314q0 182 -129 312t-310 130
q-184 0 -312 -130t-128 -312q0 -120 58 -222.5t159.5 -162.5t222.5 -60z" />
    <glyph glyph-name="Ohungarumlaut" unicode="&#x150;" horiz-adv-x="1568" 
d="M604 1554h-80l230 271h80zM1006 1554h-78l229 271h78zM784 -18q-188 0 -345.5 92.5t-249 254t-91.5 355.5q0 143 54.5 272.5t146 222t218.5 147t267 54.5q141 0 268 -54.5t218.5 -147t145.5 -222t54 -272.5q0 -194 -92 -355.5t-249.5 -254t-344.5 -92.5zM784 55
q123 0 235.5 49t194.5 133t130.5 201t48.5 246q0 128 -48 244t-129.5 199.5t-194 132.5t-237.5 49q-165 0 -304.5 -83t-221.5 -227t-82 -315q0 -130 48 -246.5t129 -200.5t193.5 -133t237.5 -49z" />
    <glyph glyph-name="ohungarumlaut" unicode="&#x151;" horiz-adv-x="1220" 
d="M430 1178h-78l228 270h79zM834 1178h-80l229 270h80zM612 -18q-142 0 -260.5 69t-186 187t-67.5 258q0 139 68.5 257t187 186.5t258.5 68.5q143 0 260.5 -69t183.5 -186.5t66 -256.5q0 -140 -67 -258t-184.5 -187t-258.5 -69zM612 51q181 0 310 131t129 314
q0 182 -129 312t-310 130q-184 0 -312 -130t-128 -312q0 -120 58 -222.5t159.5 -162.5t222.5 -60z" />
    <glyph glyph-name="OE" unicode="&#x152;" horiz-adv-x="2410" 
d="M784 -18q-188 0 -345.5 92.5t-249 254t-91.5 355.5q0 143 54.5 272.5t146 222t218.5 147t267 54.5q197 0 361 -102t250 -272v272q0 43 19 64.5t67 21.5h790v-70h-803v-555q0 -14 2 -22h764v-70l-764 -2q-2 -6 -2 -16v-557h822v-72h-809q-48 0 -67 21.5t-19 64.5v274
q-87 -173 -250.5 -275.5t-360.5 -102.5zM784 55q123 0 236 49t195 133t131 201t49 246q0 128 -48.5 244t-130 199.5t-194.5 132.5t-238 49q-165 0 -304.5 -83t-221.5 -227t-82 -315q0 -130 48 -246.5t129 -200.5t193.5 -133t237.5 -49z" />
    <glyph glyph-name="oe" unicode="&#x153;" horiz-adv-x="2107" 
d="M610 -20q-141 0 -259 69.5t-185.5 188t-67.5 258.5q0 212 150 362t362 150q164 0 291 -89.5t182 -234.5q51 146 170.5 235t278.5 89q206 0 335.5 -134.5t129.5 -347.5v-53h-871q6 -179 126.5 -300.5t299.5 -121.5q113 0 206 48.5t151 148.5l57 -35q-67 -115 -174.5 -173
t-239.5 -58q-162 0 -288 90t-179 237q-57 -148 -184.5 -238.5t-290.5 -90.5zM612 49q119 0 219.5 60.5t159 163.5t58.5 223q0 182 -128 312t-309 130q-184 0 -312 -130t-128 -312q0 -184 128.5 -315.5t311.5 -131.5zM1128 535h797q0 180 -110.5 291.5t-282.5 111.5
q-171 0 -281.5 -115t-122.5 -288z" />
    <glyph glyph-name="Racute" unicode="&#x154;" 
d="M690 1554h-80l230 271h80zM311 0h-73v1364h399q208 0 339.5 -96.5t131.5 -282.5q0 -154 -94 -251t-260 -122q31 -11 59.5 -29t50.5 -36.5t47 -51t40.5 -55t40.5 -68t37.5 -70t39.5 -79.5l113 -223h-82l-105 207q-83 163 -125 222q-89 123 -215 150q-43 9 -92 9h-252v-588
zM637 1294h-324v-637h320q179 0 289 83t110 241q0 80 -31.5 141t-86.5 98t-125 55.5t-152 18.5z" />
    <glyph glyph-name="racute" unicode="&#x155;" horiz-adv-x="655" 
d="M541 1178h-80l227 270h82zM248 0h-72v623q0 168 91.5 271t244.5 103q92 0 166 -39v-75q-71 45 -162 45q-122 0 -195 -85t-73 -225v-618z" />
    <glyph glyph-name="Rcommaaccent" unicode="&#x156;" 
d="M311 0h-73v1364h399q208 0 339.5 -96.5t131.5 -282.5q0 -154 -94 -251t-260 -122q31 -11 59.5 -29t50.5 -36.5t47 -51t40.5 -55t40.5 -68t37.5 -70t39.5 -79.5l113 -223h-82l-105 207q-83 163 -125 222q-89 123 -215 150q-43 9 -92 9h-252v-588zM637 1294h-324v-637h320
q179 0 289 83t110 241q0 80 -31.5 141t-86.5 98t-125 55.5t-152 18.5zM645 -410h-47l31 197q-31 17 -31 55q0 25 16.5 41.5t42.5 16.5q25 0 41.5 -16.5t16.5 -41.5q0 -8 -4 -20h2z" />
    <glyph glyph-name="rcommaaccent" unicode="&#x157;" horiz-adv-x="655" 
d="M248 0h-72v623q0 168 91.5 271t244.5 103q92 0 166 -39v-75q-71 45 -162 45q-122 0 -195 -85t-73 -225v-618zM203 -410h-47l30 197q-30 17 -30 55q0 25 16.5 41.5t42.5 16.5q25 0 41 -16.5t16 -41.5q0 -8 -4 -20h2z" />
    <glyph glyph-name="Rcaron" unicode="&#x158;" 
d="M498 1638l-136 187h76l123 -168q39 -50 95 -51t96 51l122 168h76l-135 -187q-63 -88 -158 -88t-159 88zM311 0h-73v1364h399q208 0 339.5 -96.5t131.5 -282.5q0 -154 -94 -251t-260 -122q31 -11 59.5 -29t50.5 -36.5t47 -51t40.5 -55t40.5 -68t37.5 -70t39.5 -79.5
l113 -223h-82l-105 207q-83 163 -125 222q-89 123 -215 150q-43 9 -92 9h-252v-588zM637 1294h-324v-637h320q179 0 289 83t110 241q0 80 -31.5 141t-86.5 98t-125 55.5t-152 18.5z" />
    <glyph glyph-name="rcaron" unicode="&#x159;" horiz-adv-x="655" 
d="M348 1262l-135 186h74l125 -168q39 -52 94.5 -52.5t95.5 52.5l121 168h76l-133 -186q-63 -88 -159 -88t-159 88zM248 0h-72v623q0 168 91.5 271t244.5 103q92 0 166 -39v-75q-71 45 -162 45q-122 0 -195 -85t-73 -225v-618z" />
    <glyph glyph-name="Sacute" unicode="&#x15a;" horiz-adv-x="1179" 
d="M627 1554h-82l229 271h80zM598 -12q-158 0 -283 72t-178 200l64 33q47 -110 152 -172t245 -62q160 0 264.5 83t104.5 223q0 34 -7 63t-17.5 51.5t-30.5 42.5t-37.5 34t-47.5 28t-51.5 22.5t-59 18.5t-60 15.5t-64.5 14.5q-57 13 -90 21.5t-84.5 25t-82 33.5t-67 44.5
t-56.5 59.5t-34 77.5t-14 99.5q0 100 57 183.5t152 130t205 46.5q144 0 259.5 -69.5t168.5 -196.5l-62 -35q-50 110 -146 170t-223 60q-136 0 -235.5 -84t-99.5 -205q0 -37 7.5 -68.5t25 -56.5t35 -44t49 -35.5t55 -27.5t65 -22.5t66.5 -18t71 -16.5q46 -11 70 -17
t66.5 -18.5t67 -22.5t59.5 -27.5t55.5 -35t44 -43t36 -54t21 -65.5t8.5 -79q0 -171 -125 -274t-319 -103z" />
    <glyph glyph-name="sacute" unicode="&#x15b;" horiz-adv-x="960" 
d="M516 1178h-80l228 270h81zM487 -14q-118 0 -212.5 53.5t-147.5 157.5l61 34q89 -176 297 -176q115 0 195 56.5t80 152.5q0 61 -33 100.5t-86 59t-117 32.5t-128 29.5t-117 41.5t-86 76t-33 126q0 117 94 192.5t225 75.5q110 0 196 -45.5t136 -134.5l-61 -35
q-79 146 -269 146q-100 0 -174 -55.5t-74 -143.5q0 -52 26 -88.5t68 -55t96 -33.5t110.5 -24.5t110.5 -29t96 -45t68 -74t26 -115.5q0 -125 -101.5 -201.5t-245.5 -76.5z" />
    <glyph glyph-name="Scedilla" unicode="&#x15e;" horiz-adv-x="1179" 
d="M543 -479l-23 53q96 21 146.5 67t50.5 107q0 56 -44 85.5t-128 29.5h-37l4 8h-2l43 119q-144 9 -255.5 80t-160.5 190l64 33q47 -110 152 -172t245 -62q160 0 264.5 83t104.5 223q0 34 -7 63t-17.5 51.5t-30.5 42.5t-37.5 34t-47.5 28t-51.5 22.5t-59 18.5t-60 15.5
t-64.5 14.5q-57 13 -90 21.5t-84.5 25t-82 33.5t-67 44.5t-56.5 59.5t-34 77.5t-14 99.5q0 100 57 183.5t152 130t205 46.5q144 0 259.5 -69.5t168.5 -196.5l-62 -35q-50 110 -146 170t-223 60q-136 0 -235.5 -84t-99.5 -205q0 -37 7.5 -68.5t25 -56.5t35 -44t49 -35.5
t55 -27.5t65 -22.5t66.5 -18t71 -16.5q46 -11 70 -17t66.5 -18.5t67 -22.5t59.5 -27.5t55.5 -35t44 -43t36 -54t21 -65.5t8.5 -79q0 -165 -117 -267t-302 -110l-25 -76q86 -6 136 -49.5t50 -116.5q0 -83 -66 -143t-175 -82z" />
    <glyph glyph-name="scedilla" unicode="&#x15f;" horiz-adv-x="960" 
d="M434 -479l-24 53q96 21 146 67t50 107q0 56 -44 85.5t-128 29.5h-35l4 8h-2l41 117q-103 9 -184.5 62t-130.5 147l61 34q89 -176 297 -176q115 0 195 56.5t80 152.5q0 61 -33 100.5t-86 59t-117 32.5t-128 29.5t-117 41.5t-86 76t-33 126q0 117 94 192.5t225 75.5
q110 0 196 -45.5t136 -134.5l-61 -35q-79 146 -269 146q-100 0 -174 -55.5t-74 -143.5q0 -52 26 -88.5t68 -55t96 -33.5t110.5 -24.5t110.5 -29t96 -45t68 -74t26 -115.5q0 -119 -92.5 -194.5t-227.5 -83.5l-27 -74q87 -6 137 -50t50 -116q0 -83 -66 -143t-174 -82z" />
    <glyph glyph-name="Scaron" unicode="&#x160;" horiz-adv-x="1179" 
d="M432 1638l-135 187h76l123 -168q39 -50 95 -51t95 51l123 168h76l-135 -187q-63 -88 -158 -88t-160 88zM598 -12q-158 0 -283 72t-178 200l64 33q47 -110 152 -172t245 -62q160 0 264.5 83t104.5 223q0 34 -7 63t-17.5 51.5t-30.5 42.5t-37.5 34t-47.5 28t-51.5 22.5
t-59 18.5t-60 15.5t-64.5 14.5q-57 13 -90 21.5t-84.5 25t-82 33.5t-67 44.5t-56.5 59.5t-34 77.5t-14 99.5q0 100 57 183.5t152 130t205 46.5q144 0 259.5 -69.5t168.5 -196.5l-62 -35q-50 110 -146 170t-223 60q-136 0 -235.5 -84t-99.5 -205q0 -37 7.5 -68.5t25 -56.5
t35 -44t49 -35.5t55 -27.5t65 -22.5t66.5 -18t71 -16.5q46 -11 70 -17t66.5 -18.5t67 -22.5t59.5 -27.5t55.5 -35t44 -43t36 -54t21 -65.5t8.5 -79q0 -171 -125 -274t-319 -103z" />
    <glyph glyph-name="scaron" unicode="&#x161;" horiz-adv-x="960" 
d="M322 1262l-136 186h76l125 -168q37 -52 94 -52.5t97 52.5l120 168h76l-133 -186q-63 -88 -159 -88t-160 88zM487 -14q-118 0 -212.5 53.5t-147.5 157.5l61 34q89 -176 297 -176q115 0 195 56.5t80 152.5q0 61 -33 100.5t-86 59t-117 32.5t-128 29.5t-117 41.5t-86 76
t-33 126q0 117 94 192.5t225 75.5q110 0 196 -45.5t136 -134.5l-61 -35q-79 146 -269 146q-100 0 -174 -55.5t-74 -143.5q0 -52 26 -88.5t68 -55t96 -33.5t110.5 -24.5t110.5 -29t96 -45t68 -74t26 -115.5q0 -125 -101.5 -201.5t-245.5 -76.5z" />
    <glyph glyph-name="Tcedilla" unicode="&#x162;" horiz-adv-x="1015" 
d="M545 0l-29 -88q86 -6 136 -49.5t50 -116.5q0 -83 -65.5 -143t-173.5 -82l-25 53q96 21 146.5 67t50.5 107q0 56 -44 85.5t-128 29.5h-35l4 8h-2l45 129h-4v1292h-446v72h964v-70h-444v-1294z" />
    <glyph glyph-name="tcedilla" unicode="&#x163;" horiz-adv-x="892" 
d="M489 -479l-24 53q96 21 146.5 67t50.5 107q0 56 -44.5 85.5t-128.5 29.5h-34l4 8h-2l39 111q-118 13 -186 98.5t-68 220.5v619h-222v67h222v264h71v-264h420v-67h-420v-617q0 -119 62.5 -186.5t167.5 -67.5q109 0 190 74v-76q-72 -59 -168 -65l-22 -70q86 -6 136 -49.5
t50 -116.5q0 -83 -66 -143t-174 -82z" />
    <glyph glyph-name="Tcaron" unicode="&#x164;" horiz-adv-x="1015" 
d="M350 1638l-135 187h76l123 -168q39 -50 95 -51t95 51l123 168h76l-133 -187q-63 -88 -159 -88t-161 88zM989 1364v-70h-444v-1294h-74v1292h-446v72h964z" />
    <glyph glyph-name="tcaron" unicode="&#x165;" horiz-adv-x="892" 
d="M473 1403v-303h-59v303h59zM539 -20q-137 0 -217 86.5t-80 234.5v619h-222v67h222v264h71v-264h420v-67h-420v-617q0 -119 62.5 -186.5t167.5 -67.5q109 0 190 74v-76q-83 -67 -194 -67z" />
    <glyph glyph-name="Tbar" unicode="&#x166;" horiz-adv-x="1015" 
d="M471 1292h-446v72h964v-70h-444v-569h301v-68h-301v-657h-74v657h-303v68h303v567z" />
    <glyph glyph-name="tbar" unicode="&#x167;" horiz-adv-x="892" 
d="M539 -20q-136 0 -216.5 87.5t-80.5 235.5v252h-181v66h181v299h-222v67h222v264h71v-264h420v-67h-420v-299h377v-66h-377v-252q0 -119 62.5 -186.5t167.5 -67.5q109 0 190 74v-76q-83 -67 -194 -67z" />
    <glyph glyph-name="Umacron" unicode="&#x16a;" horiz-adv-x="1427" 
d="M1020 1747v-61h-612v61h612zM715 -14q-255 0 -385.5 156t-130.5 433v789h75v-789q0 -244 111 -381t330 -137q218 0 328 137t110 381v789h76v-789q0 -277 -130 -433t-384 -156z" />
    <glyph glyph-name="umacron" unicode="&#x16b;" horiz-adv-x="1228" 
d="M922 1368v-61h-613v61h613zM610 51q116 0 204.5 60t133.5 157.5t45 214.5v504h72v-510q0 -215 -125.5 -355t-329.5 -140q-201 0 -323.5 140.5t-122.5 356.5v508h72v-506q0 -116 43 -213t129.5 -157t201.5 -60z" />
    <glyph glyph-name="Uring" unicode="&#x16e;" horiz-adv-x="1427" 
d="M715 1526q-67 0 -115.5 48t-48.5 114q0 67 48 115t116 48q66 0 114 -48t48 -115q0 -66 -48 -114t-114 -48zM715 1579q44 0 76 32.5t32 76.5q0 46 -32 78t-76 32q-46 0 -78.5 -32t-32.5 -78q0 -44 32.5 -76.5t78.5 -32.5zM715 -14q-255 0 -385.5 156t-130.5 433v789h75
v-789q0 -244 111 -381t330 -137q218 0 328 137t110 381v789h76v-789q0 -277 -130 -433t-384 -156z" />
    <glyph glyph-name="uring" unicode="&#x16f;" horiz-adv-x="1228" 
d="M614 1149q-66 0 -113.5 48t-47.5 114q0 67 47.5 115.5t113.5 48.5q68 0 116 -48.5t48 -115.5q0 -66 -48.5 -114t-115.5 -48zM614 1202q46 0 78.5 32.5t32.5 76.5q0 45 -32.5 77.5t-78.5 32.5q-44 0 -76 -33t-32 -77t32 -76.5t76 -32.5zM610 51q116 0 204.5 60
t133.5 157.5t45 214.5v504h72v-510q0 -215 -125.5 -355t-329.5 -140q-201 0 -323.5 140.5t-122.5 356.5v508h72v-506q0 -116 43 -213t129.5 -157t201.5 -60z" />
    <glyph glyph-name="Uhungarumlaut" unicode="&#x170;" horiz-adv-x="1427" 
d="M532 1554h-77l227 271h80zM936 1554h-80l229 271h78zM715 -14q-255 0 -385.5 156t-130.5 433v789h75v-789q0 -244 111 -381t330 -137q218 0 328 137t110 381v789h76v-789q0 -277 -130 -433t-384 -156z" />
    <glyph glyph-name="uhungarumlaut" unicode="&#x171;" horiz-adv-x="1228" 
d="M434 1178h-80l230 270h80zM836 1178h-78l229 270h78zM610 51q116 0 204.5 60t133.5 157.5t45 214.5v504h72v-510q0 -215 -125.5 -355t-329.5 -140q-201 0 -323.5 140.5t-122.5 356.5v508h72v-506q0 -116 43 -213t129.5 -157t201.5 -60z" />
    <glyph glyph-name="Uogonek" unicode="&#x172;" horiz-adv-x="1427" 
d="M715 -14q-255 0 -385.5 156t-130.5 433v789h75v-789q0 -244 111 -381t330 -137q218 0 328 137t110 381v789h76v-789q0 -236 -94.5 -385t-280.5 -190q-127 -111 -127 -227q0 -76 58 -127.5t155 -57.5l-25 -57q-110 8 -183 72.5t-73 158.5q0 119 115 226q-18 -2 -59 -2z
" />
    <glyph glyph-name="uogonek" unicode="&#x173;" horiz-adv-x="1228" 
d="M610 51q116 0 204.5 60t133.5 157.5t45 214.5v504h72v-510q0 -179 -89.5 -309t-242.5 -170q-121 -109 -121 -225q0 -76 57 -127.5t154 -57.5l-24 -57q-110 8 -183 72.5t-73 158.5q0 119 110 222q-14 -2 -43 -2q-201 0 -323.5 140.5t-122.5 356.5v508h72v-506
q0 -116 43 -213t129.5 -157t201.5 -60z" />
    <glyph glyph-name="Wcircumflex" unicode="&#x174;" horiz-adv-x="1896" 
d="M666 1554l135 187q65 88 160 88t157 -88l135 -187h-75l-123 168q-39 52 -95.5 51.5t-95.5 -51.5l-123 -168h-75zM354 109l-278 1255h76l274 -1239q7 -38 26 -58t44 -20q28 0 50 21.5t32 62.5l264 1129q10 49 41.5 74.5t72.5 25.5q42 0 73.5 -25t43.5 -73l281 -1127
q10 -40 31.5 -62t48.5 -22t45 20t24 58l242 1235h74l-244 -1247q-12 -64 -48 -99.5t-89 -35.5q-54 0 -93 34.5t-57 102.5l-278 1122q-12 51 -54 51q-39 0 -51 -51l-264 -1132q-15 -62 -53.5 -95.5t-89.5 -33.5q-52 0 -91.5 33.5t-52.5 95.5z" />
    <glyph glyph-name="wcircumflex" unicode="&#x175;" horiz-adv-x="1654" 
d="M535 1178l135 186q64 88 159 88t158 -88l135 -186h-75l-123 165q-40 53 -96 52.5t-95 -52.5l-123 -165h-75zM422 -20q-54 0 -93.5 35t-54.5 100l-198 872h69l197 -858q9 -39 30.5 -60.5t49.5 -21.5q25 0 46 20t30 56l184 751q17 66 56 100t91 34q53 0 92 -34t56 -100
l182 -751q9 -36 29 -56t47 -20q28 0 49.5 21.5t30.5 60.5l194 858h70l-199 -872q-15 -66 -53.5 -100.5t-91.5 -34.5q-52 0 -89 33t-52 96l-183 753q-9 37 -32 58.5t-52 21.5q-27 0 -48.5 -21.5t-30.5 -58.5l-185 -753q-15 -63 -52.5 -96t-88.5 -33z" />
    <glyph glyph-name="Ycircumflex" unicode="&#x176;" horiz-adv-x="1126" 
d="M266 1554l135 187q65 88 161 88t159 -88l133 -187h-76l-123 168q-39 52 -95 51.5t-95 -51.5l-123 -168h-76zM596 0h-74v469q-50 9 -87.5 48.5t-69.5 111.5l-326 735h80l313 -715q26 -60 55.5 -88.5t73.5 -28.5q45 0 74 28t57 89l316 715h82l-332 -735
q-32 -72 -70.5 -111.5t-91.5 -48.5v-469z" />
    <glyph glyph-name="ycircumflex" unicode="&#x177;" horiz-adv-x="1253" 
d="M334 1178l135 186q65 88 160.5 88t158.5 -88l134 -186h-76l-121 165q-40 53 -96.5 52.5t-93.5 -52.5l-125 -165h-76zM590 -473q-135 0 -252.5 58t-181.5 173l63 35q56 -98 155.5 -147t215.5 -49q98 0 174.5 37t124.5 101t72.5 148.5t23.5 182.5l-2 180
q-47 -123 -145.5 -193.5t-239.5 -70.5q-204 0 -318 129t-114 344v532h74v-518q0 -191 94 -304.5t268 -113.5q118 0 206 61t131.5 160.5t43.5 223.5v491h74v-921q0 -158 -50 -277.5t-157 -190.5t-260 -71z" />
    <glyph glyph-name="Ydieresis" unicode="&#x178;" horiz-adv-x="1126" 
d="M371 1640q-25 0 -41.5 17t-16.5 43q0 25 16.5 41t41.5 16q23 0 39 -16t16 -41q0 -26 -16 -43t-39 -17zM752 1640q-24 0 -41 17t-17 43q0 24 17 40.5t41 16.5t38.5 -16t14.5 -41q0 -27 -14.5 -43.5t-38.5 -16.5zM596 0h-74v469q-50 9 -87.5 48.5t-69.5 111.5l-326 735h80
l313 -715q26 -60 55.5 -88.5t73.5 -28.5q45 0 74 28t57 89l316 715h82l-332 -735q-32 -72 -70.5 -111.5t-91.5 -48.5v-469z" />
    <glyph glyph-name="Zacute" unicode="&#x179;" horiz-adv-x="1169" 
d="M631 1554h-82l229 271h80zM1067 70v-70h-821q-67 0 -106.5 37.5t-39.5 93.5q0 67 45 117l809 911q29 32 29 66q0 29 -21 49t-55 20h-776v70h780q66 0 106 -37.5t40 -93.5q0 -67 -45 -117l-809 -911q-29 -32 -29 -66q0 -29 20.5 -49t55.5 -20h817z" />
    <glyph glyph-name="zacute" unicode="&#x17a;" horiz-adv-x="991" 
d="M532 1178h-81l229 270h80zM889 0h-631q-72 0 -114 40.5t-42 96.5q0 75 64 127l608 504q43 37 43 80q0 31 -23 51.5t-59 20.5h-622v67h628q68 0 108 -40t40 -95q0 -77 -68 -133l-606 -504q-41 -33 -41 -74q0 -33 24.5 -53t65.5 -20h625v-68z" />
    <glyph glyph-name="Zdotaccent" unicode="&#x17b;" horiz-adv-x="1169" 
d="M594 1634q-27 0 -44.5 18.5t-17.5 47.5q0 28 18 45.5t44 17.5q28 0 44.5 -17.5t16.5 -45.5q0 -29 -16.5 -47.5t-44.5 -18.5zM1067 70v-70h-821q-67 0 -106.5 37.5t-39.5 93.5q0 67 45 117l809 911q29 32 29 66q0 29 -21 49t-55 20h-776v70h780q66 0 106 -37.5t40 -93.5
q0 -67 -45 -117l-809 -911q-29 -32 -29 -66q0 -29 20.5 -49t55.5 -20h817z" />
    <glyph glyph-name="zdotaccent" unicode="&#x17c;" horiz-adv-x="991" 
d="M496 1257q-25 0 -43.5 18.5t-18.5 45.5q0 29 18 47t44 18q28 0 44.5 -18t16.5 -47q0 -28 -17 -46t-44 -18zM889 0h-631q-72 0 -114 40.5t-42 96.5q0 75 64 127l608 504q43 37 43 80q0 31 -23 51.5t-59 20.5h-622v67h628q68 0 108 -40t40 -95q0 -77 -68 -133l-606 -504
q-41 -33 -41 -74q0 -33 24.5 -53t65.5 -20h625v-68z" />
    <glyph glyph-name="Zcaron" unicode="&#x17d;" horiz-adv-x="1169" 
d="M436 1638l-135 187h76l123 -168q39 -50 95 -51t95 51l123 168h76l-135 -187q-63 -88 -158 -88t-160 88zM1067 70v-70h-821q-67 0 -106.5 37.5t-39.5 93.5q0 67 45 117l809 911q29 32 29 66q0 29 -21 49t-55 20h-776v70h780q66 0 106 -37.5t40 -93.5q0 -67 -45 -117
l-809 -911q-29 -32 -29 -66q0 -29 20.5 -49t55.5 -20h817z" />
    <glyph glyph-name="zcaron" unicode="&#x17e;" horiz-adv-x="991" 
d="M338 1262l-135 186h76l122 -168q39 -52 95.5 -52.5t95.5 52.5l123 168h76l-136 -186q-40 -57 -98.5 -78t-117.5 0t-101 78zM889 0h-631q-72 0 -114 40.5t-42 96.5q0 75 64 127l608 504q43 37 43 80q0 31 -23 51.5t-59 20.5h-622v67h628q68 0 108 -40t40 -95
q0 -77 -68 -133l-606 -504q-41 -33 -41 -74q0 -33 24.5 -53t65.5 -20h625v-68z" />
    <glyph glyph-name="florin" unicode="&#x192;" horiz-adv-x="958" 
d="M37 -401q-86 0 -156 45v73q60 -47 160 -47q107 0 186 73.5t99 193.5l131 757h-314v66h326l61 360q27 156 116.5 245t242.5 89q91 0 158 -45v-74q-63 47 -158 47q-119 0 -191.5 -71.5t-93.5 -194.5l-61 -356h356v-66h-369l-131 -762q-27 -152 -123 -242.5t-239 -90.5z" />
    <glyph glyph-name="Scommaaccent" unicode="&#x218;" horiz-adv-x="1179" 
d="M598 -12q-158 0 -283 72t-178 200l64 33q47 -110 152 -172t245 -62q160 0 264.5 83t104.5 223q0 34 -7 63t-17.5 51.5t-30.5 42.5t-37.5 34t-47.5 28t-51.5 22.5t-59 18.5t-60 15.5t-64.5 14.5q-57 13 -90 21.5t-84.5 25t-82 33.5t-67 44.5t-56.5 59.5t-34 77.5t-14 99.5
q0 100 57 183.5t152 130t205 46.5q144 0 259.5 -69.5t168.5 -196.5l-62 -35q-50 110 -146 170t-223 60q-136 0 -235.5 -84t-99.5 -205q0 -37 7.5 -68.5t25 -56.5t35 -44t49 -35.5t55 -27.5t65 -22.5t66.5 -18t71 -16.5q46 -11 70 -17t66.5 -18.5t67 -22.5t59.5 -27.5
t55.5 -35t44 -43t36 -54t21 -65.5t8.5 -79q0 -171 -125 -274t-319 -103zM580 -410h-45l30 197q-33 17 -33 55q0 25 17.5 41.5t42.5 16.5t42 -16.5t17 -41.5q0 -14 -6 -26z" />
    <glyph glyph-name="scommaaccent" unicode="&#x219;" horiz-adv-x="960" 
d="M487 -14q-118 0 -212.5 53.5t-147.5 157.5l61 34q89 -176 297 -176q115 0 195 56.5t80 152.5q0 61 -33 100.5t-86 59t-117 32.5t-128 29.5t-117 41.5t-86 76t-33 126q0 117 94 192.5t225 75.5q110 0 196 -45.5t136 -134.5l-61 -35q-79 146 -269 146q-100 0 -174 -55.5
t-74 -143.5q0 -52 26 -88.5t68 -55t96 -33.5t110.5 -24.5t110.5 -29t96 -45t68 -74t26 -115.5q0 -125 -101.5 -201.5t-245.5 -76.5zM469 -410h-45l31 197q-33 17 -33 55q0 25 17.5 41.5t43.5 16.5q25 0 41.5 -16.5t16.5 -41.5q0 -8 -4 -20h2z" />
    <glyph glyph-name="Tcommaaccent" unicode="&#x21a;" horiz-adv-x="1015" 
d="M989 1364v-70h-444v-1294h-74v1292h-446v72h964zM498 -410h-45l30 197q-32 16 -32 55q0 25 17 41.5t42 16.5q26 0 42.5 -16.5t16.5 -41.5q0 -16 -6 -28z" />
    <glyph glyph-name="tcommaaccent" unicode="&#x21b;" horiz-adv-x="892" 
d="M539 -20q-137 0 -217 86.5t-80 234.5v619h-222v67h222v264h71v-264h420v-67h-420v-617q0 -119 62.5 -186.5t167.5 -67.5q109 0 190 74v-76q-83 -67 -194 -67zM524 -410h-45l31 197q-33 17 -33 55q0 25 17.5 41.5t42.5 16.5q26 0 42.5 -16.5t16.5 -41.5q0 -16 -6 -28z" />
    <glyph glyph-name="dotlessj" unicode="&#x237;" horiz-adv-x="468" 
d="M221 987h72v-1116q0 -152 -81 -244t-218 -92v70q104 0 165.5 73.5t61.5 194.5v1114z" />
    <glyph glyph-name="apostrophemod" unicode="&#x2bc;" horiz-adv-x="0" 
d="M59 1440v-303h-59v303h59z" />
    <glyph glyph-name="circumflex" unicode="&#x2c6;" horiz-adv-x="1011" 
d="M213 1178l135 186q64 88 159.5 88t158.5 -88l133 -186h-76l-121 165q-40 53 -95.5 52.5t-94.5 -52.5l-123 -165h-76z" />
    <glyph glyph-name="caron" unicode="&#x2c7;" horiz-adv-x="1011" 
d="M348 1262l-135 186h76l123 -168q39 -52 94.5 -52.5t95.5 52.5l121 168h76l-133 -186q-63 -88 -158 -88t-160 88z" />
    <glyph glyph-name="breve" unicode="&#x2d8;" horiz-adv-x="915" 
d="M459 1174q-115 0 -180.5 62t-65.5 153v59h66v-55q0 -67 46 -113.5t134 -46.5q87 0 133.5 46.5t46.5 113.5v55h66v-59q0 -91 -65.5 -153t-180.5 -62z" />
    <glyph glyph-name="dotaccent" unicode="&#x2d9;" horiz-adv-x="286" 
d="M143 1257q-25 0 -43 18.5t-18 45.5q0 29 18 47t43 18q28 0 45 -18t17 -47q0 -28 -17 -46t-45 -18z" />
    <glyph glyph-name="ring" unicode="&#x2da;" horiz-adv-x="663" 
d="M332 1149q-67 0 -114.5 48t-47.5 114q0 68 47.5 116t114.5 48t114.5 -48t47.5 -116q0 -66 -47.5 -114t-114.5 -48zM332 1202q44 0 77 32.5t33 76.5t-33 77t-77 33t-77.5 -33t-33.5 -77t33.5 -76.5t77.5 -32.5z" />
    <glyph glyph-name="ogonek" unicode="&#x2db;" horiz-adv-x="1228" 
d="M705 -412l-25 -57q-110 8 -183 72.5t-73 158.5q0 130 129 238h65q-124 -108 -124 -227q0 -76 57 -127.5t154 -57.5z" />
    <glyph glyph-name="tilde" unicode="&#x2dc;" horiz-adv-x="1128" 
d="M346 1243l-55 14q5 66 46 113t105 47q52 0 107 -26.5t107.5 -53t99.5 -26.5t72 32t28 82l57 -12q-3 -70 -43.5 -117t-105.5 -47q-43 0 -87.5 17t-76 37.5t-72 37.5t-75.5 17q-45 0 -72.5 -33.5t-34.5 -81.5z" />
    <glyph glyph-name="hungarumlaut" unicode="&#x2dd;" horiz-adv-x="1236" 
d="M346 1178h-78l228 270h79zM750 1178h-80l229 270h78z" />
    <glyph glyph-name="gravecomb" unicode="&#x300;" horiz-adv-x="0" 
d="M-184 1448l229 -270h-80l-229 270h80z" />
    <glyph glyph-name="acutecomb" unicode="&#x301;" horiz-adv-x="0" 
d="M35 1178h-80l229 270h80z" />
    <glyph glyph-name="circumflexcomb" unicode="&#x302;" horiz-adv-x="0" 
d="M-293 1178l135 186q64 88 159.5 88t158.5 -88l135 -186h-76l-123 165q-39 53 -95 52.5t-95 -52.5l-123 -165h-76z" />
    <glyph glyph-name="tildecomb" unicode="&#x303;" horiz-adv-x="0" 
d="M-256 1243l-55 14q5 66 46 113t105 47q52 0 107 -26.5t107.5 -53t99.5 -26.5t72 32t28 82l57 -12q-3 -70 -43.5 -117t-105.5 -47q-43 0 -87.5 17t-76.5 37.5t-72.5 37.5t-75.5 17q-44 0 -71.5 -33.5t-34.5 -81.5z" />
    <glyph glyph-name="macroncomb" unicode="&#x304;" horiz-adv-x="0" 
d="M307 1368v-61h-612v61h612z" />
    <glyph glyph-name="brevecomb" unicode="&#x306;" horiz-adv-x="0" 
d="M0 1174q-115 0 -180.5 62t-65.5 153v59h66v-55q0 -67 46.5 -113.5t133.5 -46.5q88 0 134 46.5t46 113.5v55h68v-59q0 -91 -66.5 -153t-181.5 -62z" />
    <glyph glyph-name="dotaccentcomb" unicode="&#x307;" horiz-adv-x="0" 
d="M0 1257q-26 0 -43.5 18t-17.5 46q0 29 17 47t44 18q28 0 44.5 -18t16.5 -47q0 -28 -17 -46t-44 -18z" />
    <glyph glyph-name="dieresiscomb" unicode="&#x308;" horiz-adv-x="0" 
d="M-190 1264q-25 0 -41.5 16t-16.5 41q0 26 16.5 41.5t41.5 15.5q24 0 39.5 -15.5t15.5 -41.5q0 -25 -16 -41t-39 -16zM190 1264q-24 0 -40.5 16.5t-16.5 40.5q0 26 16.5 41.5t40.5 15.5q25 0 39.5 -15.5t14.5 -41.5q0 -25 -15 -41t-39 -16z" />
    <glyph glyph-name="ringcomb" unicode="&#x30a;" horiz-adv-x="0" 
d="M0 1149q-67 0 -114.5 48t-47.5 114q0 68 47.5 116t114.5 48t114.5 -48t47.5 -116q0 -66 -47.5 -114t-114.5 -48zM0 1202q44 0 77.5 32.5t33.5 76.5t-33.5 77t-77.5 33t-77.5 -33t-33.5 -77t33.5 -76.5t77.5 -32.5z" />
    <glyph glyph-name="hungarumlautcomb" unicode="&#x30b;" horiz-adv-x="0" 
d="M-182 1178h-78l227 270h80zM221 1178h-80l230 270h80z" />
    <glyph glyph-name="caroncomb" unicode="&#x30c;" horiz-adv-x="0" 
d="M-158 1262l-135 186h76l123 -168q39 -52 95 -52.5t95 52.5l123 168h76l-135 -186q-63 -88 -158.5 -88t-159.5 88z" />
    <glyph glyph-name="commaturnedabovecomb" unicode="&#x312;" horiz-adv-x="0" 
d="M10 1456h47l-30 -199q30 -17 30 -53q0 -26 -16.5 -42.5t-42.5 -16.5q-25 0 -41 16.5t-16 42.5q0 13 2 19z" />
    <glyph glyph-name="commaaccentcomb" unicode="&#x326;" horiz-adv-x="0" 
d="M-10 -410h-47l30 197q-30 17 -30 55q0 25 16.5 41.5t42.5 16.5q25 0 41 -16.5t16 -41.5q0 -8 -4 -20h2z" />
    <glyph glyph-name="cedillacomb" unicode="&#x327;" horiz-adv-x="0" 
d="M35 0l-29 -88q86 -6 136.5 -50t50.5 -116q0 -83 -66 -143t-174 -82l-25 53q96 21 146.5 67t50.5 107q0 56 -44 85.5t-128 29.5h-37l8 18l41 119h70z" />
    <glyph glyph-name="ogonekcomb" unicode="&#x328;" horiz-adv-x="0" 
d="M86 -412l-25 -57q-110 8 -183 72.5t-73 158.5q0 132 127 238h68q-127 -111 -127 -227q0 -76 58 -127.5t155 -57.5z" />
    <glyph glyph-name="Delta" unicode="&#x394;" horiz-adv-x="1339" 
d="M670 1382q144 0 190 -145l314 -981q20 -59 20 -111q0 -145 -184 -145h-680q-187 0 -187 145q0 39 21 111l315 981q46 145 191 145zM670 1315q-93 0 -123 -98l-311 -979q-19 -59 -19 -88q0 -43 29 -61.5t98 -18.5h649q69 0 99 18.5t30 61.5q0 21 -18 88l-311 979
q-30 98 -123 98z" />
    <glyph glyph-name="Omega" unicode="&#x3a9;" horiz-adv-x="1239" 
d="M621 1382q162 0 280.5 -84t178 -229.5t59.5 -335.5q0 -123 -50 -243.5t-141 -213.5q-37 -38 -51 -54t-25.5 -37t-11.5 -42q0 -37 25 -55t57 -18h223v-70h-225q-63 0 -105 35t-42 98q0 46 22.5 81.5t75.5 92.5q170 185 170 422q0 171 -50 301t-150.5 205.5t-239.5 75.5
t-240 -75.5t-151 -206t-50 -300.5q0 -237 170 -422q37 -40 53.5 -60t31 -51t14.5 -63q0 -63 -42.5 -98t-105.5 -35h-225v70h223q32 0 57 18t25 55q0 21 -11.5 42t-25.5 37t-51 54q-90 93 -140.5 214t-50.5 243q0 190 59.5 335.5t178.5 229.5t281 84z" />
    <glyph glyph-name="mu" unicode="&#x3bc;" horiz-adv-x="1212" 
d="M610 51q116 0 204.5 60t133.5 157.5t45 214.5v504h72v-510q0 -215 -125.5 -355t-329.5 -140q-125 0 -221 56.5t-153 156.5v-76v-373h-72v1241h72v-506q0 -116 43 -213t129.5 -157t201.5 -60z" />
    <glyph glyph-name="pi" unicode="&#x3c0;" horiz-adv-x="1335" 
d="M299 0h-72v918h-204v69h1218v-69h-354v-611q0 -116 45 -181t139 -65q107 0 189 68l34 -55q-102 -82 -223 -82t-188.5 80.5t-67.5 234.5v611h-516v-918z" />
    <glyph glyph-name="Wgrave" unicode="&#x1e80;" horiz-adv-x="1896" 
d="M776 1825l228 -271h-80l-230 271h82zM354 109l-278 1255h76l274 -1239q7 -38 26 -58t44 -20q28 0 50 21.5t32 62.5l264 1129q10 49 41.5 74.5t72.5 25.5q42 0 73.5 -25t43.5 -73l281 -1127q10 -40 31.5 -62t48.5 -22t45 20t24 58l242 1235h74l-244 -1247
q-12 -64 -48 -99.5t-89 -35.5q-54 0 -93 34.5t-57 102.5l-278 1122q-12 51 -54 51q-39 0 -51 -51l-264 -1132q-15 -62 -53.5 -95.5t-89.5 -33.5q-52 0 -91.5 33.5t-52.5 95.5z" />
    <glyph glyph-name="wgrave" unicode="&#x1e81;" horiz-adv-x="1654" 
d="M643 1448l229 -270h-79l-230 270h80zM422 -20q-54 0 -93.5 35t-54.5 100l-198 872h69l197 -858q9 -39 30.5 -60.5t49.5 -21.5q25 0 46 20t30 56l184 751q17 66 56 100t91 34q53 0 92 -34t56 -100l182 -751q9 -36 29 -56t47 -20q28 0 49.5 21.5t30.5 60.5l194 858h70
l-199 -872q-15 -66 -53.5 -100.5t-91.5 -34.5q-52 0 -89 33t-52 96l-183 753q-9 37 -32 58.5t-52 21.5q-27 0 -48.5 -21.5t-30.5 -58.5l-185 -753q-15 -63 -52.5 -96t-88.5 -33z" />
    <glyph glyph-name="Wacute" unicode="&#x1e82;" horiz-adv-x="1896" 
d="M995 1554h-82l230 271h80zM354 109l-278 1255h76l274 -1239q7 -38 26 -58t44 -20q28 0 50 21.5t32 62.5l264 1129q10 49 41.5 74.5t72.5 25.5q42 0 73.5 -25t43.5 -73l281 -1127q10 -40 31.5 -62t48.5 -22t45 20t24 58l242 1235h74l-244 -1247q-12 -64 -48 -99.5
t-89 -35.5q-54 0 -93 34.5t-57 102.5l-278 1122q-12 51 -54 51q-39 0 -51 -51l-264 -1132q-15 -62 -53.5 -95.5t-89.5 -33.5q-52 0 -91.5 33.5t-52.5 95.5z" />
    <glyph glyph-name="wacute" unicode="&#x1e83;" horiz-adv-x="1654" 
d="M862 1178h-80l230 270h80zM422 -20q-54 0 -93.5 35t-54.5 100l-198 872h69l197 -858q9 -39 30.5 -60.5t49.5 -21.5q25 0 46 20t30 56l184 751q17 66 56 100t91 34q53 0 92 -34t56 -100l182 -751q9 -36 29 -56t47 -20q28 0 49.5 21.5t30.5 60.5l194 858h70l-199 -872
q-15 -66 -53.5 -100.5t-91.5 -34.5q-52 0 -89 33t-52 96l-183 753q-9 37 -32 58.5t-52 21.5q-27 0 -48.5 -21.5t-30.5 -58.5l-185 -753q-15 -63 -52.5 -96t-88.5 -33z" />
    <glyph glyph-name="Wdieresis" unicode="&#x1e84;" horiz-adv-x="1896" 
d="M770 1640q-25 0 -41 17t-16 43q0 25 16 41t41 16q23 0 38 -16t15 -41q0 -26 -15 -43t-38 -17zM1151 1640q-24 0 -40.5 17t-16.5 43q0 24 16.5 40.5t40.5 16.5t38.5 -16t14.5 -41q0 -27 -14.5 -43.5t-38.5 -16.5zM354 109l-278 1255h76l274 -1239q7 -38 26 -58t44 -20
q28 0 50 21.5t32 62.5l264 1129q10 49 41.5 74.5t72.5 25.5q42 0 73.5 -25t43.5 -73l281 -1127q10 -40 31.5 -62t48.5 -22t45 20t24 58l242 1235h74l-244 -1247q-12 -64 -48 -99.5t-89 -35.5q-54 0 -93 34.5t-57 102.5l-278 1122q-12 51 -54 51q-39 0 -51 -51l-264 -1132
q-15 -62 -53.5 -95.5t-89.5 -33.5q-52 0 -91.5 33.5t-52.5 95.5z" />
    <glyph glyph-name="wdieresis" unicode="&#x1e85;" horiz-adv-x="1654" 
d="M639 1264q-26 0 -41.5 16t-15.5 41q0 26 15.5 41.5t41.5 15.5q24 0 38.5 -15.5t14.5 -41.5q0 -25 -15 -41t-38 -16zM1020 1264q-25 0 -41 16t-16 41q0 26 16 41.5t41 15.5q24 0 38.5 -15.5t14.5 -41.5q0 -25 -15 -41t-38 -16zM422 -20q-54 0 -93.5 35t-54.5 100l-198 872
h69l197 -858q9 -39 30.5 -60.5t49.5 -21.5q25 0 46 20t30 56l184 751q17 66 56 100t91 34q53 0 92 -34t56 -100l182 -751q9 -36 29 -56t47 -20q28 0 49.5 21.5t30.5 60.5l194 858h70l-199 -872q-15 -66 -53.5 -100.5t-91.5 -34.5q-52 0 -89 33t-52 96l-183 753
q-9 37 -32 58.5t-52 21.5q-27 0 -48.5 -21.5t-30.5 -58.5l-185 -753q-15 -63 -52.5 -96t-88.5 -33z" />
    <glyph glyph-name="Germandbls" unicode="&#x1e9e;" horiz-adv-x="1357" 
d="M868 -20q-142 0 -249.5 60t-159.5 183l61 37q93 -207 348 -207q132 0 208.5 65t76.5 175q0 53 -23.5 95.5t-58.5 68t-76.5 52t-76.5 48t-58.5 55t-23.5 74.5q0 36 19 70t46 64t54 63.5t46 81t19 102.5q0 104 -87 175t-241 71q-177 0 -282 -107t-105 -282v-924h-74v924
q0 206 126.5 332t336.5 126q184 0 293 -85t109 -220q0 -61 -19 -112.5t-46 -86t-54.5 -64t-46.5 -58.5t-19 -56q0 -36 33 -66.5t79.5 -57.5t93 -60.5t79.5 -90.5t33 -132q0 -137 -100.5 -225t-260.5 -88z" />
    <glyph glyph-name="Ygrave" unicode="&#x1ef2;" horiz-adv-x="1126" 
d="M377 1825l227 -271h-80l-229 271h82zM596 0h-74v469q-50 9 -87.5 48.5t-69.5 111.5l-326 735h80l313 -715q26 -60 55.5 -88.5t73.5 -28.5q45 0 74 28t57 89l316 715h82l-332 -735q-32 -72 -70.5 -111.5t-91.5 -48.5v-469z" />
    <glyph glyph-name="ygrave" unicode="&#x1ef3;" horiz-adv-x="1253" 
d="M444 1448l228 -270h-80l-230 270h82zM590 -473q-135 0 -252.5 58t-181.5 173l63 35q56 -98 155.5 -147t215.5 -49q98 0 174.5 37t124.5 101t72.5 148.5t23.5 182.5l-2 180q-47 -123 -145.5 -193.5t-239.5 -70.5q-204 0 -318 129t-114 344v532h74v-518q0 -191 94 -304.5
t268 -113.5q118 0 206 61t131.5 160.5t43.5 223.5v491h74v-921q0 -158 -50 -277.5t-157 -190.5t-260 -71z" />
    <glyph glyph-name="endash" unicode="&#x2013;" horiz-adv-x="1302" 
d="M1077 672v-68l-852 -2v70h852z" />
    <glyph glyph-name="emdash" unicode="&#x2014;" horiz-adv-x="1943" 
d="M1718 672v-68l-1493 -2v70h1493z" />
    <glyph glyph-name="quoteleft" unicode="&#x2018;" horiz-adv-x="489" 
d="M260 1391h49l-71 -359q32 -16 32 -55q0 -27 -18 -44.5t-45 -17.5t-44.5 17.5t-17.5 44.5q0 4 5 24z" />
    <glyph glyph-name="quoteright" unicode="&#x2019;" horiz-adv-x="489" 
d="M195 918h-50l72 358q-33 18 -33 55q0 27 18.5 45.5t45.5 18.5t44 -18t17 -46q0 -14 -6 -26z" />
    <glyph glyph-name="quotesinglbase" unicode="&#x201a;" horiz-adv-x="489" 
d="M195 -362h-50l72 356q-33 16 -33 57q0 26 18.5 43t45.5 17q28 0 44.5 -16.5t16.5 -43.5q0 -12 -4 -28z" />
    <glyph glyph-name="quotedblleft" unicode="&#x201c;" horiz-adv-x="741" 
d="M260 1391h49l-71 -359q32 -16 32 -55q0 -27 -18 -44.5t-45 -17.5t-44.5 17.5t-17.5 44.5q0 4 5 24zM512 1391h49l-69 -359q30 -17 30 -55q0 -28 -17.5 -45t-45.5 -17q-27 0 -44.5 17.5t-17.5 44.5q0 8 4 24z" />
    <glyph glyph-name="quotedblright" unicode="&#x201d;" horiz-adv-x="745" 
d="M195 918h-50l72 358q-33 18 -33 55q0 27 18.5 45.5t45.5 18.5t44 -18t17 -46q0 -14 -6 -26zM451 918h-52l72 360q-33 13 -33 53q0 28 19 46t47 18q26 0 42.5 -18t16.5 -46q0 -10 -4 -22h2z" />
    <glyph glyph-name="quotedblbase" unicode="&#x201e;" horiz-adv-x="741" 
d="M195 -362h-50l72 356q-33 16 -33 57q0 26 18.5 43t45.5 17q28 0 44.5 -16.5t16.5 -43.5q0 -12 -4 -28zM449 -362h-52l72 356q-33 16 -33 57q0 26 18.5 43t45.5 17q28 0 44.5 -16.5t16.5 -43.5q0 -8 -4 -24h2z" />
    <glyph glyph-name="dagger" unicode="&#x2020;" horiz-adv-x="1042" 
d="M559 -311h-76v1226h-405v72h405v377h76v-377h406v-69h-406v-1229z" />
    <glyph glyph-name="daggerdbl" unicode="&#x2021;" horiz-adv-x="1124" 
d="M600 -311h-76v377h-405v71h405v778h-405v72h405v377h76v-377h406v-69h-406v-781h406v-69h-406v-379z" />
    <glyph glyph-name="bullet" unicode="&#x2022;" horiz-adv-x="698" 
d="M352 506q-57 0 -95 37.5t-38 95.5q0 55 38 92t95 37q55 0 91 -36.5t36 -92.5q0 -58 -35.5 -95.5t-91.5 -37.5z" />
    <glyph glyph-name="ellipsis" unicode="&#x2026;" horiz-adv-x="1128" 
d="M565 -14q-27 0 -45 18t-18 47q0 26 18 43t45 17q26 0 44 -17t18 -43q0 -29 -17.5 -47t-44.5 -18zM887 -14q-27 0 -45.5 18t-18.5 47q0 26 18.5 43t45.5 17q26 0 43.5 -17t17.5 -43q0 -29 -17 -47t-44 -18zM244 -14q-27 0 -45.5 18t-18.5 47q0 26 18.5 43t45.5 17
q26 0 43.5 -17t17.5 -43q0 -29 -17 -47t-44 -18z" />
    <glyph glyph-name="perthousand" unicode="&#x2030;" horiz-adv-x="2086" 
d="M303 651q-115 0 -187.5 102.5t-72.5 258.5q0 157 73 257.5t187 100.5q116 0 188 -100t72 -258q0 -148 -74 -254.5t-186 -106.5zM414 0h-76l661 1364h76zM303 709q85 0 142 90t57 213q0 131 -56 217t-143 86t-143 -86t-56 -217t56 -217t143 -86zM1116 -10
q-116 0 -188 101.5t-72 258.5q0 158 72.5 259.5t187.5 101.5q116 0 187 -101.5t71 -259.5q0 -96 -33 -178.5t-92.5 -132t-132.5 -49.5zM1784 -10q-115 0 -187.5 102t-72.5 258q0 158 72.5 259.5t187.5 101.5q116 0 188 -101.5t72 -259.5q0 -147 -74.5 -253.5t-185.5 -106.5z
M1116 47q83 0 140 90.5t57 212.5q0 132 -55.5 217.5t-141.5 85.5q-88 0 -144.5 -85.5t-56.5 -217.5q0 -131 57 -217t144 -86zM1784 47q84 0 141 90t57 213q0 132 -56 217.5t-142 85.5q-88 0 -143.5 -85.5t-55.5 -217.5q0 -131 56 -217t143 -86z" />
    <glyph glyph-name="guilsinglleft" unicode="&#x2039;" horiz-adv-x="753" 
d="M549 371v-76l-309 178q-117 66 -117 168t117 166l309 178v-76l-289 -164q-70 -39 -70 -104q0 -66 70 -106z" />
    <glyph glyph-name="guilsinglright" unicode="&#x203a;" horiz-adv-x="753" 
d="M514 473l-309 -178v76l289 164q69 40 69 106t-69 104l-289 164v76l309 -178q117 -67 117 -166q0 -102 -117 -168z" />
    <glyph glyph-name="fraction" unicode="&#x2044;" horiz-adv-x="821" 
d="M45 0l660 1364h71l-659 -1364h-72z" />
    <glyph glyph-name="Euro" unicode="&#x20ac;" horiz-adv-x="1456" 
d="M909 -16q-202 0 -356 131.5t-209 353.5h-266v59h254q-13 80 -13 156q0 98 21 184h-262v64h278q62 202 212 325t339 123q163 0 281 -75.5t192 -204.5l-63 -39q-65 114 -170.5 182t-239.5 68q-158 0 -286 -103.5t-187 -275.5h475v-62l-491 -2q-23 -94 -23 -184
q0 -82 15 -156h499v-57l-487 -2q51 -191 182.5 -302.5t302.5 -111.5q134 0 239.5 68t170.5 182l63 -39q-73 -129 -190.5 -205.5t-280.5 -76.5z" />
    <glyph glyph-name="trademark" unicode="&#x2122;" horiz-adv-x="1673" 
d="M760 635h-58l107 668q6 34 29.5 52.5t54.5 18.5q66 0 80 -59l137 -457q3 -13 10 -37t11.5 -42.5t7.5 -33.5q3 -14 18 -14t21 14q5 19 13.5 57.5t12.5 55.5l137 457q7 29 29 44t51 15q31 0 54.5 -18.5t29.5 -52.5l107 -668h-58l-88 555q-9 83 -12 100q-3 33 -35 33
q-10 0 -20 -7.5t-13 -21.5q-8 -30 -30 -106l-135 -465q-15 -43 -64 -43t-61 43l-140 465q-22 75 -28 106q-5 27 -33 27q-32 0 -35 -31q-2 -34 -12 -100zM598 1364v-51h-240v-678h-53v676h-244v53h537z" />
    <glyph glyph-name="estimated" unicode="&#x212e;" horiz-adv-x="1269" 
d="M1233 721v-29h-936v-434q141 -104 338 -104q129 0 238.5 46t185.5 134l31 -25q-82 -93 -200 -143.5t-255 -50.5q-165 0 -301 72.5t-216.5 207t-80.5 305.5v13q0 171 80.5 305.5t216.5 207t301 72.5q164 0 298.5 -71t215.5 -204t84 -302zM297 1155v-434h674v438
q-152 101 -336 101q-192 0 -338 -105z" />
    <glyph glyph-name="partialdiff" unicode="&#x2202;" horiz-adv-x="1146" 
d="M567 -18q-194 0 -326 130t-132 318q0 201 138 330t339 129q170 0 284 -92.5t142 -249.5q10 90 10 211q0 174 -57.5 316t-159 223t-225.5 81q-185 0 -314 -135l-53 53q143 156 369 156q151 0 269 -91t183.5 -255t65.5 -373q0 -156 -33.5 -290.5t-98 -238t-168 -163
t-233.5 -59.5zM569 49q102 0 194.5 53.5t150 149t57.5 207.5q0 156 -107 260t-272 104q-173 0 -291.5 -110.5t-118.5 -282.5q0 -157 111.5 -269t275.5 -112z" />
    <glyph glyph-name="product" unicode="&#x220f;" horiz-adv-x="1382" 
d="M313 -256h-73v1733h903v-1733h-74v1663l-756 -2v-1661z" />
    <glyph glyph-name="summation" unicode="&#x2211;" horiz-adv-x="1306" 
d="M1147 -315h-785q-86 0 -133 43t-47 106q0 86 78 150l561 448q49 40 49 96q0 60 -49 97l-563 450q-78 61 -78 144q0 63 48 108t134 45h785v-69h-785q-50 0 -78 -24t-28 -58q0 -46 45 -84l565 -451q76 -58 76 -156q0 -95 -76 -159l-565 -451q-45 -38 -45 -84q0 -34 28 -58
t78 -24h785v-69z" />
    <glyph glyph-name="minus" unicode="&#x2212;" horiz-adv-x="1277" 
d="M1096 717v-72h-916v72h916z" />
    <glyph glyph-name="radical" unicode="&#x221a;" horiz-adv-x="1466" 
d="M684 74l-287 813q-14 45 -55 45q-30 0 -55 -14l-234 -103l-26 68l233 102q51 21 86 21q85 0 117 -91l242 -698q17 -49 40 -113q20 -51 66 -51q43 0 63 51q7 20 23 62.5t21 54.5l440 1219h76l-498 -1366q-18 -45 -53 -69.5t-74 -24.5q-40 0 -74 25t-51 69z" />
    <glyph glyph-name="infinity" unicode="&#x221e;" horiz-adv-x="1748" 
d="M524 252q-159 0 -251.5 113.5t-92.5 285.5q0 179 100.5 299.5t258.5 120.5q131 0 224 -67t138 -179q23 55 48.5 96t63.5 77t91.5 54.5t120.5 18.5q159 0 251.5 -113.5t92.5 -283.5q0 -181 -101 -301.5t-260 -120.5q-128 0 -218.5 60.5t-139.5 160.5q-31 -68 -70 -114
t-104.5 -76.5t-151.5 -30.5zM1227 1004q-43 0 -79 -11t-62 -28t-50 -47t-39.5 -57.5t-32.5 -69.5t-27 -73.5t-25.5 -80t-26.5 -78.5q88 -240 321 -240q124 0 206.5 101.5t82.5 251.5q0 138 -72.5 235t-195.5 97zM254 651q0 -138 73.5 -235t196.5 -97q61 0 109.5 22
t78.5 49.5t59 84.5t42 93t37 110q11 33 16 49q-33 130 -116 203.5t-207 73.5q-125 0 -207 -101.5t-82 -251.5z" />
    <glyph glyph-name="integral" unicode="&#x222b;" horiz-adv-x="1032" 
d="M258 -340q-201 0 -285 203l64 33q62 -166 221 -166q95 0 151 64t56 169v1213q0 137 75 220t203 83q99 0 173 -53t114 -152l-63 -33q-61 168 -222 168q-96 0 -152 -64.5t-56 -168.5v-1213q0 -139 -74.5 -221t-204.5 -82z" />
    <glyph glyph-name="approxequal" unicode="&#x2248;" horiz-adv-x="1148" 
d="M922 1010l69 -19q-11 -83 -72.5 -138.5t-146.5 -55.5q-48 0 -102 20t-93.5 43.5t-91.5 43.5t-98 20q-61 0 -104 -40t-54 -98l-71 19q12 83 73.5 139.5t145.5 56.5q50 0 105 -20t95.5 -43.5t91 -43.5t93.5 -20q62 0 104.5 39t55.5 97zM229 367l-71 20q12 81 74 138t145 57
q50 0 105 -20t95.5 -43.5t91 -43.5t93.5 -20q62 0 104.5 39t55.5 98l69 -21q-11 -81 -72.5 -137.5t-146.5 -56.5q-48 0 -102 20t-93.5 43.5t-91.5 43.5t-98 20q-61 0 -104 -39.5t-54 -97.5z" />
    <glyph glyph-name="notequal" unicode="&#x2260;" horiz-adv-x="1277" 
d="M279 94l147 299h-246v72h283l211 430l-494 -2v72h529l149 301h78l-150 -301h310v-70h-344l-211 -430h555v-70l-592 -2l-148 -299h-77z" />
    <glyph glyph-name="lessequal" unicode="&#x2264;" horiz-adv-x="1167" 
d="M967 426v-72l-654 197q-153 47 -153 180q0 136 153 180l654 195v-74l-633 -182q-107 -30 -107 -119q0 -88 107 -121zM967 303v-67l-799 2v65h799z" />
    <glyph glyph-name="greaterequal" unicode="&#x2265;" horiz-adv-x="1167" 
d="M854 551l-653 -197v72l633 184q106 33 106 121q0 90 -106 119l-633 182v74l653 -195q154 -44 154 -180q0 -64 -39 -110.5t-115 -69.5zM999 238l-798 -2v67h798v-65z" />
    <glyph glyph-name="lozenge" unicode="&#x25ca;" horiz-adv-x="1118" 
d="M557 -20q-77 0 -123 94l-248 532q-30 62 -30 109q0 45 32 114l248 529q46 94 123 94t123 -94l248 -529q31 -58 31 -114q0 -45 -31 -109l-250 -532q-46 -94 -123 -94zM559 51q37 0 64 58l249 532q23 56 23 76q0 27 -21 74l-251 534q-23 57 -66 57q-36 0 -61 -57l-248 -534
q-25 -48 -25 -74q0 -20 23 -76l248 -532q27 -58 65 -58z" />
    <glyph glyph-name="A.ss01" horiz-adv-x="1349" 
d="M168 0h-76l379 1219q26 81 79 122t126 41q71 0 125.5 -41t79.5 -122l376 -1219h-73l-127 418l-762 -2zM496 1069l-179 -584h717l-178 586q-33 98 -41 125q-19 60 -52 89.5t-87 29.5t-87 -29.5t-52 -89.5q-39 -119 -41 -127z" />
    <glyph glyph-name="Aacute.ss01" horiz-adv-x="1349" 
d="M705 1554h-80l227 271h82zM168 0h-76l379 1219q26 81 79 122t126 41q71 0 125.5 -41t79.5 -122l376 -1219h-73l-127 418l-762 -2zM496 1069l-179 -584h717l-178 586q-33 98 -41 125q-19 60 -52 89.5t-87 29.5t-87 -29.5t-52 -89.5q-39 -119 -41 -127z" />
    <glyph glyph-name="Abreve.ss01" horiz-adv-x="1349" 
d="M670 1550q-115 0 -180.5 63t-65.5 154v58h65v-56q0 -66 46.5 -112.5t134.5 -46.5q87 0 133.5 47t46.5 112v56h65v-58q0 -91 -65 -154t-180 -63zM168 0h-76l379 1219q26 81 79 122t126 41q71 0 125.5 -41t79.5 -122l376 -1219h-73l-127 418l-762 -2zM496 1069l-179 -584
h717l-178 586q-33 98 -41 125q-19 60 -52 89.5t-87 29.5t-87 -29.5t-52 -89.5q-39 -119 -41 -127z" />
    <glyph glyph-name="Acircumflex.ss01" horiz-adv-x="1349" 
d="M375 1554l135 187q64 88 160 88t159 -88l134 -187h-76l-121 168q-40 52 -97 51.5t-94 -51.5l-124 -168h-76zM168 0h-76l379 1219q26 81 79 122t126 41q71 0 125.5 -41t79.5 -122l376 -1219h-73l-127 418l-762 -2zM496 1069l-179 -584h717l-178 586q-33 98 -41 125
q-19 60 -52 89.5t-87 29.5t-87 -29.5t-52 -89.5q-39 -119 -41 -127z" />
    <glyph glyph-name="Adieresis.ss01" horiz-adv-x="1349" 
d="M479 1640q-25 0 -41 17t-16 43q0 25 16 41t41 16q23 0 39.5 -16.5t16.5 -40.5q0 -26 -16 -43t-40 -17zM860 1640q-24 0 -40.5 17t-16.5 43q0 24 16.5 40.5t40.5 16.5q25 0 40 -16t15 -41q0 -26 -15 -43t-40 -17zM168 0h-76l379 1219q26 81 79 122t126 41q71 0 125.5 -41
t79.5 -122l376 -1219h-73l-127 418l-762 -2zM496 1069l-179 -584h717l-178 586q-33 98 -41 125q-19 60 -52 89.5t-87 29.5t-87 -29.5t-52 -89.5q-39 -119 -41 -127z" />
    <glyph glyph-name="Agrave.ss01" horiz-adv-x="1349" 
d="M485 1825l228 -271h-80l-230 271h82zM168 0h-76l379 1219q26 81 79 122t126 41q71 0 125.5 -41t79.5 -122l376 -1219h-73l-127 418l-762 -2zM496 1069l-179 -584h717l-178 586q-33 98 -41 125q-19 60 -52 89.5t-87 29.5t-87 -29.5t-52 -89.5q-39 -119 -41 -127z" />
    <glyph glyph-name="Amacron.ss01" horiz-adv-x="1349" 
d="M975 1747v-61h-613v61h613zM168 0h-76l379 1219q26 81 79 122t126 41q71 0 125.5 -41t79.5 -122l376 -1219h-73l-127 418l-762 -2zM496 1069l-179 -584h717l-178 586q-33 98 -41 125q-19 60 -52 89.5t-87 29.5t-87 -29.5t-52 -89.5q-39 -119 -41 -127z" />
    <glyph glyph-name="Aogonek.ss01" horiz-adv-x="1349" 
d="M168 0h-76l379 1219q26 81 79 122t126 41q71 0 125.5 -41t79.5 -122l376 -1219h-6q-127 -108 -127 -227q0 -76 58 -127.5t155 -57.5l-24 -57q-111 8 -183.5 72.5t-72.5 160.5q0 130 127 236l-127 418l-762 -2zM496 1069l-179 -584h717l-178 586q-33 98 -41 125
q-19 60 -52 89.5t-87 29.5t-87 -29.5t-52 -89.5q-39 -119 -41 -127z" />
    <glyph glyph-name="Aring.ss01" horiz-adv-x="1349" 
d="M670 1526q-67 0 -115.5 48t-48.5 114q0 67 48 115t116 48q66 0 113.5 -48t47.5 -115q0 -66 -47.5 -114t-113.5 -48zM670 1579q44 0 76 32.5t32 76.5q0 46 -32 78t-76 32q-46 0 -78.5 -32t-32.5 -78q0 -44 32.5 -76.5t78.5 -32.5zM168 0h-76l379 1219q26 81 79 122t126 41
q71 0 125.5 -41t79.5 -122l376 -1219h-73l-127 418l-762 -2zM496 1069l-179 -584h717l-178 586q-33 98 -41 125q-19 60 -52 89.5t-87 29.5t-87 -29.5t-52 -89.5q-39 -119 -41 -127z" />
    <glyph glyph-name="Atilde.ss01" horiz-adv-x="1349" 
d="M412 1622l-56 14q5 65 48 112.5t106 47.5q51 0 105.5 -27t107 -54t100.5 -27q47 0 72.5 32.5t28.5 83.5l57 -14q-3 -70 -44 -117t-106 -47q-43 0 -87.5 17t-76 37.5t-72.5 37.5t-77 17q-45 0 -72 -32.5t-34 -80.5zM168 0h-76l379 1219q26 81 79 122t126 41
q71 0 125.5 -41t79.5 -122l376 -1219h-73l-127 418l-762 -2zM496 1069l-179 -584h717l-178 586q-33 98 -41 125q-19 60 -52 89.5t-87 29.5t-87 -29.5t-52 -89.5q-39 -119 -41 -127z" />
    <glyph glyph-name="B.ss01" horiz-adv-x="1331" 
d="M627 0h-301q-49 0 -68.5 22t-19.5 64v1192q0 42 19.5 64t68.5 22h319q249 0 387.5 -86.5t138.5 -255.5q0 -292 -307 -338q336 -36 336 -315q0 -88 -31 -154.5t-82.5 -106.5t-127.5 -65t-155 -34t-177 -9zM647 1292h-334v-1220h316q69 0 125.5 4.5t116 15.5t103 33
t79.5 54.5t54.5 82t18.5 113.5q0 146 -118 210t-371 64h-62v72h62q243 0 352 69t109 226q0 137 -118.5 206.5t-332.5 69.5z" />
    <glyph glyph-name="D.ss01" horiz-adv-x="1501" 
d="M1380 696q0 -160 -57.5 -292.5t-158 -220t-234.5 -135.5t-287 -48h-317q-49 0 -68.5 22t-19.5 64v1192q0 42 19.5 64t68.5 22h336q321 0 519.5 -184.5t198.5 -483.5zM1305 696q0 176 -82.5 313t-228.5 211t-332 74h-349v-1222h330q134 0 253.5 42.5t210.5 120.5
t144.5 197.5t53.5 263.5z" />
    <glyph glyph-name="Eth.ss01" horiz-adv-x="1501" 
d="M238 664h-201v67h201v547q0 42 19.5 64t68.5 22h336q321 0 519.5 -184.5t198.5 -483.5q0 -160 -57.5 -292.5t-158 -220t-234.5 -135.5t-287 -48h-317q-49 0 -68.5 22t-19.5 64v578zM313 664v-592h330q134 0 253.5 42.5t210.5 120.5t144.5 197.5t53.5 263.5
q0 176 -82.5 313t-228.5 211t-332 74h-349v-563h426v-67h-426z" />
    <glyph glyph-name="Dcroat.ss01" horiz-adv-x="1501" 
d="M238 664h-201v67h201v547q0 42 19.5 64t68.5 22h336q321 0 519.5 -184.5t198.5 -483.5q0 -160 -57.5 -292.5t-158 -220t-234.5 -135.5t-287 -48h-317q-49 0 -68.5 22t-19.5 64v578zM313 664v-592h330q134 0 253.5 42.5t210.5 120.5t144.5 197.5t53.5 263.5
q0 176 -82.5 313t-228.5 211t-332 74h-349v-563h426v-67h-426z" />
    <glyph glyph-name="K.ss01" horiz-adv-x="1259" 
d="M1202 0h-98l-465 483q-94 98 -94 193q0 91 94 196l455 492h92l-488 -524q-82 -92 -82 -168q0 -39 20 -74t62 -78zM313 0h-75v1364h75v-1364z" />
    <glyph glyph-name="Kcommaaccent.ss01" horiz-adv-x="1259" 
d="M1202 0h-98l-465 483q-94 98 -94 193q0 91 94 196l455 492h92l-488 -524q-82 -92 -82 -168q0 -39 20 -74t62 -78zM313 0h-75v1364h75v-1364zM655 -410h-47l31 197q-31 17 -31 55q0 25 17 41.5t43 16.5q25 0 41 -16.5t16 -41.5q0 -8 -4 -20h2z" />
    <glyph glyph-name="M.ss01" horiz-adv-x="1957" 
d="M1346 1044l-263 -884q-10 -37 -38 -57.5t-64 -20.5q-82 0 -107 76l-260 886q-36 128 -55 203q-19 66 -76 66q-30 0 -50.5 -20.5t-26.5 -55.5q-3 -27 -12.5 -91.5t-14.5 -101.5l-166 -1044h-76l199 1257q10 61 50.5 94t94.5 33q48 0 85.5 -26.5t54.5 -79.5l256 -877
q6 -22 26.5 -99.5t30.5 -113.5q12 -34 45 -34q36 0 45 34q27 93 59 213l256 877q14 53 52.5 79.5t87.5 26.5q53 0 93 -33t50 -94l197 -1257h-74l-166 1044q-10 80 -27 191q-5 36 -24.5 58t-48.5 22q-28 0 -48.5 -19t-29.5 -51q-37 -127 -55 -201z" />
    <glyph glyph-name="N.ss01" horiz-adv-x="1507" 
d="M289 0h-70v1212q0 79 41 123.5t105 44.5q101 0 149 -102l375 -807q102 -212 158 -342q15 -35 40 -55.5t54 -20.5q35 0 57 27.5t21 77.5v1206h69v-1210q0 -79 -41 -123.5t-104 -44.5q-104 0 -150 100l-381 819q-101 219 -151 330q-15 36 -39.5 56t-52.5 20
q-35 0 -58.5 -27t-23.5 -76q2 -78 2 -305v-903z" />
    <glyph glyph-name="Nacute.ss01" horiz-adv-x="1507" 
d="M803 1554h-80l229 271h80zM289 0h-70v1212q0 79 41 123.5t105 44.5q101 0 149 -102l375 -807q102 -212 158 -342q15 -35 40 -55.5t54 -20.5q35 0 57 27.5t21 77.5v1206h69v-1210q0 -79 -41 -123.5t-104 -44.5q-104 0 -150 100l-381 819q-101 219 -151 330
q-15 36 -39.5 56t-52.5 20q-35 0 -58.5 -27t-23.5 -76q2 -78 2 -305v-903z" />
    <glyph glyph-name="Ncaron.ss01" horiz-adv-x="1507" 
d="M610 1638l-135 187h76l123 -168q39 -50 95 -51t95 51l123 168h76l-135 -187q-63 -88 -158 -88t-160 88zM289 0h-70v1212q0 79 41 123.5t105 44.5q101 0 149 -102l375 -807q102 -212 158 -342q15 -35 40 -55.5t54 -20.5q35 0 57 27.5t21 77.5v1206h69v-1210
q0 -79 -41 -123.5t-104 -44.5q-104 0 -150 100l-381 819q-101 219 -151 330q-15 36 -39.5 56t-52.5 20q-35 0 -58.5 -27t-23.5 -76q2 -78 2 -305v-903z" />
    <glyph glyph-name="Ntilde.ss01" horiz-adv-x="1507" 
d="M512 1622l-55 14q5 65 46.5 112.5t104.5 47.5q52 0 107 -27t107.5 -54t99.5 -27t72 32.5t28 83.5l57 -14q-3 -70 -43.5 -117t-105.5 -47q-43 0 -87.5 17t-76.5 37.5t-72.5 37.5t-75.5 17q-45 0 -72 -32.5t-34 -80.5zM289 0h-70v1212q0 79 41 123.5t105 44.5
q101 0 149 -102l375 -807q102 -212 158 -342q15 -35 40 -55.5t54 -20.5q35 0 57 27.5t21 77.5v1206h69v-1210q0 -79 -41 -123.5t-104 -44.5q-104 0 -150 100l-381 819q-101 219 -151 330q-15 36 -39.5 56t-52.5 20q-35 0 -58.5 -27t-23.5 -76q2 -78 2 -305v-903z" />
    <glyph glyph-name="R.ss01" 
d="M313 0h-75v1364h399q208 0 339.5 -96.5t131.5 -282.5q0 -154 -94 -251t-260 -122q31 -11 59.5 -29t50.5 -36.5t47 -51t40.5 -55t40.5 -68t37.5 -70t39.5 -79.5l113 -223h-82l-109 215q-6 11 -17 33l-30 57t-28.5 52.5t-30 50.5t-30.5 44t-34.5 40.5t-37 32.5t-43.5 28.5
t-48 19t-56 13.5t-63 4h-6v69h66q180 0 289.5 82t109.5 240q0 80 -31.5 141t-86.5 98t-125 55.5t-152 18.5h-324v-1294z" />
    <glyph glyph-name="Racute.ss01" 
d="M686 1554h-80l230 271h79zM313 0h-75v1364h399q208 0 339.5 -96.5t131.5 -282.5q0 -154 -94 -251t-260 -122q31 -11 59.5 -29t50.5 -36.5t47 -51t40.5 -55t40.5 -68t37.5 -70t39.5 -79.5l113 -223h-82l-109 215q-6 11 -17 33l-30 57t-28.5 52.5t-30 50.5t-30.5 44
t-34.5 40.5t-37 32.5t-43.5 28.5t-48 19t-56 13.5t-63 4h-6v69h66q180 0 289.5 82t109.5 240q0 80 -31.5 141t-86.5 98t-125 55.5t-152 18.5h-324v-1294z" />
    <glyph glyph-name="Rcaron.ss01" 
d="M494 1638l-136 187h76l123 -168q39 -50 95 -51t96 51l122 168h76l-135 -187q-63 -88 -157.5 -88t-159.5 88zM313 0h-75v1364h399q208 0 339.5 -96.5t131.5 -282.5q0 -154 -94 -251t-260 -122q31 -11 59.5 -29t50.5 -36.5t47 -51t40.5 -55t40.5 -68t37.5 -70t39.5 -79.5
l113 -223h-82l-109 215q-6 11 -17 33l-30 57t-28.5 52.5t-30 50.5t-30.5 44t-34.5 40.5t-37 32.5t-43.5 28.5t-48 19t-56 13.5t-63 4h-6v69h66q180 0 289.5 82t109.5 240q0 80 -31.5 141t-86.5 98t-125 55.5t-152 18.5h-324v-1294z" />
    <glyph glyph-name="Rcommaaccent.ss01" 
d="M313 0h-75v1364h399q208 0 339.5 -96.5t131.5 -282.5q0 -154 -94 -251t-260 -122q31 -11 59.5 -29t50.5 -36.5t47 -51t40.5 -55t40.5 -68t37.5 -70t39.5 -79.5l113 -223h-82l-109 215q-6 11 -17 33l-30 57t-28.5 52.5t-30 50.5t-30.5 44t-34.5 40.5t-37 32.5t-43.5 28.5
t-48 19t-56 13.5t-63 4h-6v69h66q180 0 289.5 82t109.5 240q0 80 -31.5 141t-86.5 98t-125 55.5t-152 18.5h-324v-1294zM641 -410h-47l31 197q-31 17 -31 55q0 25 16.5 41.5t42.5 16.5q25 0 41.5 -16.5t16.5 -41.5q0 -8 -4 -20h2z" />
    <glyph glyph-name="V.ss01" horiz-adv-x="1290" 
d="M434 156l-373 1208h78l316 -1028q31 -101 49 -160q20 -60 57.5 -92.5t85.5 -32.5q47 0 84 32.5t57 92.5q8 31 25.5 88.5t22.5 73.5l315 1026h78l-373 -1208q-27 -85 -84 -130.5t-127 -45.5q-69 0 -126.5 45.5t-84.5 130.5z" />
    <glyph glyph-name="W.ss01" horiz-adv-x="1921" 
d="M358 106l-282 1258h76l247 -1100q15 -63 29 -141q16 -74 74 -74q29 0 50.5 20.5t27.5 59.5q7 37 36 152l242 1007q9 37 37.5 57.5t65.5 20.5t65.5 -20t38.5 -58l242 -1007q4 -19 17.5 -76t16.5 -76q7 -39 28.5 -59.5t49.5 -20.5t48 19.5t26 54.5q3 17 13.5 67t15.5 74
l247 1100h76l-282 -1258q-13 -60 -52 -93t-90 -33q-50 0 -90 32t-53 92l-238 994q-6 31 -18.5 86t-17.5 76q-9 36 -43 36q-35 0 -41 -36q-5 -24 -39 -162l-236 -994q-14 -60 -53.5 -92t-89.5 -32q-52 0 -91.5 33t-52.5 93z" />
    <glyph glyph-name="Wacute.ss01" horiz-adv-x="1921" 
d="M997 1554h-79l229 271h80zM358 106l-282 1258h76l247 -1100q15 -63 29 -141q16 -74 74 -74q29 0 50.5 20.5t27.5 59.5q7 37 36 152l242 1007q9 37 37.5 57.5t65.5 20.5t65.5 -20t38.5 -58l242 -1007q4 -19 17.5 -76t16.5 -76q7 -39 28.5 -59.5t49.5 -20.5t48 19.5
t26 54.5q3 17 13.5 67t15.5 74l247 1100h76l-282 -1258q-13 -60 -52 -93t-90 -33q-50 0 -90 32t-53 92l-238 994q-6 31 -18.5 86t-17.5 76q-9 36 -43 36q-35 0 -41 -36q-5 -24 -39 -162l-236 -994q-14 -60 -53.5 -92t-89.5 -32q-52 0 -91.5 33t-52.5 93z" />
    <glyph glyph-name="Wcircumflex.ss01" horiz-adv-x="1921" 
d="M670 1554l135 187q65 88 159.5 88t157.5 -88l135 -187h-75l-123 168q-39 52 -95.5 51.5t-95.5 -51.5l-123 -168h-75zM358 106l-282 1258h76l247 -1100q15 -63 29 -141q16 -74 74 -74q29 0 50.5 20.5t27.5 59.5q7 37 36 152l242 1007q9 37 37.5 57.5t65.5 20.5t65.5 -20
t38.5 -58l242 -1007q4 -19 17.5 -76t16.5 -76q7 -39 28.5 -59.5t49.5 -20.5t48 19.5t26 54.5q3 17 13.5 67t15.5 74l247 1100h76l-282 -1258q-13 -60 -52 -93t-90 -33q-50 0 -90 32t-53 92l-238 994q-6 31 -18.5 86t-17.5 76q-9 36 -43 36q-35 0 -41 -36q-5 -24 -39 -162
l-236 -994q-14 -60 -53.5 -92t-89.5 -32q-52 0 -91.5 33t-52.5 93z" />
    <glyph glyph-name="Wdieresis.ss01" horiz-adv-x="1921" 
d="M774 1640q-26 0 -41.5 16.5t-15.5 43.5q0 25 15.5 41t41.5 16q23 0 38 -16t15 -41q0 -26 -15 -43t-38 -17zM1155 1640q-25 0 -41 17t-16 43q0 25 16 41t41 16q24 0 38.5 -16t14.5 -41q0 -27 -14.5 -43.5t-38.5 -16.5zM358 106l-282 1258h76l247 -1100q15 -63 29 -141
q16 -74 74 -74q29 0 50.5 20.5t27.5 59.5q7 37 36 152l242 1007q9 37 37.5 57.5t65.5 20.5t65.5 -20t38.5 -58l242 -1007q4 -19 17.5 -76t16.5 -76q7 -39 28.5 -59.5t49.5 -20.5t48 19.5t26 54.5q3 17 13.5 67t15.5 74l247 1100h76l-282 -1258q-13 -60 -52 -93t-90 -33
q-50 0 -90 32t-53 92l-238 994q-6 31 -18.5 86t-17.5 76q-9 36 -43 36q-35 0 -41 -36q-5 -24 -39 -162l-236 -994q-14 -60 -53.5 -92t-89.5 -32q-52 0 -91.5 33t-52.5 93z" />
    <glyph glyph-name="Wgrave.ss01" horiz-adv-x="1921" 
d="M778 1825l230 -271h-80l-230 271h80zM358 106l-282 1258h76l247 -1100q15 -63 29 -141q16 -74 74 -74q29 0 50.5 20.5t27.5 59.5q7 37 36 152l242 1007q9 37 37.5 57.5t65.5 20.5t65.5 -20t38.5 -58l242 -1007q4 -19 17.5 -76t16.5 -76q7 -39 28.5 -59.5t49.5 -20.5
t48 19.5t26 54.5q3 17 13.5 67t15.5 74l247 1100h76l-282 -1258q-13 -60 -52 -93t-90 -33q-50 0 -90 32t-53 92l-238 994q-6 31 -18.5 86t-17.5 76q-9 36 -43 36q-35 0 -41 -36q-5 -24 -39 -162l-236 -994q-14 -60 -53.5 -92t-89.5 -32q-52 0 -91.5 33t-52.5 93z" />
    <glyph glyph-name="X.ss01" horiz-adv-x="1298" 
d="M1223 0h-93l-352 481q-76 107 -76 205q0 100 74 207l342 471h90l-368 -508q-66 -95 -66 -168q0 -76 66 -168zM168 0h-92l383 520q67 93 67 168q0 72 -67 168l-369 508h90l342 -471q76 -110 76 -207q0 -95 -78 -205z" />
    <glyph glyph-name="Y.ss01" horiz-adv-x="1167" 
d="M616 0h-73v467q-95 17 -158 162l-328 735h80l242 -551q23 -47 72 -164q30 -63 57 -90t74 -27q49 0 76 27.5t55 89.5q13 27 36 82.5t35 83.5l246 549h82l-332 -735q-34 -73 -73 -113t-91 -49v-467z" />
    <glyph glyph-name="Yacute.ss01" horiz-adv-x="1167" 
d="M614 1554h-79l227 271h82zM616 0h-73v467q-95 17 -158 162l-328 735h80l242 -551q23 -47 72 -164q30 -63 57 -90t74 -27q49 0 76 27.5t55 89.5q13 27 36 82.5t35 83.5l246 549h82l-332 -735q-34 -73 -73 -113t-91 -49v-467z" />
    <glyph glyph-name="Ycircumflex.ss01" horiz-adv-x="1167" 
d="M285 1554l135 187q65 88 160.5 88t158.5 -88l133 -187h-75l-123 168q-39 52 -95.5 51.5t-95.5 -51.5l-123 -168h-75zM616 0h-73v467q-95 17 -158 162l-328 735h80l242 -551q23 -47 72 -164q30 -63 57 -90t74 -27q49 0 76 27.5t55 89.5q13 27 36 82.5t35 83.5l246 549h82
l-332 -735q-34 -73 -73 -113t-91 -49v-467z" />
    <glyph glyph-name="Ydieresis.ss01" horiz-adv-x="1167" 
d="M389 1640q-25 0 -41 17t-16 43q0 25 16 41t41 16q23 0 39 -16t16 -41q0 -26 -16 -43t-39 -17zM770 1640q-24 0 -40.5 17t-16.5 43q0 24 16.5 40.5t40.5 16.5q25 0 40 -16t15 -41q0 -26 -15 -43t-40 -17zM616 0h-73v467q-95 17 -158 162l-328 735h80l242 -551
q23 -47 72 -164q30 -63 57 -90t74 -27q49 0 76 27.5t55 89.5q13 27 36 82.5t35 83.5l246 549h82l-332 -735q-34 -73 -73 -113t-91 -49v-467z" />
    <glyph glyph-name="Ygrave.ss01" horiz-adv-x="1167" 
d="M395 1825l228 -271h-80l-230 271h82zM616 0h-73v467q-95 17 -158 162l-328 735h80l242 -551q23 -47 72 -164q30 -63 57 -90t74 -27q49 0 76 27.5t55 89.5q13 27 36 82.5t35 83.5l246 549h82l-332 -735q-34 -73 -73 -113t-91 -49v-467z" />
    <glyph glyph-name="Z.ss01" horiz-adv-x="1169" 
d="M1065 70v-70h-819q-68 0 -107 37.5t-39 97.5q0 65 43 113l748 844q11 11 30 31.5t29 31.5q31 40 31 68t-16 47q-24 24 -64 24h-770v70h778q68 0 108 -37.5t40 -97.5q0 -63 -45 -113l-748 -844q-46 -50 -59 -63q-31 -34 -31 -68q0 -26 16 -45q20 -26 64 -26h811z" />
    <glyph glyph-name="Zacute.ss01" horiz-adv-x="1169" 
d="M631 1554h-80l227 271h82zM1065 70v-70h-819q-68 0 -107 37.5t-39 97.5q0 65 43 113l748 844q11 11 30 31.5t29 31.5q31 40 31 68t-16 47q-24 24 -64 24h-770v70h778q68 0 108 -37.5t40 -97.5q0 -63 -45 -113l-748 -844q-46 -50 -59 -63q-31 -34 -31 -68q0 -26 16 -45
q20 -26 64 -26h811z" />
    <glyph glyph-name="Zcaron.ss01" horiz-adv-x="1169" 
d="M438 1638l-135 187h76l123 -168q39 -50 94.5 -51t95.5 51l121 168h76l-133 -187q-63 -88 -158 -88t-160 88zM1065 70v-70h-819q-68 0 -107 37.5t-39 97.5q0 65 43 113l748 844q11 11 30 31.5t29 31.5q31 40 31 68t-16 47q-24 24 -64 24h-770v70h778q68 0 108 -37.5
t40 -97.5q0 -63 -45 -113l-748 -844q-46 -50 -59 -63q-31 -34 -31 -68q0 -26 16 -45q20 -26 64 -26h811z" />
    <glyph glyph-name="Zdotaccent.ss01" horiz-adv-x="1169" 
d="M596 1634q-26 0 -43.5 18.5t-17.5 47.5q0 28 17.5 45.5t43.5 17.5q28 0 44.5 -17.5t16.5 -45.5q0 -29 -16.5 -47.5t-44.5 -18.5zM1065 70v-70h-819q-68 0 -107 37.5t-39 97.5q0 65 43 113l748 844q11 11 30 31.5t29 31.5q31 40 31 68t-16 47q-24 24 -64 24h-770v70h778
q68 0 108 -37.5t40 -97.5q0 -63 -45 -113l-748 -844q-46 -50 -59 -63q-31 -34 -31 -68q0 -26 16 -45q20 -26 64 -26h811z" />
    <glyph glyph-name="A.ss02" horiz-adv-x="1404" 
d="M702 1382q247 0 376.5 -156.5t129.5 -432.5v-793h-75v516l-861 -2v-514h-75v793q0 276 129 432.5t376 156.5zM272 791v-205h861v205q0 243 -110 381.5t-321 138.5t-320.5 -138.5t-109.5 -381.5z" />
    <glyph glyph-name="Aacute.ss02" horiz-adv-x="1404" 
d="M739 1554h-82l230 271h80zM702 1382q247 0 376.5 -156.5t129.5 -432.5v-793h-75v516l-861 -2v-514h-75v793q0 276 129 432.5t376 156.5zM272 791v-205h861v205q0 243 -110 381.5t-321 138.5t-320.5 -138.5t-109.5 -381.5z" />
    <glyph glyph-name="Abreve.ss02" horiz-adv-x="1404" 
d="M705 1550q-116 0 -182 63t-66 154v58h65v-56q0 -65 47.5 -112t135.5 -47q87 0 133.5 47t46.5 112v56h65v-58q0 -91 -65.5 -154t-179.5 -63zM702 1382q247 0 376.5 -156.5t129.5 -432.5v-793h-75v516l-861 -2v-514h-75v793q0 276 129 432.5t376 156.5zM272 791v-205h861
v205q0 243 -110 381.5t-321 138.5t-320.5 -138.5t-109.5 -381.5z" />
    <glyph glyph-name="Acircumflex.ss02" horiz-adv-x="1404" 
d="M410 1554l135 187q65 88 159.5 88t157.5 -88l135 -187h-75l-123 168q-39 52 -95.5 51.5t-95.5 -51.5l-123 -168h-75zM702 1382q247 0 376.5 -156.5t129.5 -432.5v-793h-75v516l-861 -2v-514h-75v793q0 276 129 432.5t376 156.5zM272 791v-205h861v205q0 243 -110 381.5
t-321 138.5t-320.5 -138.5t-109.5 -381.5z" />
    <glyph glyph-name="Adieresis.ss02" horiz-adv-x="1404" 
d="M514 1640q-25 0 -41 17t-16 43q0 25 16 41t41 16q23 0 38 -16t15 -41q0 -26 -15 -43t-38 -17zM895 1640q-25 0 -41 17t-16 43q0 25 16 41t41 16q24 0 38.5 -16t14.5 -41q0 -27 -14.5 -43.5t-38.5 -16.5zM702 1382q247 0 376.5 -156.5t129.5 -432.5v-793h-75v516l-861 -2
v-514h-75v793q0 276 129 432.5t376 156.5zM272 791v-205h861v205q0 243 -110 381.5t-321 138.5t-320.5 -138.5t-109.5 -381.5z" />
    <glyph glyph-name="Agrave.ss02" horiz-adv-x="1404" 
d="M520 1825l228 -271h-80l-230 271h82zM702 1382q247 0 376.5 -156.5t129.5 -432.5v-793h-75v516l-861 -2v-514h-75v793q0 276 129 432.5t376 156.5zM272 791v-205h861v205q0 243 -110 381.5t-321 138.5t-320.5 -138.5t-109.5 -381.5z" />
    <glyph glyph-name="Amacron.ss02" horiz-adv-x="1404" 
d="M1010 1747v-61h-613v61h613zM702 1382q247 0 376.5 -156.5t129.5 -432.5v-793h-75v516l-861 -2v-514h-75v793q0 276 129 432.5t376 156.5zM272 791v-205h861v205q0 243 -110 381.5t-321 138.5t-320.5 -138.5t-109.5 -381.5z" />
    <glyph glyph-name="Aogonek.ss02" horiz-adv-x="1404" 
d="M1294 -412l-24 -57q-110 8 -183 72.5t-73 158.5q0 132 127 238h-8v516l-861 -2v-514h-75v793q0 276 129 432.5t376 156.5t376.5 -156.5t129.5 -432.5v-793q-127 -111 -127 -227q0 -76 58 -127.5t155 -57.5zM272 791v-205h861v205q0 243 -110 381.5t-321 138.5
t-320.5 -138.5t-109.5 -381.5z" />
    <glyph glyph-name="Aring.ss02" horiz-adv-x="1404" 
d="M702 1526q-66 0 -113.5 48t-47.5 114q0 67 47.5 115t113.5 48q68 0 116 -48t48 -115q0 -66 -48.5 -114t-115.5 -48zM702 1579q44 0 77.5 32.5t33.5 76.5q0 45 -33 77.5t-78 32.5q-44 0 -76 -32t-32 -78q0 -44 32 -76.5t76 -32.5zM702 1382q247 0 376.5 -156.5
t129.5 -432.5v-793h-75v516l-861 -2v-514h-75v793q0 276 129 432.5t376 156.5zM272 791v-205h861v205q0 243 -110 381.5t-321 138.5t-320.5 -138.5t-109.5 -381.5z" />
    <glyph glyph-name="Atilde.ss02" horiz-adv-x="1404" 
d="M446 1622l-55 14q5 64 47.5 112t104.5 48q52 0 107 -27t107 -54t99 -27t72 32.5t28 83.5l60 -14q-5 -70 -45.5 -117t-104.5 -47q-43 0 -88 17t-77 37.5t-72.5 37.5t-75.5 17q-45 0 -73 -32.5t-34 -80.5zM702 1382q247 0 376.5 -156.5t129.5 -432.5v-793h-75v516l-861 -2
v-514h-75v793q0 276 129 432.5t376 156.5zM272 791v-205h861v205q0 243 -110 381.5t-321 138.5t-320.5 -138.5t-109.5 -381.5z" />
    <glyph glyph-name="K.ss02" horiz-adv-x="1335" 
d="M313 0h-75v1364h75v-655h295q212 0 335.5 116.5t123.5 319.5v219h72v-219q0 -184 -89.5 -311t-248.5 -160q163 -34 258.5 -159t95.5 -306v-209h-74v209q0 199 -129.5 314.5t-341.5 115.5h-297v-639z" />
    <glyph glyph-name="Kcommaaccent.ss02" horiz-adv-x="1335" 
d="M313 0h-75v1364h75v-655h295q212 0 335.5 116.5t123.5 319.5v219h72v-219q0 -184 -89.5 -311t-248.5 -160q163 -34 258.5 -159t95.5 -306v-209h-74v209q0 199 -129.5 314.5t-341.5 115.5h-297v-639zM643 -410h-45l31 197q-33 17 -33 55q0 25 17 41.5t42 16.5
q26 0 43 -16.5t17 -41.5q0 -16 -6 -28z" />
    <glyph glyph-name="X.ss02" horiz-adv-x="1302" 
d="M655 647q-178 0 -289.5 -117t-111.5 -292v-238h-74v242q0 162 77 277t214 161q-138 46 -214.5 162t-76.5 280v242h74v-238q0 -175 109 -293t284 -118q179 0 290.5 118.5t111.5 294.5v236h73v-244q0 -159 -81 -275.5t-218 -162.5q137 -46 218 -163t81 -277v-242h-73v240
q0 174 -109.5 290.5t-284.5 116.5z" />
    <glyph glyph-name="Y.ss02" horiz-adv-x="1218" 
d="M641 0h-74v410q-187 12 -297 141.5t-110 333.5v479h73v-475q0 -177 100.5 -294.5t270.5 -117.5q176 0 279.5 117.5t103.5 294.5v475h72v-481q0 -204 -112.5 -332.5t-305.5 -140.5v-410z" />
    <glyph glyph-name="Yacute.ss02" horiz-adv-x="1218" 
d="M641 1554h-82l229 271h80zM641 0h-74v410q-187 12 -297 141.5t-110 333.5v479h73v-475q0 -177 100.5 -294.5t270.5 -117.5q176 0 279.5 117.5t103.5 294.5v475h72v-481q0 -204 -112.5 -332.5t-305.5 -140.5v-410z" />
    <glyph glyph-name="Ycircumflex.ss02" horiz-adv-x="1218" 
d="M311 1554l135 187q65 88 160.5 88t157.5 -88l135 -187h-76l-123 168q-39 52 -95 51.5t-95 -51.5l-123 -168h-76zM641 0h-74v410q-187 12 -297 141.5t-110 333.5v479h73v-475q0 -177 100.5 -294.5t270.5 -117.5q176 0 279.5 117.5t103.5 294.5v475h72v-481
q0 -204 -112.5 -332.5t-305.5 -140.5v-410z" />
    <glyph glyph-name="Ydieresis.ss02" horiz-adv-x="1218" 
d="M416 1640q-25 0 -41.5 17t-16.5 43q0 25 16.5 41t41.5 16q23 0 39 -16t16 -41q0 -26 -16 -43t-39 -17zM797 1640q-24 0 -41 17t-17 43q0 24 17 40.5t41 16.5t38.5 -16t14.5 -41q0 -27 -14.5 -43.5t-38.5 -16.5zM641 0h-74v410q-187 12 -297 141.5t-110 333.5v479h73v-475
q0 -177 100.5 -294.5t270.5 -117.5q176 0 279.5 117.5t103.5 294.5v475h72v-481q0 -204 -112.5 -332.5t-305.5 -140.5v-410z" />
    <glyph glyph-name="Ygrave.ss02" horiz-adv-x="1218" 
d="M422 1825l227 -271h-80l-229 271h82zM641 0h-74v410q-187 12 -297 141.5t-110 333.5v479h73v-475q0 -177 100.5 -294.5t270.5 -117.5q176 0 279.5 117.5t103.5 294.5v475h72v-481q0 -204 -112.5 -332.5t-305.5 -140.5v-410z" />
    <glyph glyph-name="idotaccent" horiz-adv-x="507" 
d="M254 1257q-26 0 -43.5 18t-17.5 46q0 29 17 47t44 18q28 0 44.5 -18t16.5 -47q0 -28 -17 -46t-44 -18zM217 987h72v-987h-72v987z" />
    <glyph glyph-name="k.ss01" horiz-adv-x="1081" 
d="M289 0h-72v1442h72v-1442zM997 0h-96l-387 360q-63 60 -63 134q0 73 65 135l389 358h92l-436 -407q-43 -43 -43 -86q0 -44 43 -84z" />
    <glyph glyph-name="kcommaaccent.ss01" horiz-adv-x="1081" 
d="M289 0h-72v1442h72v-1442zM997 0h-96l-387 360q-63 60 -63 134q0 73 65 135l389 358h92l-436 -407q-43 -43 -43 -86q0 -44 43 -84zM530 -410h-45l31 197q-33 17 -33 55q0 25 17.5 41.5t42.5 16.5q26 0 42.5 -16.5t16.5 -41.5q0 -16 -6 -28z" />
    <glyph glyph-name="v.ss01" horiz-adv-x="1024" 
d="M385 76l-348 911h76l293 -766q9 -23 25 -69t18 -52q23 -51 63 -51q44 0 61 51q8 19 24.5 63.5t23.5 61.5l288 762h76l-346 -911q-17 -46 -51 -71t-76 -25q-41 0 -75.5 25t-51.5 71z" />
    <glyph glyph-name="w.ss01" horiz-adv-x="1654" 
d="M274 115l-198 872h69l162 -708q6 -27 17.5 -78t15.5 -70q10 -40 31.5 -61t50.5 -21q27 0 48 19.5t30 56.5q19 70 37 151l145 598q17 65 57 99.5t92 34.5t90.5 -34.5t53.5 -99.5l143 -595q6 -29 19 -81.5t18 -72.5q9 -37 30.5 -56.5t49.5 -19.5t49.5 21t30.5 61
q5 23 16.5 74t16.5 74l161 708h70l-199 -872q-14 -65 -54.5 -100t-90.5 -35t-89.5 33.5t-53.5 95.5l-142 589q-36 152 -37 158q-10 41 -32 62.5t-52 21.5t-52 -21.5t-32 -62.5q-7 -27 -38 -154l-144 -593q-14 -62 -53 -95.5t-88 -33.5q-51 0 -92 35.5t-56 99.5z" />
    <glyph glyph-name="wacute.ss01" horiz-adv-x="1654" 
d="M864 1178h-80l228 270h82zM274 115l-198 872h69l162 -708q6 -27 17.5 -78t15.5 -70q10 -40 31.5 -61t50.5 -21q27 0 48 19.5t30 56.5q19 70 37 151l145 598q17 65 57 99.5t92 34.5t90.5 -34.5t53.5 -99.5l143 -595q6 -29 19 -81.5t18 -72.5q9 -37 30.5 -56.5t49.5 -19.5
t49.5 21t30.5 61q5 23 16.5 74t16.5 74l161 708h70l-199 -872q-14 -65 -54.5 -100t-90.5 -35t-89.5 33.5t-53.5 95.5l-142 589q-36 152 -37 158q-10 41 -32 62.5t-52 21.5t-52 -21.5t-32 -62.5q-7 -27 -38 -154l-144 -593q-14 -62 -53 -95.5t-88 -33.5q-51 0 -92 35.5
t-56 99.5z" />
    <glyph glyph-name="wcircumflex.ss01" horiz-adv-x="1654" 
d="M535 1178l137 186q63 88 158.5 88t158.5 -88l133 -186h-75l-121 165q-40 53 -96 52.5t-95 -52.5l-125 -165h-75zM274 115l-198 872h69l162 -708q6 -27 17.5 -78t15.5 -70q10 -40 31.5 -61t50.5 -21q27 0 48 19.5t30 56.5q19 70 37 151l145 598q17 65 57 99.5t92 34.5
t90.5 -34.5t53.5 -99.5l143 -595q6 -29 19 -81.5t18 -72.5q9 -37 30.5 -56.5t49.5 -19.5t49.5 21t30.5 61q5 23 16.5 74t16.5 74l161 708h70l-199 -872q-14 -65 -54.5 -100t-90.5 -35t-89.5 33.5t-53.5 95.5l-142 589q-36 152 -37 158q-10 41 -32 62.5t-52 21.5t-52 -21.5
t-32 -62.5q-7 -27 -38 -154l-144 -593q-14 -62 -53 -95.5t-88 -33.5q-51 0 -92 35.5t-56 99.5z" />
    <glyph glyph-name="wdieresis.ss01" horiz-adv-x="1654" 
d="M639 1264q-25 0 -40 16t-15 41q0 26 15 41.5t40 15.5q24 0 39.5 -15.5t15.5 -41.5q0 -25 -16 -41t-39 -16zM1020 1264q-24 0 -40.5 16.5t-16.5 40.5q0 26 16.5 41.5t40.5 15.5q25 0 40 -15.5t15 -41.5q0 -25 -15 -41t-40 -16zM274 115l-198 872h69l162 -708
q6 -27 17.5 -78t15.5 -70q10 -40 31.5 -61t50.5 -21q27 0 48 19.5t30 56.5q19 70 37 151l145 598q17 65 57 99.5t92 34.5t90.5 -34.5t53.5 -99.5l143 -595q6 -29 19 -81.5t18 -72.5q9 -37 30.5 -56.5t49.5 -19.5t49.5 21t30.5 61q5 23 16.5 74t16.5 74l161 708h70l-199 -872
q-14 -65 -54.5 -100t-90.5 -35t-89.5 33.5t-53.5 95.5l-142 589q-36 152 -37 158q-10 41 -32 62.5t-52 21.5t-52 -21.5t-32 -62.5q-7 -27 -38 -154l-144 -593q-14 -62 -53 -95.5t-88 -33.5q-51 0 -92 35.5t-56 99.5z" />
    <glyph glyph-name="wgrave.ss01" horiz-adv-x="1654" 
d="M645 1448l227 -270h-79l-230 270h82zM274 115l-198 872h69l162 -708q6 -27 17.5 -78t15.5 -70q10 -40 31.5 -61t50.5 -21q27 0 48 19.5t30 56.5q19 70 37 151l145 598q17 65 57 99.5t92 34.5t90.5 -34.5t53.5 -99.5l143 -595q6 -29 19 -81.5t18 -72.5q9 -37 30.5 -56.5
t49.5 -19.5t49.5 21t30.5 61q5 23 16.5 74t16.5 74l161 708h70l-199 -872q-14 -65 -54.5 -100t-90.5 -35t-89.5 33.5t-53.5 95.5l-142 589q-36 152 -37 158q-10 41 -32 62.5t-52 21.5t-52 -21.5t-32 -62.5q-7 -27 -38 -154l-144 -593q-14 -62 -53 -95.5t-88 -33.5
q-51 0 -92 35.5t-56 99.5z" />
    <glyph glyph-name="x.ss01" horiz-adv-x="1122" 
d="M1024 0h-86l-246 334q-59 83 -59 160q0 74 59 157l246 336h86l-281 -377q-45 -61 -45 -116q0 -58 45 -119zM182 0h-84l279 375q45 57 45 119q0 59 -45 116l-279 377h84l248 -336q59 -76 59 -157t-59 -160z" />
    <glyph glyph-name="z.ss01" horiz-adv-x="989" 
d="M889 68v-68h-633q-72 0 -113 40t-41 97q0 72 64 127l608 504q23 17 35 41q6 15 6 35q0 28 -16 47q-25 29 -66 29h-620v67h628q67 0 106.5 -41t39.5 -98q0 -75 -66 -129l-606 -504q-22 -16 -35 -43q-6 -15 -6 -31q0 -31 21 -49q21 -24 69 -24h625z" />
    <glyph glyph-name="zacute.ss01" horiz-adv-x="989" 
d="M532 1178h-81l229 270h80zM889 68v-68h-633q-72 0 -113 40t-41 97q0 72 64 127l608 504q23 17 35 41q6 15 6 35q0 28 -16 47q-25 29 -66 29h-620v67h628q67 0 106.5 -41t39.5 -98q0 -75 -66 -129l-606 -504q-22 -16 -35 -43q-6 -15 -6 -31q0 -31 21 -49q21 -24 69 -24
h625z" />
    <glyph glyph-name="zcaron.ss01" horiz-adv-x="989" 
d="M338 1262l-135 186h76l122 -168q39 -52 95.5 -52.5t95.5 52.5l123 168h76l-136 -186q-40 -57 -98.5 -78t-117.5 0t-101 78zM889 68v-68h-633q-72 0 -113 40t-41 97q0 72 64 127l608 504q23 17 35 41q6 15 6 35q0 28 -16 47q-25 29 -66 29h-620v67h628q67 0 106.5 -41
t39.5 -98q0 -75 -66 -129l-606 -504q-22 -16 -35 -43q-6 -15 -6 -31q0 -31 21 -49q21 -24 69 -24h625z" />
    <glyph glyph-name="zdotaccent.ss01" horiz-adv-x="989" 
d="M496 1257q-25 0 -43.5 18.5t-18.5 45.5q0 29 18 47t44 18q28 0 44.5 -18t16.5 -47q0 -28 -17 -46t-44 -18zM889 68v-68h-633q-72 0 -113 40t-41 97q0 72 64 127l608 504q23 17 35 41q6 15 6 35q0 28 -16 47q-25 29 -66 29h-620v67h628q67 0 106.5 -41t39.5 -98
q0 -75 -66 -129l-606 -504q-22 -16 -35 -43q-6 -15 -6 -31q0 -31 21 -49q21 -24 69 -24h625z" />
    <glyph glyph-name="k.ss02" horiz-adv-x="1126" 
d="M252 0h-72v1440h72v-912h166q205 0 333 99t128 266v94h71v-90q0 -161 -99.5 -270t-262.5 -131q164 -23 263 -130.5t99 -267.5v-98h-71v102q0 163 -128 261t-331 98h-168v-461z" />
    <glyph glyph-name="kcommaaccent.ss02" horiz-adv-x="1126" 
d="M252 0h-72v1440h72v-912h166q205 0 333 99t128 266v94h71v-90q0 -161 -99.5 -270t-262.5 -131q164 -23 263 -130.5t99 -267.5v-98h-71v102q0 163 -128 261t-331 98h-168v-461zM535 -410h-46l31 197q-33 17 -33 55q0 25 17.5 41.5t42.5 16.5q26 0 42.5 -16.5t16.5 -41.5
q0 -16 -6 -28z" />
    <glyph glyph-name="x.ss02" horiz-adv-x="1212" 
d="M248 117v-117h-72v117q0 150 91.5 251t240.5 126q-147 26 -239.5 132t-92.5 253v108h72v-108q0 -141 98 -237.5t266 -113.5q155 17 253 114.5t98 236.5v108h71v-108q0 -145 -93.5 -251.5t-235.5 -133.5q145 -25 237 -126.5t92 -250.5v-117h-71v117q0 135 -98.5 231
t-252.5 113q-167 -17 -265.5 -112t-98.5 -232z" />
    <glyph glyph-name="three.ss01" horiz-adv-x="1101" 
d="M532 -20q-143 0 -260.5 69t-171.5 197l68 35q47 -111 143 -170.5t221 -59.5q158 0 264.5 84.5t106.5 229.5q0 95 -56 160t-148.5 94.5t-215.5 29.5h-90v70h92q184 0 286.5 81.5t102.5 227.5q0 131 -97 208t-245 77q-120 0 -215.5 -60.5t-142.5 -171.5l-68 33
q54 128 170.5 198t255.5 70q182 0 298 -94.5t116 -255.5q0 -135 -77.5 -230t-198.5 -120q133 -20 219 -105t86 -219q0 -174 -124.5 -276t-318.5 -102z" />
    <glyph glyph-name="dotaccentcomb.i" horiz-adv-x="0" 
d="M0 1257q-26 0 -43.5 18t-17.5 46q0 29 17 47t44 18q28 0 44.5 -18t16.5 -47q0 -28 -17 -46t-44 -18z" />
    <glyph glyph-name="ITF" horiz-adv-x="3561" 
d="M225 0v1434h443v-1434h-443zM760 1016v418h442v-418h-442zM1292 0v1434h445v-1434h-445zM1827 1016v418h442v-418h-442zM2359 0v1434h445v-1434h-445zM2894 1016v418h442v-418h-442zM2894 506v420h442v-420h-442z" />
    </font>
</defs>
</svg>
